# Blender v2.78 (sub 0) OBJ File: 'FuelGenerator.blend'
# www.blender.org
o Cube.003
v -0.500000 0.000000 -1.500000
v -0.500000 1.000000 -1.500000
v -0.500000 0.000000 -2.500000
v -0.500000 1.000000 -2.500000
v 0.500000 0.000000 -1.500000
v 0.500000 1.000000 -1.500000
v 0.500000 0.000000 -2.500000
v 0.500000 1.000000 -2.500000
v -0.450000 0.050000 -2.450000
v -0.450000 0.050000 -1.550000
v -0.450000 0.950000 -1.550000
v -0.450000 0.950000 -2.450000
v 0.450000 0.050000 -2.450000
v 0.450000 0.950000 -2.450000
v 0.450000 0.050000 -1.550000
v 0.450000 0.950000 -1.550000
vt 0.0000 1.0000
vt 1.0000 0.0000
vt 0.0000 0.0000
vt 0.0000 1.0000
vt 1.0000 0.0000
vt 0.0000 0.0000
vt 0.0000 1.0000
vt 1.0000 0.0000
vt 0.0000 0.0000
vt 0.0000 1.0000
vt 1.0000 0.0000
vt 0.0000 0.0000
vt 0.0000 1.0000
vt 0.0000 1.0000
vt 1.0000 0.0000
vt 0.0000 0.0000
vt 0.0000 1.0000
vt 1.0000 0.0000
vt 0.0000 0.0000
vt 0.0000 1.0000
vt 1.0000 0.0000
vt 0.0000 0.0000
vt 0.0000 1.0000
vt 1.0000 0.0000
vt 0.0000 0.0000
vt 1.0000 0.0000
vt 0.0000 1.0000
vt 1.0000 0.0000
vt 0.0000 0.0000
vt 0.0000 1.0000
vt 1.0000 0.0000
vt 0.0000 0.0000
vt 0.0000 1.0000
vt 1.0000 0.0000
vt 0.0000 0.0000
vt 0.0000 1.0000
vt 1.0000 0.0000
vt 0.0000 0.0000
vt 1.0000 1.0000
vt 1.0000 1.0000
vt 1.0000 1.0000
vt 1.0000 1.0000
vt 1.0000 1.0000
vt 1.0000 1.0000
vt 1.0000 1.0000
vt 1.0000 1.0000
vt 1.0000 1.0000
vt 1.0000 1.0000
vn -1.0000 0.0000 0.0000
vn 0.0000 0.0000 -1.0000
vn 1.0000 0.0000 0.0000
vn 0.0000 0.0000 1.0000
vn 0.0000 -1.0000 0.0000
vn 0.0000 1.0000 0.0000
vn -0.7071 0.7071 0.0000
vn 0.7071 0.7071 0.0000
vn 0.0000 0.7071 -0.7071
vn 0.0000 0.7071 0.7071
s off
f 2/1/1 3/2/1 1/3/1
f 4/4/2 7/5/2 3/6/2
f 8/7/3 5/8/3 7/9/3
f 6/10/4 1/11/4 5/12/4
f 7/13/5 1/11/5 3/6/5
f 9/14/3 11/15/3 10/16/3
f 13/17/4 12/18/4 9/19/4
f 15/20/1 14/21/1 13/22/1
f 10/23/2 16/24/2 15/25/2
f 10/23/6 13/26/6 9/19/6
f 14/27/7 6/28/7 8/29/7
f 11/30/8 4/31/8 2/32/8
f 16/33/9 2/34/9 6/35/9
f 12/36/10 8/37/10 4/38/10
f 2/1/1 4/39/1 3/2/1
f 4/4/2 8/40/2 7/5/2
f 8/7/3 6/41/3 5/8/3
f 6/10/4 2/42/4 1/11/4
f 7/13/5 5/43/5 1/11/5
f 9/14/3 12/44/3 11/15/3
f 13/17/4 14/45/4 12/18/4
f 15/20/1 16/46/1 14/21/1
f 10/23/2 11/47/2 16/24/2
f 10/23/6 15/48/6 13/26/6
f 14/27/7 16/46/7 6/28/7
f 11/30/8 12/44/8 4/31/8
f 16/33/9 11/47/9 2/34/9
f 12/36/10 14/45/10 8/37/10
