# Blender v2.78 (sub 0) OBJ File: ''
# www.blender.org
o Cube
v 0.000000 -0.174429 -0.000000
v -1.000000 3.716306 -0.000000
v 1.000000 0.970932 0.000000
v -0.000000 0.970932 1.000000
v -1.000000 0.970932 -0.000000
v 0.000000 -0.029068 -1.000000
v -0.000000 3.825571 0.000000
v 0.000000 3.716306 -1.000000
v -0.000001 3.716306 1.000000
v 1.000000 3.716306 0.000001
v 1.000000 2.716306 0.000001
v -0.000001 2.716306 1.000000
v 0.000000 2.716306 -1.000000
v -1.000000 2.716306 -0.000000
v 0.000000 0.970932 -1.000000
v -1.000000 -0.029068 -0.000000
v -0.000000 -0.029068 1.000000
v 1.000000 -0.029068 0.000000
v 0.750000 -0.138089 0.000000
v 0.000000 -0.138089 -0.750000
v 0.750000 0.970932 -0.750000
v -0.000000 -0.138089 0.750000
v 0.750000 0.970932 0.750000
v -0.750000 -0.138089 -0.000000
v -0.750000 0.970932 0.750000
v -0.750000 0.970932 -0.750000
v 1.000000 1.834595 0.000001
v 0.000000 1.834595 -1.000000
v -0.000000 1.834595 1.000000
v -1.000000 1.834595 -0.000000
v 0.750000 3.798255 0.000000
v 0.000000 3.798255 -0.750000
v -0.000000 3.798255 0.750000
v -0.750000 3.798255 -0.000000
v -0.750000 3.716306 0.750000
v -0.750000 2.716306 -0.750000
v 0.750000 2.716306 -0.750000
v 0.750000 3.716306 0.750000
v -0.750000 2.716306 0.750000
v -0.750000 3.716306 -0.750000
v 0.750000 3.716306 -0.750000
v 0.750000 2.716306 0.750000
v 1.000000 3.411674 0.000001
v -0.000001 3.411674 1.000000
v 0.000000 3.411674 -1.000000
v -1.000000 3.411674 -0.000000
v 0.750000 -0.029068 -0.750000
v 0.750000 -0.029068 0.750000
v -0.750000 -0.029068 0.750000
v -0.750000 -0.029068 -0.750000
v 0.000000 0.293612 -1.000000
v -1.000000 0.293612 -0.000000
v -0.000000 0.293612 1.000000
v 1.000000 0.293612 0.000000
v 0.555556 -0.109824 -0.555556
v 0.555556 -0.109824 0.555556
v -0.555556 -0.109824 0.555555
v -0.555555 -0.109824 -0.555556
v 0.750000 1.834595 -0.750000
v 0.750000 1.834595 0.750000
v -0.750000 1.834595 0.750000
v -0.750000 1.834595 -0.750000
v 0.555556 3.777009 -0.555555
v 0.555555 3.777009 0.555556
v -0.555556 3.777009 -0.555556
v -0.555556 3.777009 0.555556
v -0.750000 3.411673 0.750000
v -0.750000 3.411673 -0.750000
v 0.750000 3.411673 -0.750000
v 0.750000 3.411673 0.750000
v 0.750000 0.293612 -0.750000
v 0.750000 0.293612 0.750000
v -0.750000 0.293612 0.750000
v -0.750000 0.293612 -0.750000
vt 0.1250 0.1250
vt 0.2490 0.0010
vt 0.1250 0.0010
vt 0.0010 0.0010
vt 0.0010 0.1250
vt 0.0010 0.2490
vt 0.1250 0.2490
vt 0.2490 0.2490
vt 0.2490 0.1250
vt 0.8125 0.2490
vt 0.8740 0.1250
vt 0.8125 0.1250
vt 0.8125 0.0010
vt 0.7510 0.0010
vt 0.7510 0.1250
vt 0.7510 0.2490
vt 0.4990 0.1250
vt 0.3750 0.0010
vt 0.3750 0.1250
vt 0.2510 0.0010
vt 0.2510 0.1250
vt 0.3750 0.2490
vt 0.4990 0.2490
vt 0.4990 0.3750
vt 0.3750 0.2510
vt 0.3750 0.3750
vt 0.2510 0.3750
vt 0.3750 0.4990
vt 0.4990 0.4990
vt 0.2490 0.6250
vt 0.1250 0.5010
vt 0.1250 0.6250
vt 0.0010 0.6250
vt 0.0010 0.7490
vt 0.1250 0.7490
vt 0.6250 0.8740
vt 0.7490 0.8125
vt 0.6250 0.8125
vt 0.7490 0.7510
vt 0.6250 0.7510
vt 0.5010 0.7510
vt 0.5010 0.8125
vt 0.6250 0.3750
vt 0.7490 0.2510
vt 0.6250 0.2510
vt 0.5010 0.2510
vt 0.5010 0.3750
vt 0.5010 0.4990
vt 0.6250 0.4990
vt 0.7490 0.4990
vt 0.7490 0.3750
vt 0.8125 0.4990
vt 0.8740 0.3750
vt 0.8125 0.3750
vt 0.8125 0.2510
vt 0.7510 0.2510
vt 0.7510 0.3750
vt 0.7510 0.4990
vt 0.2510 0.8125
vt 0.3750 0.8740
vt 0.3750 0.8125
vt 0.4990 0.8125
vt 0.4990 0.7510
vt 0.3750 0.7510
vt 0.2510 0.7510
vt 0.8125 0.7490
vt 0.8740 0.6250
vt 0.8125 0.6250
vt 0.8125 0.5010
vt 0.7510 0.5010
vt 0.7510 0.6250
vt 0.7510 0.7490
vt 0.2490 0.8750
vt 0.1250 0.7510
vt 0.1250 0.8750
vt 0.0010 0.8750
vt 0.0010 0.9990
vt 0.1250 0.9990
vt 0.7490 0.6250
vt 0.6250 0.5010
vt 0.6250 0.6250
vt 0.5010 0.6250
vt 0.5010 0.7490
vt 0.6250 0.7490
vt 0.7490 0.1250
vt 0.6250 0.0010
vt 0.6250 0.1250
vt 0.5010 0.1250
vt 0.5010 0.2490
vt 0.6250 0.2490
vt 0.7490 0.2490
vt 0.2490 0.3750
vt 0.1250 0.2510
vt 0.1250 0.3750
vt 0.0010 0.3750
vt 0.0010 0.4990
vt 0.1250 0.4990
vt 0.2490 0.4990
vt 0.4990 0.6250
vt 0.3750 0.5010
vt 0.3750 0.6250
vt 0.2510 0.5010
vt 0.2510 0.6250
vt 0.2510 0.7490
vt 0.3750 0.7490
vt 0.4990 0.7490
vt 0.3750 0.9375
vt 0.4990 0.9990
vt 0.4990 0.9375
vt 0.4990 0.8760
vt 0.3750 0.8760
vt 0.2510 0.9375
vt 0.2510 0.9990
vt 0.3750 0.9990
vt 0.9375 0.1250
vt 0.9990 0.0010
vt 0.9375 0.0010
vt 0.8760 0.0010
vt 0.8760 0.1250
vt 0.9375 0.2490
vt 0.9990 0.2490
vt 0.9990 0.1250
vt 0.6250 0.9375
vt 0.7490 0.9990
vt 0.7490 0.9375
vt 0.7490 0.8760
vt 0.6250 0.8760
vt 0.5010 0.9375
vt 0.5010 0.9990
vt 0.6250 0.9990
vt 0.8740 0.2490
vt 0.8740 0.0010
vt 0.4990 0.0010
vt 0.2510 0.2490
vt 0.4990 0.2510
vt 0.2510 0.2510
vt 0.2510 0.4990
vt 0.2490 0.5010
vt 0.0010 0.5010
vt 0.2490 0.7490
vt 0.7490 0.8740
vt 0.5010 0.8740
vt 0.8740 0.4990
vt 0.8740 0.2510
vt 0.2510 0.8740
vt 0.4990 0.8740
vt 0.8740 0.7490
vt 0.8740 0.5010
vt 0.2490 0.7510
vt 0.0010 0.7510
vt 0.2490 0.9990
vt 0.7490 0.5010
vt 0.5010 0.5010
vt 0.7490 0.7490
vt 0.7490 0.0010
vt 0.5010 0.0010
vt 0.2490 0.2510
vt 0.0010 0.2510
vt 0.4990 0.5010
vt 0.2510 0.8760
vt 0.8760 0.2490
vt 0.5010 0.8760
vn 0.0000 -1.0000 0.0000
vn 0.1605 -0.9739 -0.1605
vn 0.2622 -0.9650 0.0000
vn 0.1605 -0.9739 0.1605
vn 0.0000 -0.9650 0.2622
vn -0.1605 -0.9739 0.1605
vn -0.2622 -0.9650 0.0000
vn -0.1605 -0.9739 -0.1605
vn 0.0000 -0.9650 -0.2622
vn -0.5900 0.5511 -0.5900
vn -1.0000 0.0000 0.0000
vn -0.8386 0.5448 0.0000
vn -0.5900 0.5511 0.5900
vn -0.1225 0.9849 0.1225
vn -0.2036 0.9790 0.0000
vn -0.1225 0.9849 -0.1225
vn 1.0000 0.0000 0.0000
vn 0.7071 0.0000 -0.7071
vn 0.7071 0.0000 0.7071
vn 0.0000 0.0000 1.0000
vn -0.7071 0.0000 0.7071
vn -0.7071 0.0000 -0.7071
vn 0.0000 0.0000 -1.0000
vn 0.6002 -0.5287 -0.6002
vn 0.0000 -0.5135 -0.8581
vn -0.6002 -0.5287 -0.6002
vn 0.0000 1.0000 0.0000
vn 0.1225 0.9849 -0.1225
vn 0.0000 0.9790 -0.2036
vn 0.0000 0.9790 0.2036
vn 0.1225 0.9849 0.1225
vn 0.2036 0.9790 0.0000
vn 0.5900 0.5511 -0.5900
vn 0.0000 0.5448 -0.8386
vn 0.0000 0.5448 0.8386
vn 0.5900 0.5511 0.5900
vn 0.8386 0.5448 0.0000
vn -0.8581 -0.5135 0.0000
vn -0.6002 -0.5287 0.6002
vn 0.0000 -0.5135 0.8581
vn 0.6002 -0.5287 0.6002
vn 0.8581 -0.5135 0.0000
s 1
f 1/1/1 55/2/2 19/3/3
f 1/1/1 56/4/4 22/5/5
f 1/1/1 57/6/6 24/7/7
f 1/1/1 58/8/8 20/9/9
f 40/10/10 46/11/11 2/12/12
f 46/11/11 35/13/13 2/12/12
f 2/12/12 66/14/14 34/15/15
f 2/12/12 65/16/16 40/10/10
f 54/17/17 21/18/18 3/19/17
f 3/19/17 59/20/18 27/21/17
f 27/21/17 23/22/19 3/19/17
f 3/19/17 72/23/19 54/17/17
f 53/24/20 23/25/19 4/26/20
f 23/25/19 29/27/20 4/26/20
f 29/27/20 25/28/21 4/26/20
f 4/26/20 73/29/21 53/24/20
f 52/30/11 25/31/21 5/32/11
f 25/31/21 30/33/11 5/32/11
f 5/32/11 62/34/22 26/35/22
f 26/35/22 52/30/11 5/32/11
f 51/36/23 47/37/24 6/38/25
f 6/38/25 55/39/2 20/40/9
f 6/38/25 58/41/8 50/42/26
f 50/42/26 51/36/23 6/38/25
f 7/43/27 63/44/28 32/45/29
f 7/43/27 65/46/16 34/47/15
f 7/43/27 66/48/14 33/49/30
f 7/43/27 64/50/31 31/51/32
f 41/52/33 45/53/23 8/54/34
f 45/53/23 40/55/10 8/54/34
f 8/54/34 65/56/16 32/57/29
f 8/54/34 63/58/28 41/52/33
f 35/59/13 44/60/20 9/61/35
f 44/60/20 38/62/36 9/61/35
f 9/61/35 64/63/31 33/64/30
f 9/61/35 66/65/14 35/59/13
f 38/66/36 43/67/17 10/68/37
f 43/67/17 41/69/33 10/68/37
f 10/68/37 63/70/28 31/71/32
f 10/68/37 64/72/31 38/66/36
f 42/73/19 27/74/17 11/75/17
f 27/74/17 37/76/18 11/75/17
f 11/75/17 69/77/18 43/78/17
f 43/78/17 42/73/19 11/75/17
f 39/79/21 29/80/20 12/81/20
f 29/80/20 42/82/19 12/81/20
f 12/81/20 70/83/19 44/84/20
f 44/84/20 39/79/21 12/81/20
f 37/85/18 28/86/23 13/87/23
f 28/86/23 36/88/22 13/87/23
f 13/87/23 68/89/22 45/90/23
f 13/87/23 69/91/18 37/85/18
f 36/92/22 30/93/11 14/94/11
f 30/93/11 39/95/21 14/94/11
f 14/94/11 67/96/21 46/97/11
f 14/94/11 68/98/22 36/92/22
f 28/99/23 21/100/18 15/101/23
f 15/101/23 71/102/18 51/103/23
f 15/101/23 74/104/22 26/105/22
f 15/101/23 62/106/22 28/99/23
f 16/107/38 57/108/6 49/109/39
f 16/107/38 73/110/21 52/111/11
f 52/111/11 50/112/26 16/107/38
f 16/107/38 58/113/8 24/114/7
f 17/115/40 56/116/4 48/117/41
f 17/115/40 72/118/19 53/119/20
f 53/119/20 49/120/39 17/115/40
f 17/115/40 57/121/6 22/122/5
f 18/123/42 55/124/2 47/125/24
f 18/123/42 71/126/18 54/127/17
f 54/127/17 48/128/41 18/123/42
f 18/123/42 56/129/4 19/130/3
f 1/1/1 20/9/9 55/2/2
f 1/1/1 19/3/3 56/4/4
f 1/1/1 22/5/5 57/6/6
f 1/1/1 24/7/7 58/8/8
f 40/10/10 68/131/22 46/11/11
f 46/11/11 67/132/21 35/13/13
f 2/12/12 35/13/13 66/14/14
f 2/12/12 34/15/15 65/16/16
f 54/17/17 71/133/18 21/18/18
f 3/19/17 21/18/18 59/20/18
f 27/21/17 60/134/19 23/22/19
f 3/19/17 23/22/19 72/23/19
f 53/24/20 72/135/19 23/25/19
f 23/25/19 60/136/19 29/27/20
f 29/27/20 61/137/21 25/28/21
f 4/26/20 25/28/21 73/29/21
f 52/30/11 73/138/21 25/31/21
f 25/31/21 61/139/21 30/33/11
f 5/32/11 30/33/11 62/34/22
f 26/35/22 74/140/22 52/30/11
f 51/36/23 71/141/18 47/37/24
f 6/38/25 47/37/24 55/39/2
f 6/38/25 20/40/9 58/41/8
f 50/42/26 74/142/22 51/36/23
f 7/43/27 31/51/32 63/44/28
f 7/43/27 32/45/29 65/46/16
f 7/43/27 34/47/15 66/48/14
f 7/43/27 33/49/30 64/50/31
f 41/52/33 69/143/18 45/53/23
f 45/53/23 68/144/22 40/55/10
f 8/54/34 40/55/10 65/56/16
f 8/54/34 32/57/29 63/58/28
f 35/59/13 67/145/21 44/60/20
f 44/60/20 70/146/19 38/62/36
f 9/61/35 38/62/36 64/63/31
f 9/61/35 33/64/30 66/65/14
f 38/66/36 70/147/19 43/67/17
f 43/67/17 69/148/18 41/69/33
f 10/68/37 41/69/33 63/70/28
f 10/68/37 31/71/32 64/72/31
f 42/73/19 60/149/19 27/74/17
f 27/74/17 59/150/18 37/76/18
f 11/75/17 37/76/18 69/77/18
f 43/78/17 70/151/19 42/73/19
f 39/79/21 61/152/21 29/80/20
f 29/80/20 60/153/19 42/82/19
f 12/81/20 42/82/19 70/83/19
f 44/84/20 67/154/21 39/79/21
f 37/85/18 59/155/18 28/86/23
f 28/86/23 62/156/22 36/88/22
f 13/87/23 36/88/22 68/89/22
f 13/87/23 45/90/23 69/91/18
f 36/92/22 62/157/22 30/93/11
f 30/93/11 61/158/21 39/95/21
f 14/94/11 39/95/21 67/96/21
f 14/94/11 46/97/11 68/98/22
f 28/99/23 59/159/18 21/100/18
f 15/101/23 21/100/18 71/102/18
f 15/101/23 51/103/23 74/104/22
f 15/101/23 26/105/22 62/106/22
f 16/107/38 24/114/7 57/108/6
f 16/107/38 49/109/39 73/110/21
f 52/111/11 74/160/22 50/112/26
f 16/107/38 50/112/26 58/113/8
f 17/115/40 22/122/5 56/116/4
f 17/115/40 48/117/41 72/118/19
f 53/119/20 73/161/21 49/120/39
f 17/115/40 49/120/39 57/121/6
f 18/123/42 19/130/3 55/124/2
f 18/123/42 47/125/24 71/126/18
f 54/127/17 72/162/19 48/128/41
f 18/123/42 48/128/41 56/129/4
