# Blender v2.72 (sub 0) OBJ File: 'MutatusCubicus.blend'
# www.blender.org
o Icosphere
v 0.000000 -3.000000 0.000000
v 2.170822 -1.341659 1.577176
v -0.829164 -1.341660 2.551948
v -2.683279 -1.341647 0.000000
v -0.829164 -1.341660 -2.551948
v 2.170822 -1.341659 -1.577176
v 0.829164 1.341660 2.551948
v -2.170822 1.341659 1.577176
v -2.170822 1.341659 -1.577176
v 0.829164 1.341660 -2.551948
v 2.683279 1.341647 0.000000
v 0.000000 3.000000 0.000000
v -0.487367 -2.551963 1.499986
v 1.275968 -2.551963 0.927034
v 0.788607 -1.577213 2.427035
v 2.551944 -1.577208 0.000000
v 1.275968 -2.551963 -0.927034
v -1.577189 -2.551955 0.000000
v -2.064568 -1.577209 1.499991
v -0.487367 -2.551963 -1.499986
v -2.064568 -1.577209 -1.499991
v 0.788607 -1.577213 -2.427035
v 2.853174 0.000000 0.927038
v 2.853174 0.000000 -0.927038
v 0.000000 0.000000 3.000000
v 1.763357 0.000000 2.427050
v -2.853174 0.000000 0.927038
v -1.763357 0.000000 2.427050
v -1.763357 0.000000 -2.427050
v -2.853174 0.000000 -0.927038
v 1.763357 0.000000 -2.427050
v 0.000000 0.000000 -3.000000
v 2.064568 1.577209 1.499991
v -0.788607 1.577213 2.427035
v -2.551944 1.577208 0.000000
v -0.788607 1.577213 -2.427035
v 2.064568 1.577209 -1.499991
v 0.487367 2.551963 1.499986
v 1.577189 2.551955 0.000000
v -1.275968 2.551963 0.927034
v -1.275968 2.551963 -0.927034
v 0.487367 2.551963 -1.499986
vt 0.377882 0.000000
vt 0.650001 0.176206
vt 0.450001 0.176206
vt 0.650001 0.352414
vt 0.750000 0.323790
vt 0.250000 0.176208
vt 0.049999 0.176206
vt 1.049999 0.176206
vt 0.849999 0.176206
vt 0.700001 0.500000
vt 0.450001 0.352414
vt 0.550001 0.323789
vt 0.500000 0.500000
vt 0.250000 0.352416
vt 0.350000 0.323790
vt 0.299999 0.500000
vt 0.049999 0.352414
vt 0.150000 0.323790
vt 0.100000 0.500000
vt 0.849999 0.352414
vt 0.949999 0.323789
vt 0.900000 0.500000
vt 0.600000 0.500000
vt 0.400000 0.500000
vt 0.200001 0.500000
vt 0.000000 0.500000
vt 0.799999 0.500000
vt 0.549999 0.647586
vt 0.650000 0.676210
vt 0.549999 0.823794
vt 0.349999 0.647586
vt 0.449999 0.676211
vt 0.349999 0.823794
vt 0.150001 0.647586
vt 0.250000 0.676210
vt 0.150001 0.823794
vt 0.950001 0.647586
vt 1.050001 0.676211
vt 0.950001 0.823794
vt 0.750000 0.647584
vt 0.850000 0.676210
vt 0.750000 0.823792
vt 1.049999 0.352414
vt 1.000000 0.500000
vt 0.050001 0.676211
vt 0.877882 1.000000
vt 1.349999 0.823794
vt 1.150001 0.823794
vn 0.102400 -0.943500 0.315100
vn 0.700200 -0.661700 0.268000
vn -0.268000 -0.943500 0.194700
vn -0.268000 -0.943500 -0.194700
vn 0.102400 -0.943500 -0.315100
vn 0.905000 -0.330400 0.268000
vn 0.024700 -0.330400 0.943500
vn -0.889700 -0.330400 0.315100
vn -0.574600 -0.330400 -0.748800
vn 0.534600 -0.330400 -0.777900
vn 0.802600 -0.125600 0.583100
vn -0.306600 -0.125600 0.943500
vn -0.992100 -0.125600 0.000000
vn -0.306600 -0.125600 -0.943500
vn 0.802600 -0.125600 -0.583100
vn 0.408900 0.661700 0.628400
vn -0.471300 0.661700 0.583100
vn -0.700200 0.661700 -0.268000
vn 0.038500 0.661700 -0.748800
vn 0.724000 0.661700 -0.194700
vn -0.038500 -0.661700 0.748800
vn 0.187600 -0.794700 0.577300
vn 0.471300 -0.661700 0.583100
vn 0.700200 -0.661700 -0.268000
vn 0.607100 -0.794700 0.000000
vn 0.331300 -0.943500 0.000000
vn -0.724000 -0.661700 0.194700
vn -0.491100 -0.794700 0.356800
vn -0.408900 -0.661700 0.628400
vn -0.408900 -0.661700 -0.628400
vn -0.491100 -0.794700 -0.356800
vn -0.724000 -0.661700 -0.194700
vn 0.471300 -0.661700 -0.583100
vn 0.187600 -0.794700 -0.577300
vn -0.038500 -0.661700 -0.748800
vn 0.992100 0.125600 0.000000
vn 0.982200 -0.187600 0.000000
vn 0.905000 -0.330400 -0.268000
vn 0.306600 0.125600 0.943500
vn 0.303500 -0.187600 0.934200
vn 0.534600 -0.330400 0.777900
vn -0.802600 0.125600 0.583100
vn -0.794700 -0.187600 0.577300
vn -0.574600 -0.330400 0.748800
vn -0.802600 0.125600 -0.583100
vn -0.794700 -0.187600 -0.577300
vn -0.889700 -0.330400 -0.315100
vn 0.306600 0.125600 -0.943500
vn 0.303500 -0.187600 -0.934200
vn 0.024700 -0.330400 -0.943500
vn 0.574600 0.330400 0.748800
vn 0.794700 0.187600 0.577300
vn 0.889700 0.330400 0.315100
vn -0.534600 0.330400 0.777900
vn -0.303500 0.187600 0.934200
vn -0.024700 0.330400 0.943500
vn -0.905000 0.330400 -0.268000
vn -0.982200 0.187600 0.000000
vn -0.905000 0.330400 0.268000
vn -0.024700 0.330400 -0.943500
vn -0.303500 0.187600 -0.934200
vn -0.534600 0.330400 -0.777900
vn 0.889700 0.330400 -0.315100
vn 0.794700 0.187600 -0.577300
vn 0.574600 0.330400 -0.748800
vn 0.268000 0.943500 0.194700
vn 0.491100 0.794700 0.356800
vn 0.724000 0.661700 0.194700
vn -0.102400 0.943500 0.315100
vn -0.187600 0.794700 0.577300
vn 0.038500 0.661700 0.748800
vn -0.331300 0.943500 0.000000
vn -0.607100 0.794700 0.000000
vn -0.700200 0.661700 0.268000
vn -0.102400 0.943500 -0.315100
vn -0.187600 0.794700 -0.577300
vn -0.471300 0.661700 -0.583100
vn 0.268000 0.943500 -0.194700
vn 0.491100 0.794700 -0.356800
vn 0.408900 0.661700 -0.628400
s off
f 1/1/1 14/2/1 13/3/1
f 2/4/2 14/2/2 16/5/2
f 1/1/3 13/3/3 18/6/3
f 1/1/4 18/6/4 20/7/4
f 1/1/5 20/8/5 17/9/5
f 2/4/6 16/5/6 23/10/6
f 3/11/7 15/12/7 25/13/7
f 4/14/8 19/15/8 27/16/8
f 5/17/9 21/18/9 29/19/9
f 6/20/10 22/21/10 31/22/10
f 2/4/11 23/10/11 26/23/11
f 3/11/12 25/13/12 28/24/12
f 4/14/13 27/16/13 30/25/13
f 5/17/14 29/19/14 32/26/14
f 6/20/15 31/22/15 24/27/15
f 7/28/16 33/29/16 38/30/16
f 8/31/17 34/32/17 40/33/17
f 9/34/18 35/35/18 41/36/18
f 10/37/19 36/38/19 42/39/19
f 11/40/20 37/41/20 39/42/20
f 13/3/21 15/12/21 3/11/21
f 13/3/22 14/2/22 15/12/22
f 14/2/23 2/4/23 15/12/23
f 16/5/24 17/9/24 6/20/24
f 16/5/25 14/2/25 17/9/25
f 14/2/26 1/1/26 17/9/26
f 18/6/27 19/15/27 4/14/27
f 18/6/28 13/3/28 19/15/28
f 13/3/29 3/11/29 19/15/29
f 20/7/30 21/18/30 5/17/30
f 20/7/31 18/6/31 21/18/31
f 18/6/32 4/14/32 21/18/32
f 17/9/33 22/21/33 6/20/33
f 17/9/34 20/8/34 22/21/34
f 20/8/35 5/43/35 22/21/35
f 23/10/36 24/27/36 11/40/36
f 23/10/37 16/5/37 24/27/37
f 16/5/38 6/20/38 24/27/38
f 25/13/39 26/23/39 7/28/39
f 25/13/40 15/12/40 26/23/40
f 15/12/41 2/4/41 26/23/41
f 27/16/42 28/24/42 8/31/42
f 27/16/43 19/15/43 28/24/43
f 19/15/44 3/11/44 28/24/44
f 29/19/45 30/25/45 9/34/45
f 29/19/46 21/18/46 30/25/46
f 21/18/47 4/14/47 30/25/47
f 31/22/48 32/44/48 10/37/48
f 31/22/49 22/21/49 32/44/49
f 22/21/50 5/43/50 32/44/50
f 26/23/51 33/29/51 7/28/51
f 26/23/52 23/10/52 33/29/52
f 23/10/53 11/40/53 33/29/53
f 28/24/54 34/32/54 8/31/54
f 28/24/55 25/13/55 34/32/55
f 25/13/56 7/28/56 34/32/56
f 30/25/57 35/35/57 9/34/57
f 30/25/58 27/16/58 35/35/58
f 27/16/59 8/31/59 35/35/59
f 32/44/60 36/38/60 10/37/60
f 32/26/61 29/19/61 36/45/61
f 29/19/62 9/34/62 36/45/62
f 24/27/63 37/41/63 11/40/63
f 24/27/64 31/22/64 37/41/64
f 31/22/65 10/37/65 37/41/65
f 38/30/66 39/42/66 12/46/66
f 38/30/67 33/29/67 39/42/67
f 33/29/68 11/40/68 39/42/68
f 40/47/69 38/30/69 12/46/69
f 40/33/70 34/32/70 38/30/70
f 34/32/71 7/28/71 38/30/71
f 41/48/72 40/47/72 12/46/72
f 41/36/73 35/35/73 40/33/73
f 35/35/74 8/31/74 40/33/74
f 42/39/75 41/48/75 12/46/75
f 42/39/76 36/38/76 41/48/76
f 36/45/77 9/34/77 41/36/77
f 39/42/78 42/39/78 12/46/78
f 39/42/79 37/41/79 42/39/79
f 37/41/80 10/37/80 42/39/80
