# Blender v2.78 (sub 0) OBJ File: ''
# www.blender.org
o Cube
v 18.000000 0.000000 -6.000000
v 18.000000 0.000000 0.000000
v -0.000000 0.000000 -0.000000
v 0.000001 0.000000 -6.000001
v 18.000000 2.000000 -5.999999
v 17.999998 2.000000 0.000001
v -0.000001 2.000000 -0.000001
v 0.000000 2.000000 -6.000000
vt 123.7500 -125.2500
vt -326.2500 24.7500
vt 123.7500 24.7500
vt 123.7500 124.7500
vt -326.2500 -25.2500
vt 123.7499 -25.2500
vt -26.2500 74.7500
vt 123.7500 74.7500
vt 123.7499 124.7500
vt -326.2500 74.7500
vt 123.7500 74.7500
vt 173.7500 74.7500
vt 323.7500 124.7500
vt 323.7500 74.7500
vt 123.7500 -25.2500
vt -326.2500 24.7500
vt 123.7500 24.7500
vt -326.2500 -125.2500
vt -326.2500 124.7500
vt -26.2500 124.7500
vt -326.2500 124.7500
vt 173.7500 124.7500
vt -326.2500 -25.2500
vn 0.0000 -1.0000 0.0000
vn 0.0000 1.0000 0.0000
vn 1.0000 0.0000 0.0000
vn -0.0000 -0.0000 1.0000
vn -1.0000 -0.0000 -0.0000
vn 0.0000 0.0000 -1.0000
s off
f 2/1/1 4/2/1 1/3/1
f 5/4/2 7/5/2 6/6/2
f 5/4/3 2/7/3 1/8/3
f 6/9/4 3/10/4 2/11/4
f 3/12/5 8/13/5 4/14/5
f 1/15/6 8/16/6 5/17/6
f 2/1/1 3/18/1 4/2/1
f 5/4/2 8/19/2 7/5/2
f 5/4/3 6/20/3 2/7/3
f 6/9/4 7/21/4 3/10/4
f 3/12/5 7/22/5 8/13/5
f 1/15/6 4/23/6 8/16/6
