# Blender v2.72 (sub 0) OBJ File: 'MutatusCubicus.blend'
# www.blender.org
o MutatusCubicus_Cube.001
v -10.000000 0.000000 10.000000
v -10.000000 0.000000 -10.000000
v 10.000000 0.000000 -10.000000
v 10.000000 0.000000 10.000000
v -10.000000 20.000000 10.000000
v -10.000000 20.000000 -10.000000
v 10.000000 20.000000 -10.000000
v 10.000000 20.000000 10.000000
v -9.422651 0.577349 9.422651
v -9.422651 0.577349 -9.422651
v 9.422651 0.577349 -9.422651
v 9.422651 0.577349 9.422651
v -9.422651 19.422651 9.422651
v -9.422651 19.422651 -9.422651
v 9.422651 19.422651 -9.422651
v 9.422651 19.422651 9.422651
vt 1.000000 0.000000
vt 1.000000 1.000000
vt 0.000000 1.000000
vt 0.000000 0.000000
vn -1.000000 0.000000 0.000000
vn 0.000000 0.000000 -1.000000
vn 1.000000 0.000000 0.000000
vn 0.000000 0.000000 1.000000
vn 0.000000 -1.000000 0.000000
vn 0.000000 1.000000 0.000000
s off
f 6/1/1 2/2/1 1/3/1
f 7/1/2 3/2/2 2/3/2
f 8/1/3 4/2/3 3/3/3
f 5/1/4 1/2/4 4/3/4
f 2/1/5 3/2/5 4/3/5
f 7/1/6 6/2/6 5/3/6
f 10/2/3 14/1/3 13/4/3
f 11/2/4 15/1/4 14/4/4
f 12/2/1 16/1/1 15/4/1
f 9/2/2 13/1/2 16/4/2
f 11/2/6 10/1/6 9/4/6
f 14/2/5 15/1/5 16/4/5
f 5/4/1 6/1/1 1/3/1
f 6/4/2 7/1/2 2/3/2
f 7/4/3 8/1/3 3/3/3
f 8/4/4 5/1/4 4/3/4
f 1/4/5 2/1/5 4/3/5
f 8/4/6 7/1/6 5/3/6
f 9/3/3 10/2/3 13/4/3
f 10/3/4 11/2/4 14/4/4
f 11/3/1 12/2/1 15/4/1
f 12/3/2 9/2/2 16/4/2
f 12/3/6 11/2/6 9/4/6
f 13/3/5 14/2/5 16/4/5
