# Blender v2.72 (sub 0) OBJ File: 'ReactorBuilding.blend'
# www.blender.org
o Sphere
v 1.165707 0.961940 4.095671
v 1.306186 0.853553 4.176777
v 1.400051 0.691342 4.230970
v 1.433012 0.500000 4.250000
v 1.095671 0.961940 4.165707
v 1.176777 0.853553 4.306186
v 1.230970 0.691342 4.400052
v 1.250000 0.500000 4.433012
v 1.000000 0.961940 4.191341
v 1.000000 0.853553 4.353553
v 1.000000 0.691342 4.461940
v 1.000000 0.500000 4.500000
v 0.904329 0.961940 4.165707
v 0.823223 0.853553 4.306186
v 0.769030 0.691342 4.400052
v 0.750000 0.500000 4.433012
v 0.834293 0.961940 4.095671
v 0.693814 0.853553 4.176777
v 0.599948 0.691342 4.230970
v 0.566987 0.500000 4.250000
v 2.000000 0.500000 4.200000
v 2.000000 0.500000 5.000000
v 1.000000 0.500000 5.000000
v 0.000000 0.500000 5.000000
v 0.000000 0.500000 4.200000
v 0.808658 0.961940 4.000000
v 0.646447 0.853553 4.000000
v 0.538060 0.691342 4.000000
v 0.500000 0.500000 4.000000
v 1.000000 1.000000 4.000000
v 1.191342 0.961940 4.000000
v 1.353553 0.853553 4.000000
v 1.461940 0.691342 4.000000
v 1.500000 0.500000 4.000000
v 1.165707 0.961940 3.904329
v 1.306186 0.853553 3.823223
v 1.400051 0.691342 3.769030
v 1.433012 0.500000 3.750000
v 1.095671 0.961940 3.834293
v 1.176777 0.853553 3.693814
v 1.230970 0.691342 3.599948
v 1.250000 0.500000 3.566988
v 1.000000 0.961940 3.808658
v 1.000000 0.853553 3.646447
v 1.000000 0.691342 3.538060
v 1.000000 0.500000 3.500000
v 0.904329 0.961940 3.834293
v 0.823223 0.853553 3.693814
v 0.769030 0.691342 3.599948
v 0.750000 0.500000 3.566988
v 0.834293 0.961940 3.904329
v 0.693814 0.853553 3.823223
v 0.599948 0.691342 3.769030
v 0.566987 0.500000 3.750000
v 0.000000 0.500000 3.400000
v 2.000000 0.500000 3.400000
v 2.000000 0.300000 1.700000
v 2.000000 0.300000 0.000000
v 0.000000 0.500000 1.700000
v 0.000000 0.300000 0.000000
v 2.000000 0.500000 1.700000
v 2.000000 0.000000 5.000000
v 0.000000 0.000000 5.000000
v 2.000000 0.000000 0.000000
v 0.000000 0.000000 0.000000
v 1.400000 0.200000 5.000000
v 0.000000 0.200000 5.000000
v 1.400000 0.000000 5.000000
v 0.000000 0.000000 5.000000
v 1.400000 0.200000 6.666000
v 0.000000 0.200000 6.666000
v 1.400000 0.000000 6.666000
v 0.000000 0.000000 6.666000
v 0.000000 0.140000 2.620000
v 0.000000 0.140000 2.380000
v 0.000000 0.000000 2.620000
v 0.000000 0.000000 2.380000
v 0.000000 0.300000 1.700000
v 1.147966 0.916330 4.085429
v 1.274899 0.818990 4.158713
v 1.359854 0.672754 4.207762
v 1.408654 0.458663 4.235937
v 1.085429 0.916330 4.147966
v 1.158713 0.818990 4.274899
v 1.207762 0.672754 4.359854
v 1.235937 0.458663 4.408654
v 1.000000 0.916330 4.170857
v 1.000000 0.818988 4.317425
v 1.000000 0.672754 4.415524
v 1.000000 0.458663 4.471874
v 0.914571 0.916330 4.147966
v 0.841287 0.818990 4.274899
v 0.792238 0.672754 4.359854
v 0.764063 0.458663 4.408654
v 0.852034 0.916330 4.085429
v 0.725101 0.818990 4.158713
v 0.640146 0.672754 4.207762
v 0.591346 0.458663 4.235937
v 1.964646 0.464646 4.200000
v 1.971133 0.471133 4.971133
v 1.000000 0.464646 4.964645
v 0.028867 0.471133 4.971133
v 0.035354 0.464646 4.200000
v 0.829142 0.916330 4.000000
v 0.682574 0.818990 4.000000
v 0.584476 0.672754 4.000000
v 0.528126 0.458663 4.000000
v 1.000000 0.950000 4.000000
v 1.170858 0.916330 4.000000
v 1.317425 0.818990 4.000000
v 1.415524 0.672754 4.000000
v 1.471874 0.458663 4.000000
v 1.147966 0.916330 3.914571
v 1.274899 0.818990 3.841287
v 1.359854 0.672754 3.792238
v 1.403982 0.462903 3.766761
v 1.085429 0.916330 3.852034
v 1.158713 0.818990 3.725101
v 1.207762 0.672754 3.640146
v 1.233239 0.462903 3.596018
v 1.000000 0.916330 3.829142
v 1.000000 0.818990 3.682575
v 1.000000 0.672754 3.584476
v 1.000000 0.462903 3.533523
v 0.914571 0.916330 3.852034
v 0.841287 0.818990 3.725101
v 0.792238 0.672754 3.640146
v 0.766761 0.462903 3.596018
v 0.852034 0.916330 3.914571
v 0.725101 0.818990 3.841287
v 0.640146 0.672754 3.792238
v 0.596018 0.462903 3.766761
v 0.035353 0.464643 3.400000
v 1.964647 0.464643 3.400000
v 1.971133 0.271133 1.728868
v 1.971133 0.271133 0.028867
v 0.028868 0.471133 1.728868
v 0.028867 0.271133 0.028867
v 1.971132 0.471133 1.728868
v 1.971133 0.028867 4.971133
v 0.035354 0.035354 5.000000
v 1.971133 0.028867 0.028867
v 0.028867 0.028867 0.028867
v 1.384925 0.184925 4.954775
v 0.028867 0.171133 4.971133
v 1.371132 0.028867 4.971133
v 0.035354 0.035354 5.000000
v 1.371132 0.171133 6.637133
v 0.028867 0.171133 6.637133
v 1.371132 0.028867 6.637133
v 0.028867 0.028867 6.637133
v 0.050000 0.140000 2.620000
v 0.050000 0.140000 2.380000
v 0.050000 0.000000 2.620000
v 0.050000 0.000000 2.380000
v 0.028867 0.271133 1.728868
vt -0.036611 2.425000
vt -0.619400 4.600000
vt -4.969399 9.819999
vt 1.555599 0.832791
vt -4.969400 2.860002
vt 3.730598 0.250000
vt -4.969400 -4.100000
vt -13.669401 0.250000
vt -13.669401 -4.099996
vt -11.494400 0.832791
vt -9.902192 2.425000
vt -13.669401 -8.450000
vt -4.969400 7.210000
vt -22.369400 7.210000
vt -22.369400 4.600000
vt -22.369400 -10.190001
vt -4.969400 -10.190001
vt -22.369400 8.950000
vt -4.969400 8.950000
vt -4.969400 4.600000
vt -13.669400 8.950000
vt -13.669400 4.600000
vt -6.709399 8.950000
vt -22.369400 -4.100000
vt -22.369400 39.399998
vt -4.969400 39.399998
vt 7.036600 5.818000
vt 7.036600 4.600000
vt -10.189400 6.340000
vt -10.189400 4.600000
vt -13.669400 6.340000
vt -28.163599 6.340000
vt -28.163599 4.600000
vt 12.430599 -4.100000
vt 7.210600 -4.100000
vt -22.369400 6.340000
vt 7.210600 -18.594198
vt -4.969400 -18.594198
vt -22.369400 -18.594198
vt -10.189400 -18.594198
vt -25.675402 4.600000
vt -4.969400 -38.899998
vt -4.969400 -18.193998
vt -4.969400 -16.106001
vt 0.250599 8.950000
vt 15.040599 8.950000
vt -22.369398 -7.580001
vt 15.040599 7.210000
vt 29.830599 7.210000
vt 29.830599 4.600000
vt -10.189400 -4.100000
vt 9.124599 5.818000
vt -25.675402 5.818000
vt 3.730598 -4.099996
vt -9.319403 4.600000
vt -15.844400 -9.032791
vt -18.019400 -12.799999
vt -17.436611 -10.625000
vt -9.902192 -10.625000
vt -4.969402 -7.580001
vt -11.494400 -9.032791
vt -9.319403 -12.799999
vt -4.969400 10.614673
vt -6.978839 10.614673
vt -7.144401 8.950000
vt -4.969400 12.025914
vt -6.507360 12.025914
vt -12.004728 4.600000
vt -12.227753 3.767665
vt -11.005580 3.062041
vt -10.188951 10.614673
vt -11.659962 10.614673
vt -11.494400 8.950000
vt -11.005580 12.025914
vt -12.131446 12.025914
vt -12.837065 3.158352
vt -12.131446 1.936180
vt -13.669401 10.614673
vt -13.669401 12.025914
vt -13.669401 2.935330
vt -13.669401 1.524086
vt 3.730598 10.614673
vt 1.721161 10.614673
vt 1.555599 8.950000
vt 3.730598 12.025914
vt 2.192642 12.025914
vt 3.730598 2.935330
vt 2.898263 3.158352
vt 2.192642 1.936180
vt 0.250151 10.614673
vt -0.036611 8.950000
vt 1.066780 12.025914
vt 2.288951 3.767665
vt 3.730598 4.600000
vt 1.066780 3.062041
vt 2.065926 4.600000
vt -2.794400 8.950000
vt -2.959962 10.614673
vt -3.431444 12.025914
vt -10.593487 4.600000
vt -11.005580 6.137957
vt -12.227753 5.432335
vt -12.131446 7.263820
vt -12.837065 6.041647
vt -13.669401 7.675914
vt -13.669401 6.264672
vt 3.730598 7.675914
vt 2.192642 7.263820
vt 2.898263 6.041647
vt -2.305581 12.025914
vt 1.066780 6.137957
vt 2.288951 5.432335
vt 3.730598 6.264672
vt 0.654685 4.600000
vt -9.902192 8.950000
vt 3.730598 8.950000
vt 3.730598 1.524086
vt -1.488951 10.614673
vn 0.000000 1.000000 0.000000
vn 0.000000 0.000000 -1.000000
vn 1.000000 0.000000 0.000000
vn 0.000000 -1.000000 0.000000
vn -1.000000 0.000000 0.000000
vn -0.000000 0.000000 1.000000
vn -0.018000 -0.999800 0.004800
vn -0.011500 -0.999900 0.011500
vn -0.004400 -0.999900 0.016400
vn 0.006600 -0.999900 0.012100
vn 0.010600 -0.999900 0.008300
vn 0.010800 -0.999900 0.000000
vn -0.001300 -1.000000 -0.003900
vn 0.000000 1.000000 -0.001300
vn 1.000000 0.000000 0.009000
vn 0.081900 -0.111100 -0.990400
vn -1.000000 0.000000 -0.008200
vn 0.000000 -0.975700 0.219200
vn -0.006700 0.000000 -1.000000
vn 0.998800 0.048600 0.004200
vn 0.010200 -0.999900 0.000000
vn 1.000000 0.000000 -0.009000
vn -0.876000 -0.482200 0.001800
vn 0.987300 0.159100 -0.000000
vn -0.010800 -0.999900 0.000000
vn -0.010600 -0.999900 0.008300
vn -0.006600 -0.999900 0.012100
vn 0.004400 -0.999900 0.016400
vn 0.011500 -0.999900 0.011500
vn 0.018000 -0.999800 0.004800
vn 0.001300 -1.000000 -0.003900
vn -0.007400 -0.999800 -0.016000
vn 0.000000 -1.000000 -0.004600
vn 0.001900 -1.000000 -0.001900
vn -0.001900 -1.000000 -0.001900
vn 0.001200 -1.000000 -0.004400
vn -0.001200 -1.000000 -0.004400
vn 0.007400 -0.999800 -0.016000
vn -1.000000 0.000000 0.008400
vn -1.000000 0.000000 -0.003900
vn -0.999900 -0.014900 -0.000000
vn -0.999800 -0.020400 -0.001500
vn 0.999900 0.015300 0.005900
vn 0.003400 1.000000 0.000000
vn -0.996100 0.088000 0.000000
vn -0.975700 0.000000 0.219200
vn 0.006400 0.044000 -0.999000
vn -0.012200 0.018400 -0.999800
vn 0.004900 1.000000 0.004000
vn 0.000000 -1.000000 -0.008200
vn -0.806900 -0.590700 0.000000
vn 0.998500 0.053900 -0.003700
vn 1.000000 0.004400 0.008400
vn 0.998000 0.063700 0.000000
vn 0.999500 -0.000000 -0.032400
vn 0.999000 0.045100 -0.000000
vn 0.928300 0.371700 0.000000
vn 0.803900 0.371700 0.464200
vn 0.849400 0.195100 0.490400
vn 0.722600 0.691300 0.000000
vn 0.625800 0.691300 0.361300
vn 0.409700 0.912200 0.000000
vn 0.354800 0.912200 0.204800
vn 0.464200 0.371700 0.803900
vn 0.490400 0.195100 0.849400
vn 0.361300 0.691300 0.625800
vn 0.204800 0.912200 0.354800
vn 0.000000 0.371700 0.928300
vn 0.000000 0.195100 0.980800
vn 0.000000 0.691300 0.722600
vn 0.000000 0.912200 0.409700
vn -0.464200 0.371700 0.803900
vn -0.490400 0.195100 0.849400
vn -0.361300 0.691300 0.625800
vn -0.204800 0.912200 0.354800
vn -0.803900 0.371700 0.464200
vn -0.849400 0.195100 0.490400
vn -0.625800 0.691300 0.361300
vn -0.354800 0.912200 0.204800
vn -0.928300 0.371700 0.000000
vn -0.722600 0.691300 0.000000
vn -0.409700 0.912200 0.000000
vn 0.849400 0.195100 -0.490400
vn 0.803900 0.371700 -0.464200
vn 0.625800 0.691300 -0.361300
vn 0.354800 0.912200 -0.204800
vn 0.490400 0.195100 -0.849400
vn 0.464200 0.371700 -0.803900
vn 0.361300 0.691300 -0.625800
vn 0.204800 0.912200 -0.354800
vn -0.000000 0.195100 -0.980800
vn 0.000000 0.371700 -0.928300
vn 0.000000 0.691300 -0.722600
vn 0.000000 0.912200 -0.409700
vn -0.490400 0.195100 -0.849400
vn -0.464200 0.371700 -0.803900
vn -0.361300 0.691300 -0.625800
vn -0.204800 0.912200 -0.354800
vn -0.849400 0.195100 -0.490400
vn -0.803900 0.371700 -0.464200
vn -0.625800 0.691300 -0.361300
vn -0.354800 0.912200 -0.204800
vn -0.980800 0.195100 -0.000000
vn -0.793100 -0.401600 -0.457900
vn -0.915800 -0.401600 0.000000
vn -0.968100 -0.250400 0.002600
vn -0.624400 -0.692900 -0.360500
vn -0.721000 -0.692900 0.000000
vn -0.352900 -0.913100 -0.203800
vn -0.407500 -0.913100 0.000000
vn -0.457900 -0.401600 -0.793100
vn -0.837500 -0.254500 -0.483500
vn -0.360500 -0.692900 -0.624400
vn -0.203800 -0.913100 -0.352900
vn 0.000000 -0.401600 -0.915800
vn -0.483500 -0.254500 -0.837500
vn 0.000000 -0.692900 -0.721000
vn 0.000000 -0.913100 -0.407500
vn 0.457900 -0.401600 -0.793100
vn 0.000000 -0.254500 -0.967100
vn 0.360500 -0.692900 -0.624400
vn 0.203800 -0.913100 -0.352900
vn 0.837500 -0.254500 -0.483500
vn 0.793100 -0.401600 -0.457900
vn 0.624400 -0.692900 -0.360500
vn 0.352900 -0.913100 -0.203800
vn 0.968100 -0.250400 0.002600
vn 0.915800 -0.401600 0.000000
vn 0.721000 -0.692900 0.000000
vn 0.407500 -0.913100 0.000000
vn -0.794500 -0.394500 0.461700
vn -0.838200 -0.235900 0.491600
vn -0.624400 -0.692900 0.360500
vn -0.352900 -0.913100 0.203800
vn -0.459900 -0.392500 0.796500
vn -0.485900 -0.236000 0.841600
vn -0.360500 -0.692900 0.624400
vn -0.203800 -0.913100 0.352900
vn 0.000000 -0.392400 0.919700
vn 0.000000 -0.235900 0.971800
vn 0.000000 -0.692900 0.721000
vn 0.000000 -0.913100 0.407500
vn 0.459900 -0.392500 0.796500
vn 0.485900 -0.236000 0.841600
vn 0.360500 -0.692900 0.624400
vn 0.203800 -0.913100 0.352900
vn 0.794500 -0.394500 0.461700
vn 0.838200 -0.236000 0.491600
vn 0.624400 -0.692900 0.360500
vn 0.352900 -0.913100 0.203800
vn 0.980800 0.195100 0.000000
vn 0.483500 -0.254500 -0.837500
s off
f 20/1/1 29/2/1 55/3/1
f 16/4/1 20/1/1 25/5/1
f 12/6/1 16/4/1 24/7/1
f 12/8/1 23/9/1 22/7/1
f 8/10/1 22/7/1 21/5/1
f 4/11/1 21/5/1 56/3/1
f 46/12/1 61/13/1 59/14/1
f 60/15/1 78/16/1 57/17/1
f 78/14/2 59/18/2 61/19/2
f 64/20/2 65/15/2 60/14/2
f 22/21/3 62/22/3 21/23/3
f 63/24/4 65/25/4 64/26/4
f 24/21/5 74/27/5 76/28/5
f 22/19/6 66/29/6 68/30/6
f 66/31/3 70/32/3 72/33/3
f 63/7/6 69/7/6 67/7/6
f 62/34/6 68/35/6 69/7/6
f 23/21/6 24/18/6 67/36/6
f 71/36/6 73/15/6 72/30/6
f 69/22/5 73/33/5 71/32/5
f 68/35/4 72/37/4 73/38/4
f 67/24/1 71/39/1 70/40/1
f 60/13/5 65/20/5 77/41/5
f 63/42/6 76/43/6 77/44/6
f 74/27/5 55/45/5 59/46/5
f 133/3/7 107/2/7 98/1/7
f 103/5/8 98/1/8 94/4/8
f 102/7/9 94/4/9 90/6/9
f 100/7/10 101/9/10 90/8/10
f 99/5/11 100/7/11 86/10/11
f 134/3/12 99/5/12 82/11/12
f 133/47/13 137/14/13 124/12/13
f 156/16/4 138/15/4 136/20/4
f 137/18/6 156/14/6 135/13/6
f 143/15/6 142/20/6 136/13/6
f 135/48/5 136/49/5 142/50/5
f 142/26/14 143/25/14 141/24/14
f 154/28/15 152/27/15 102/21/15
f 146/30/16 144/29/16 100/19/16
f 150/33/17 148/32/17 144/31/17
f 147/7/6 141/7/6 102/7/6
f 146/35/18 140/34/18 141/7/18
f 145/36/19 102/18/19 101/21/19
f 151/15/2 149/36/2 148/29/2
f 151/33/20 147/22/20 145/31/20
f 151/38/1 150/37/1 146/35/1
f 149/39/21 145/24/21 144/51/21
f 155/41/22 143/20/22 138/13/22
f 154/43/23 141/42/23 143/20/23
f 153/52/24 138/49/24 156/48/24
f 75/52/4 153/52/4 152/27/4
f 76/43/1 154/43/1 155/44/1
f 77/41/6 155/41/6 153/53/6
f 74/27/2 152/27/2 154/28/2
f 25/5/1 20/1/1 55/3/1
f 24/7/1 16/4/1 25/5/1
f 23/54/1 12/6/1 24/7/1
f 8/10/1 12/8/1 22/7/1
f 4/11/1 8/10/1 21/5/1
f 34/55/1 4/11/1 56/3/1
f 59/14/1 55/47/1 50/56/1
f 55/47/1 29/57/1 54/58/1
f 58/20/1 60/15/1 57/17/1
f 55/47/1 54/58/1 50/56/1
f 38/59/1 56/60/1 42/61/1
f 46/12/1 59/14/1 50/56/1
f 46/12/1 42/61/1 61/13/1
f 57/13/2 78/14/2 61/19/2
f 56/60/1 61/13/1 42/61/1
f 38/59/1 34/62/1 56/60/1
f 58/13/2 64/20/2 60/14/2
f 57/48/3 61/46/3 56/45/3
f 64/50/3 58/49/3 57/48/3
f 63/22/5 24/21/5 76/28/5
f 62/7/4 63/24/4 64/26/4
f 56/45/3 62/22/3 57/48/3
f 62/22/3 56/45/3 21/23/3
f 62/22/3 64/50/3 57/48/3
f 62/20/6 22/19/6 68/30/6
f 68/22/3 66/31/3 72/33/3
f 24/7/3 63/7/3 67/7/3
f 63/7/6 62/34/6 69/7/6
f 22/19/6 23/21/6 66/29/6
f 70/29/6 71/36/6 72/30/6
f 67/31/5 69/22/5 71/32/5
f 23/21/6 67/36/6 66/29/6
f 69/7/4 68/35/4 73/38/4
f 66/51/1 67/24/1 70/40/1
f 75/53/5 60/13/5 77/41/5
f 65/20/6 63/42/6 77/44/6
f 74/27/5 24/21/5 25/23/5
f 78/48/5 75/52/5 59/46/5
f 75/52/5 74/27/5 59/46/5
f 74/27/5 25/23/5 55/45/5
f 78/48/5 60/49/5 75/52/5
f 103/5/25 133/3/25 98/1/25
f 102/7/26 103/5/26 94/4/26
f 101/54/27 102/7/27 90/6/27
f 86/10/28 100/7/28 90/8/28
f 82/11/29 99/5/29 86/10/29
f 112/55/30 134/3/30 82/11/30
f 134/60/31 124/12/31 139/13/31
f 135/17/4 156/16/4 136/20/4
f 134/60/32 112/62/32 116/59/32
f 124/12/33 137/14/33 139/13/33
f 134/60/34 116/59/34 120/61/34
f 132/58/35 133/47/35 128/56/35
f 134/60/36 120/61/36 124/12/36
f 128/56/37 133/47/37 124/12/37
f 139/19/6 137/18/6 135/13/6
f 132/58/38 107/57/38 133/47/38
f 138/14/6 143/15/6 136/13/6
f 140/22/39 100/21/39 99/23/39
f 134/45/40 139/46/40 135/48/40
f 140/22/41 99/23/41 134/45/41
f 140/22/5 135/48/5 142/50/5
f 140/22/42 134/45/42 135/48/42
f 141/22/43 154/28/43 102/21/43
f 140/7/44 142/26/44 141/24/44
f 140/20/2 146/30/2 100/19/2
f 146/22/45 150/33/45 144/31/45
f 145/7/46 147/7/46 102/7/46
f 147/7/6 146/35/6 141/7/6
f 101/21/47 100/19/47 144/29/47
f 150/30/2 151/15/2 148/29/2
f 144/29/48 145/36/48 101/21/48
f 149/32/3 151/33/3 145/31/3
f 147/7/49 151/38/49 146/35/49
f 148/40/50 149/39/50 144/51/50
f 153/53/22 155/41/22 138/13/22
f 155/44/51 154/43/51 143/20/51
f 133/45/52 152/27/52 137/46/52
f 103/23/53 102/21/53 152/27/53
f 152/27/54 153/52/54 137/46/54
f 74/27/4 75/52/4 152/27/4
f 77/44/1 76/43/1 155/44/1
f 153/52/55 156/48/55 137/46/55
f 133/45/56 103/23/56 152/27/56
f 75/53/6 77/41/6 153/53/6
f 76/28/2 74/27/2 154/28/2
f 33/63/57 3/64/58 4/65/59
f 33/63/57 32/66/60 2/67/61
f 31/68/62 1/69/63 2/70/61
f 3/71/58 7/72/64 8/73/65
f 3/71/58 2/74/61 6/75/66
f 1/69/63 5/76/67 6/77/66
f 7/72/64 11/78/68 12/21/69
f 7/72/64 6/75/66 10/79/70
f 5/76/67 9/80/71 10/81/70
f 11/82/68 15/83/72 16/84/73
f 10/85/70 14/86/74 15/83/72
f 9/87/71 13/88/75 14/89/74
f 15/83/72 19/90/76 20/91/77
f 15/83/72 14/86/74 18/92/78
f 14/89/74 13/88/75 17/93/79
f 31/68/62 30/22/1 1/69/63
f 1/69/63 30/22/1 5/76/67
f 5/76/67 30/22/1 9/80/71
f 9/87/71 30/94/1 13/88/75
f 13/88/75 30/94/1 17/93/79
f 20/65/77 19/64/76 28/63/80
f 18/67/78 27/66/81 28/63/80
f 18/95/78 17/93/79 26/96/82
f 17/93/79 30/94/1 26/96/82
f 38/97/83 37/98/84 33/63/57
f 37/98/84 36/99/85 32/66/60
f 32/100/60 36/101/85 35/102/86
f 42/73/87 41/72/88 37/71/84
f 37/71/84 41/72/88 40/75/89
f 36/101/85 40/103/89 39/104/90
f 46/21/91 45/78/92 41/72/88
f 41/72/88 45/78/92 44/79/93
f 44/105/93 43/106/94 39/104/90
f 50/84/95 49/83/96 45/82/92
f 49/83/96 48/86/97 44/85/93
f 44/107/93 48/108/97 47/109/98
f 54/91/99 53/90/100 49/83/96
f 53/98/100 52/99/101 48/110/97
f 52/111/101 51/112/102 47/109/98
f 31/68/62 35/102/86 30/22/1
f 35/102/86 39/104/90 30/22/1
f 39/104/90 43/106/94 30/22/1
f 43/113/94 47/109/98 30/94/1
f 47/109/98 51/112/102 30/94/1
f 29/19/103 28/63/80 53/98/100
f 53/98/100 28/63/80 27/66/81
f 27/114/81 26/96/82 51/112/102
f 51/112/102 26/96/82 30/94/1
f 81/64/104 111/63/105 112/19/106
f 81/64/104 80/67/107 110/66/108
f 79/69/109 109/68/110 110/100/108
f 85/72/111 81/71/104 82/115/112
f 85/72/111 84/75/113 80/74/107
f 84/77/113 83/76/114 79/69/109
f 89/78/115 85/72/111 86/73/116
f 89/78/115 88/79/117 84/75/113
f 88/81/117 87/80/118 83/76/114
f 93/83/119 89/82/115 90/116/120
f 92/86/121 88/85/117 89/82/115
f 91/88/122 87/87/118 88/117/117
f 98/91/123 97/90/124 93/83/119
f 96/92/125 92/86/121 93/83/119
f 95/93/126 91/88/122 92/89/121
f 79/69/109 108/22/4 109/68/110
f 83/76/114 108/22/4 79/69/109
f 87/80/118 108/22/4 83/76/114
f 91/88/122 108/94/4 87/87/118
f 95/93/126 108/94/4 91/88/122
f 107/19/127 106/63/128 97/64/124
f 105/66/129 96/67/125 97/64/124
f 105/114/129 104/96/130 95/93/126
f 104/96/130 108/94/4 95/93/126
f 115/98/131 116/97/132 112/19/106
f 110/66/108 114/99/133 115/98/131
f 113/102/134 114/101/133 110/100/108
f 119/72/135 120/73/136 116/115/132
f 114/74/133 118/75/137 119/72/135
f 113/102/134 117/104/138 118/103/137
f 123/78/139 124/21/140 120/73/136
f 122/79/141 123/78/139 119/72/135
f 117/104/138 121/106/142 122/105/141
f 123/82/139 127/83/143 128/84/144
f 122/85/141 126/86/145 127/83/143
f 125/109/146 126/108/145 122/107/141
f 127/83/143 131/90/147 132/91/148
f 130/99/149 131/98/147 127/118/143
f 129/112/150 130/111/149 126/108/145
f 108/22/4 113/102/134 109/68/110
f 108/22/4 117/104/138 113/102/134
f 108/22/4 121/106/142 117/104/138
f 108/94/4 125/109/146 121/113/142
f 108/94/4 129/112/150 125/109/146
f 131/98/147 106/63/128 107/19/127
f 105/66/129 106/63/128 131/98/147
f 129/112/150 104/96/130 105/114/129
f 108/94/4 104/96/130 129/112/150
f 34/19/151 33/63/57 4/65/59
f 3/64/58 33/63/57 2/67/61
f 32/100/60 31/68/62 2/70/61
f 4/115/59 3/71/58 8/73/65
f 7/72/64 3/71/58 6/75/66
f 2/70/61 1/69/63 6/77/66
f 8/73/65 7/72/64 12/21/69
f 11/78/68 7/72/64 10/79/70
f 6/77/66 5/76/67 10/81/70
f 12/116/69 11/82/68 16/84/73
f 11/82/68 10/85/70 15/83/72
f 10/117/70 9/87/71 14/89/74
f 16/84/73 15/83/72 20/91/77
f 19/90/76 15/83/72 18/92/78
f 18/95/78 14/89/74 17/93/79
f 29/19/103 20/65/77 28/63/80
f 19/64/76 18/67/78 28/63/80
f 27/114/81 18/95/78 26/96/82
f 34/19/151 38/97/83 33/63/57
f 33/63/57 37/98/84 32/66/60
f 31/68/62 32/100/60 35/102/86
f 38/115/83 42/73/87 37/71/84
f 36/74/85 37/71/84 40/75/89
f 35/102/86 36/101/85 39/104/90
f 42/73/87 46/21/91 41/72/88
f 40/75/89 41/72/88 44/79/93
f 40/103/89 44/105/93 39/104/90
f 46/116/91 50/84/95 45/82/92
f 45/82/92 49/83/96 44/85/93
f 43/113/94 44/107/93 47/109/98
f 50/84/95 54/91/99 49/83/96
f 49/118/96 53/98/100 48/110/97
f 48/108/97 52/111/101 47/109/98
f 54/97/99 29/19/103 53/98/100
f 52/99/101 53/98/100 27/66/81
f 52/111/101 27/114/81 51/112/102
f 111/63/105 81/64/104 110/66/108
f 82/65/112 81/64/104 112/19/106
f 80/70/107 79/69/109 110/100/108
f 86/73/116 85/72/111 82/115/112
f 81/71/104 85/72/111 80/74/107
f 80/70/107 84/77/113 79/69/109
f 90/21/120 89/78/115 86/73/116
f 85/72/111 89/78/115 84/75/113
f 84/77/113 88/81/117 83/76/114
f 94/84/152 93/83/119 90/116/120
f 93/83/119 92/86/121 89/82/115
f 92/89/121 91/88/122 88/117/117
f 94/84/152 98/91/123 93/83/119
f 97/90/124 96/92/125 93/83/119
f 96/95/125 95/93/126 92/89/121
f 98/65/123 107/19/127 97/64/124
f 106/63/128 105/66/129 97/64/124
f 96/95/125 105/114/129 95/93/126
f 111/63/105 115/98/131 112/19/106
f 111/63/105 110/66/108 115/98/131
f 109/68/110 113/102/134 110/100/108
f 115/71/131 119/72/135 116/115/132
f 115/71/131 114/74/133 119/72/135
f 114/101/133 113/102/134 118/103/137
f 119/72/135 123/78/139 120/73/136
f 118/75/137 122/79/141 119/72/135
f 118/103/137 117/104/138 122/105/141
f 124/116/140 123/82/139 128/84/144
f 123/82/139 122/85/141 127/83/143
f 121/113/142 125/109/146 122/107/141
f 128/84/144 127/83/143 132/91/148
f 126/110/145 130/99/149 127/118/143
f 125/109/146 129/112/150 126/108/145
f 132/97/148 131/98/147 107/19/127
f 130/99/149 105/66/129 131/98/147
f 130/111/149 129/112/150 105/114/129
