# Blender v2.78 (sub 0) OBJ File: 'ReactorBuilding.blend'
# www.blender.org
o Cube
v -0.003358 0.000000 6.668687
v -0.003358 0.524068 6.668687
v -0.003358 0.000000 -0.002734
v -0.003358 0.524068 -0.002734
v 2.003358 0.000000 6.668687
v 2.003358 0.524068 6.668687
v 2.003358 0.000000 -0.002734
v 2.003358 0.524068 -0.002734
vt 0.0689 0.6590
vt 0.9334 0.7948
vt 0.0689 0.7948
vt 0.9334 0.6590
vt 1.0013 0.1390
vt 1.0013 0.6590
vt 0.9334 0.1390
vt 0.0689 0.0031
vt 0.9334 0.0031
vt 0.0689 0.1390
vt 0.0010 0.6590
vt 0.0010 0.1390
vn -1.0000 0.0000 0.0000
vn 0.0000 0.0000 -1.0000
vn 1.0000 0.0000 0.0000
vn 0.0000 0.0000 1.0000
vn 0.0000 1.0000 0.0000
s off
f 2/1/1 3/2/1 1/3/1
f 4/4/2 7/5/2 3/6/2
f 8/7/3 5/8/3 7/9/3
f 6/10/4 1/11/4 5/12/4
f 4/4/5 6/10/5 8/7/5
f 2/1/1 4/4/1 3/2/1
f 4/4/2 8/7/2 7/5/2
f 8/7/3 6/10/3 5/8/3
f 6/10/4 2/1/4 1/11/4
f 4/4/5 2/1/5 6/10/5
