# Blender v2.72 (sub 0) OBJ File: ''
# www.blender.org
o Cube
v -1.458116 -1.252262 -0.020106
v -1.349543 -0.979915 -0.090325
v -1.210344 -1.174549 -0.549490
v -1.182835 -1.301856 0.000062
v -1.372849 -1.249508 0.565316
v -1.393872 -0.964273 0.527510
v -1.055609 -0.952363 -0.593134
v -1.036873 -1.169756 -0.447302
v -1.185720 -1.447255 0.502897
v 0.000000 -1.268221 -1.431822
v 0.000000 -0.930315 -1.425143
v 0.477123 -1.066269 -1.149568
v 0.000000 -1.417130 -1.237158
v -0.565585 -1.298020 -1.370780
v -0.582420 -1.076092 -1.533995
v 0.467144 -0.876850 -1.253610
v 0.439680 -1.121570 -1.023267
v -0.462861 -1.252393 -1.082058
v 1.370391 -1.210677 -0.021472
v 1.207774 -0.982018 -0.090740
v 1.366314 -1.246497 0.562861
v 1.249666 -1.416961 0.000907
v 1.060694 -1.079821 -0.499371
v 1.059036 -0.952914 -0.594280
v 1.407046 -0.962979 0.532084
v 1.127571 -1.341609 0.480524
v 1.064454 -1.223054 -0.457159
v 0.000000 -1.251429 1.464449
v 0.000000 -0.972864 1.437409
v -0.572339 -1.241848 1.348797
v 0.000000 -1.447883 1.268739
v 0.457596 -1.098888 1.048341
v 0.468056 -0.992845 1.068918
v -0.595821 -0.965868 1.392833
v -0.499397 -1.432830 1.177421
v 0.470884 -1.296204 1.102558
v 0.000000 -1.225938 0.000000
v -0.492342 -1.208844 0.000000
v 0.000000 -1.585669 -0.515848
v 0.507925 -1.458649 0.000000
v 0.000000 -1.444004 0.507011
v -0.474951 -1.472526 0.474951
v -0.458300 -1.220790 -0.458300
v 0.481613 -1.573232 -0.481613
v 0.456865 -1.199100 0.456865
v 0.000000 1.270346 -1.358547
v 0.337107 1.166329 -1.315420
v 0.000000 1.116207 -2.054801
v -0.401639 1.316360 -1.317374
v 0.000000 1.393694 -0.513461
v 0.409184 1.322087 -0.536534
v 0.300992 1.078420 -1.961553
v -0.284914 1.048336 -1.952976
v -0.379750 1.249604 -0.550551
v -1.262119 0.262267 -0.719679
v -0.756951 0.568503 -0.976311
v -0.828581 0.175424 -1.349669
v -1.230113 -0.255280 -0.452217
v -0.998646 0.195106 -0.036179
v -0.881923 0.634985 -0.305989
v -0.711569 0.564773 -1.572501
v -1.292593 -0.261347 -1.149841
v -0.944305 -0.315536 0.148555
v 0.000000 0.239673 -2.376063
v 0.000000 0.659884 -2.467078
v 0.418061 0.213609 -2.284027
v 0.000000 -0.335473 -2.167216
v -0.503616 0.142436 -2.428409
v -0.289523 0.622384 -2.374485
v 0.272132 0.623179 -2.348047
v 0.504697 -0.298002 -2.015421
v -0.408276 -0.161224 -1.827631
v 1.262591 0.262411 -0.719681
v 0.895351 0.639078 -0.976942
v 0.840855 0.127623 -0.074557
v 1.059192 -0.288978 -0.451563
v 0.971979 0.194943 -1.386047
v 0.880058 0.627419 -1.612831
v 0.822976 0.597169 -0.319212
v 1.050316 -0.282633 0.177856
v 1.295159 -0.261342 -1.150562
v 0.000000 0.254243 1.081325
v 0.000000 0.778657 0.815714
v -0.398208 0.160642 0.817302
v 0.000000 -0.316998 0.988331
v 0.509476 0.282941 1.017773
v 0.376753 0.627170 0.588000
v -0.441483 0.731473 0.683800
v -0.431661 -0.297094 0.962626
v 0.555744 -0.204402 1.220940
v -0.781299 -0.303184 0.662149
v -0.682234 0.125101 0.464532
v -0.778878 0.675799 0.310352
v -0.514396 0.813966 -0.558927
v -0.651796 0.978685 -1.188326
v -0.757400 1.046389 -1.818871
v -1.008405 -1.003739 -1.156403
v -1.015225 -1.243064 -1.047432
v -0.810633 -1.145975 -0.812953
v -0.877727 -1.445820 -0.442698
v -0.957891 -1.544145 0.000000
v -0.887257 -1.501182 0.447514
v -0.250113 0.870102 -2.334329
v 0.000000 0.991380 -2.548934
v 0.308203 0.929939 -2.401692
v 0.860574 -0.921839 -1.024647
v 0.841490 -1.055136 -0.889742
v 0.895276 -1.375681 -0.893694
v 0.444141 -1.462406 -0.880582
v 0.000000 -1.506970 -0.951233
v -0.427277 -1.268557 -0.847216
v 0.516155 0.850798 -1.751462
v 0.541937 0.871256 -1.187037
v 0.760871 1.084137 -0.496635
v 0.999425 -0.975658 0.969234
v 0.874203 -1.126860 0.868197
v 0.797453 -1.130309 0.797496
v 0.856898 -1.324810 0.432170
v 0.943592 -1.464300 0.000000
v 0.878324 -1.449288 -0.442999
v 0.273627 0.832355 0.055746
v 0.000000 0.925990 0.149017
v -0.254881 0.791540 0.036563
v -0.450144 -1.531410 0.892460
v 0.000000 -1.529341 0.955239
v 0.423837 -1.229014 0.840409
v -0.907540 -1.394226 0.907509
v -0.976623 -1.189138 0.969205
v -1.073569 -0.965084 1.039054
v -0.823219 0.614805 -2.225585
v -0.674016 0.212572 -1.879631
v -0.732923 -0.205026 -1.533669
v 0.519127 0.560803 -2.038337
v 0.702822 0.207880 -1.898928
v 1.022561 -0.317860 -1.747930
v 0.570853 0.496230 0.190978
v 0.838004 0.218318 0.569262
v 0.897740 -0.253358 0.752032
v -1.200837 -0.683733 -0.823944
v -1.091852 -0.710511 -0.225846
v -1.305138 -0.652775 0.404712
v 0.479325 -0.634445 -1.545256
v 0.000000 -0.595034 -1.598140
v -0.463989 -0.609337 -1.511015
v 1.036672 -0.722236 0.320211
v 1.089845 -0.710815 -0.225843
v 1.103507 -0.679238 -0.793545
v -0.580329 -0.640461 1.326086
v 0.000000 -0.722144 1.074147
v 0.440153 -0.724390 0.998534
v -0.760732 -1.511283 0.760732
v -0.704538 -1.153506 -0.704538
v 0.723342 -1.273232 -0.723342
v 0.704965 -1.156228 0.704965
v -0.472623 0.741883 -0.081063
v -0.612280 0.874367 -2.174173
v 0.573411 0.850959 -2.153121
v 0.575283 0.862744 -0.030153
v -1.070976 -0.634185 0.981957
v -1.070154 -0.746796 -1.428009
v 1.021499 -0.724165 -1.387743
v 1.057910 -0.638829 0.970636
vt 0.017965 0.500000
vt 0.017965 0.017965
vt 0.500000 0.017965
vt 0.017965 -0.464071
vt 0.500000 -0.464071
vt -0.464071 0.500000
vt -0.464071 0.017965
vt -0.464071 -0.464071
vt 0.500000 0.500000
vt 0.982036 0.017965
vt 0.982036 0.500000
vt 1.464071 0.017965
vt 0.982036 -0.464071
vt 1.464071 -0.464071
vt 0.982036 0.982036
vt 0.982036 1.464071
vt 0.500000 1.464071
vt 1.464071 0.500000
vt 1.464071 0.982036
vt 1.464071 1.464071
vt 0.500000 0.982036
vt 0.017965 0.982036
vt -0.464071 0.982036
vt 0.017965 1.464071
vt -0.464071 1.464071
vn -0.861100 -0.329300 0.387300
vn -0.955600 0.155600 0.250000
vn -0.897100 0.402700 -0.181800
vn -0.891300 0.445400 0.084300
vn -0.979200 0.196500 -0.050800
vn -0.648400 -0.429500 0.628500
vn -0.759500 -0.135200 0.636300
vn -0.702700 0.470600 0.533600
vn -0.881300 -0.413600 -0.228300
vn -0.944500 -0.087900 -0.316400
vn -0.839400 -0.483400 -0.248500
vn -0.828500 -0.273100 -0.488800
vn -0.956600 -0.263500 -0.124500
vn -0.696400 -0.266500 -0.666300
vn -0.377900 -0.895800 -0.233700
vn -0.262200 -0.891800 -0.368600
vn -0.242500 -0.960800 -0.134200
vn -0.550400 -0.797100 -0.248200
vn 0.048700 -0.998800 -0.007500
vn -0.159100 -0.854000 -0.495300
vn -0.386000 -0.881600 -0.271700
vn -0.448200 -0.887200 0.109200
vn -0.475200 -0.671100 0.569000
vn -0.137200 -0.990400 -0.014300
vn -0.194100 -0.956400 0.218200
vn -0.213100 -0.855800 -0.471400
vn -0.271600 -0.280900 -0.920500
vn 0.264000 -0.264900 -0.927400
vn -0.232100 -0.372700 -0.898400
vn 0.052000 -0.734500 -0.676600
vn 0.240500 -0.442800 -0.863700
vn 0.366200 -0.558500 -0.744200
vn 0.381200 -0.788900 -0.481900
vn 0.721800 -0.275700 -0.634700
vn 0.058700 -0.820200 -0.569000
vn 0.634800 -0.642600 -0.429100
vn 0.455500 -0.598900 -0.658600
vn 0.165200 -0.767500 -0.619300
vn 0.234100 -0.755700 -0.611600
vn -0.121900 -0.939400 -0.320400
vn 0.547900 -0.651500 -0.524600
vn 0.165500 -0.975500 -0.144600
vn 0.196700 -0.905500 -0.376100
vn -0.258200 -0.958000 0.124300
vn -0.356100 -0.931900 -0.068200
vn 0.971400 -0.007600 -0.237200
vn 0.806300 -0.291800 -0.514400
vn 0.876800 -0.327600 -0.351800
vn 0.914300 0.354300 -0.196200
vn 0.944900 -0.311000 -0.102000
vn 0.894600 0.345100 0.283900
vn 0.744000 -0.487900 0.456400
vn 0.601300 -0.300900 0.740100
vn 0.271400 -0.851100 0.449400
vn 0.956900 0.285200 0.053700
vn 0.891700 0.443400 0.091300
vn 0.799600 0.068800 0.596500
vn 0.066400 -0.928300 0.365900
vn 0.558200 -0.820000 -0.126200
vn -0.128600 -0.944500 0.302000
vn 0.105900 -0.989600 0.097300
vn 0.241100 -0.902600 0.356600
vn 0.865500 -0.293700 -0.405700
vn 0.085600 -0.978100 0.189900
vn 0.443200 -0.860200 -0.252200
vn 0.268700 -0.342500 0.900200
vn 0.459500 -0.075200 0.884900
vn 0.410900 0.021100 0.911400
vn 0.227900 0.436700 0.870300
vn 0.202600 0.009600 0.979200
vn -0.285700 0.103800 0.952600
vn -0.400700 -0.460300 0.792100
vn 0.132100 0.437500 0.889500
vn -0.120400 0.444500 0.887600
vn -0.277800 -0.816200 0.506600
vn 0.257900 -0.820600 0.509900
vn -0.081900 -0.990300 0.112100
vn 0.475000 -0.616100 0.628300
vn 0.289000 -0.954800 0.068500
vn 0.306100 -0.949100 -0.073600
vn 0.163200 -0.966500 -0.198200
vn 0.143200 -0.954600 -0.261300
vn 0.220800 -0.967600 -0.122200
vn -0.051800 -0.998300 0.026000
vn -0.253900 -0.957700 0.135100
vn -0.179800 -0.981700 0.062300
vn 0.086500 -0.996200 0.009700
vn -0.108800 -0.956100 0.272100
vn 0.133800 -0.975200 0.176000
vn 0.192600 0.962300 -0.191700
vn -0.057900 0.961100 0.269900
vn 0.386400 0.899600 0.203600
vn 0.584600 0.781000 -0.219600
vn 0.834900 0.538500 0.113700
vn -0.086900 0.898200 0.430900
vn 0.282000 0.846200 0.452200
vn 0.521000 0.687600 0.505800
vn 0.514900 0.837400 -0.183200
vn -0.028500 0.966800 -0.253800
vn 0.607800 0.399200 -0.686400
vn -0.072400 0.503800 -0.860700
vn 0.763800 0.621500 -0.174100
vn 0.623900 0.781100 -0.025500
vn 0.746900 0.440900 -0.497600
vn -0.306300 0.889500 -0.338900
vn -0.489400 0.857600 -0.158000
vn -0.739200 0.646100 -0.189900
vn -0.802100 0.584300 0.123200
vn -0.542200 0.527100 -0.654300
vn -0.565700 0.632400 -0.529100
vn -0.700500 0.653300 0.287100
vn -0.465700 0.840800 0.275900
vn -0.618000 0.739500 0.266700
vn -0.172000 0.977500 0.121600
vn -0.864400 0.329000 0.380200
vn -0.835800 0.548200 0.028700
vn -0.858100 0.510700 -0.053500
vn -0.790200 0.250100 0.559400
vn -0.776200 0.555100 0.298900
vn -0.926800 0.365200 -0.087300
vn -0.981200 0.186900 -0.047200
vn -0.905000 0.291200 -0.310200
vn -0.817900 0.017500 -0.575100
vn -0.920100 0.033600 -0.390100
vn -0.990700 0.048400 0.126800
vn -0.870900 -0.254600 -0.420200
vn -0.679600 -0.202000 -0.705200
vn -0.823000 0.458600 0.335200
vn -0.646400 0.605400 0.464300
vn -0.511800 -0.340900 -0.788500
vn -0.439600 0.102500 -0.892300
vn 0.076900 -0.156500 -0.984600
vn 0.580200 -0.076300 -0.810800
vn 0.515000 -0.115800 -0.849300
vn 0.782200 -0.082400 -0.617500
vn 0.814500 0.288000 -0.503600
vn 0.097800 -0.383200 -0.918400
vn 0.292100 -0.577900 -0.762000
vn -0.184100 -0.584700 -0.790000
vn 0.755300 -0.185900 -0.628400
vn -0.437100 -0.610800 -0.660200
vn 0.966000 0.247800 0.072900
vn 0.911200 0.160100 -0.379600
vn 0.841500 0.403800 -0.358800
vn 0.637000 0.765700 0.089200
vn 0.944800 0.269200 0.186500
vn 0.886300 0.386700 0.254500
vn 0.713200 0.590700 0.377300
vn 0.839000 0.479700 0.256900
vn 0.958100 0.245500 0.147300
vn 0.993400 -0.015700 0.113500
vn 0.842100 0.423300 0.334200
vn 0.993500 0.074800 -0.086000
vn 0.450500 0.473700 0.756700
vn 0.634100 0.709200 0.308200
vn 0.053700 0.815000 0.576900
vn -0.151500 0.167400 0.974200
vn -0.492400 0.684000 0.538200
vn -0.676100 0.192800 0.711100
vn -0.381100 0.528800 0.758300
vn -0.100200 0.158800 0.982200
vn 0.206200 0.165300 0.964400
s 1
f 5/1/1 6/2/2 2/3/3
f 6/2/2 141/4/4 140/5/5
f 128/6/6 129/7/7 6/2/2
f 129/7/7 159/8/8 141/4/4
f 1/9/9 2/3/3 7/10/10
f 3/11/11 7/10/10 97/12/12
f 2/3/3 140/5/5 139/13/13
f 7/10/10 139/13/13 160/14/14
f 1/9/9 3/11/11 8/15/15
f 8/15/15 100/16/16 101/17/17
f 98/18/18 99/19/19 8/15/15
f 99/19/19 152/20/20 100/16/16
f 1/9/9 4/21/21 9/22/22
f 5/1/1 9/22/22 127/23/23
f 4/21/21 101/17/17 102/24/24
f 9/22/22 102/24/24 151/25/25
f 14/1/26 15/2/27 11/3/28
f 15/2/27 144/4/29 143/5/30
f 98/6/18 97/7/12 15/2/27
f 97/7/12 160/8/14 144/4/29
f 10/9/31 11/3/28 16/10/32
f 16/10/32 106/12/33 107/18/34
f 143/5/30 142/13/35 16/10/32
f 142/13/35 161/14/36 106/12/33
f 10/9/31 12/11/37 17/15/38
f 17/15/38 109/16/39 110/17/40
f 12/11/37 107/18/34 108/19/41
f 108/19/41 153/20/42 109/16/39
f 13/21/43 18/22/44 14/1/26
f 14/1/26 18/22/44 99/23/19
f 13/21/43 110/17/40 111/24/45
f 18/22/44 111/24/45 152/25/20
f 19/9/46 23/1/47 24/2/48
f 20/3/49 24/2/48 147/4/50
f 23/1/47 107/6/34 106/7/33
f 24/2/48 106/7/33 161/8/36
f 20/3/49 25/10/51 21/11/52
f 25/10/51 115/12/53 116/18/54
f 146/5/55 145/13/56 25/10/51
f 145/13/56 162/14/57 115/12/53
f 21/11/52 26/15/58 22/21/59
f 22/21/59 26/15/58 118/16/60
f 21/11/52 116/18/54 117/19/61
f 26/15/58 117/19/61 154/20/62
f 22/21/59 27/22/63 23/1/47
f 27/22/63 108/23/41 107/6/34
f 22/21/59 119/17/64 120/24/65
f 120/24/65 153/25/42 108/23/41
f 28/9/66 32/1/67 33/2/68
f 29/3/69 33/2/68 150/4/70
f 32/1/67 116/6/54 115/7/53
f 33/2/68 115/7/53 162/8/57
f 28/9/66 29/3/69 34/10/71
f 30/11/72 34/10/71 129/12/7
f 149/5/73 148/13/74 34/10/71
f 34/10/71 148/13/74 159/14/8
f 30/11/72 35/15/75 31/21/76
f 31/21/76 35/15/75 124/16/77
f 128/18/6 127/19/23 35/15/75
f 127/19/23 151/20/25 124/16/77
f 31/21/76 36/22/78 32/1/67
f 36/22/78 117/23/61 116/6/54
f 31/21/76 125/17/79 126/24/80
f 36/22/78 126/24/80 154/25/62
f 41/1/81 42/2/82 38/3/83
f 42/2/82 102/4/24 101/5/17
f 125/6/79 124/7/77 42/2/82
f 124/7/77 151/8/25 102/4/24
f 38/3/83 43/10/84 39/11/85
f 43/10/84 111/12/45 110/18/40
f 101/5/17 100/13/16 43/10/84
f 100/13/16 152/14/20 111/12/45
f 37/9/86 39/11/85 44/15/87
f 44/15/87 120/16/65 119/17/64
f 110/18/40 109/19/39 44/15/87
f 109/19/39 153/20/42 120/16/65
f 40/21/88 45/22/89 41/1/81
f 45/22/89 126/23/80 125/6/79
f 119/17/64 118/24/60 45/22/89
f 118/24/60 154/25/62 126/23/80
f 46/9/90 50/1/91 51/2/92
f 47/3/93 51/2/92 114/4/94
f 122/6/95 121/7/96 51/2/92
f 121/7/96 158/8/97 114/4/94
f 47/3/93 52/10/98 48/11/99
f 52/10/98 105/12/100 104/18/101
f 113/5/102 112/13/103 52/10/98
f 112/13/103 157/14/104 105/12/100
f 48/11/99 53/15/105 49/21/106
f 53/15/105 96/16/107 95/17/108
f 104/18/101 103/19/109 53/15/105
f 103/19/109 156/20/110 96/16/107
f 49/21/106 54/22/111 50/1/91
f 54/22/111 123/23/112 122/6/95
f 49/21/106 95/17/108 94/24/113
f 94/24/113 155/25/114 123/23/112
f 59/1/115 60/2/116 56/3/117
f 60/2/116 94/4/113 95/5/108
f 92/6/118 93/7/119 60/2/116
f 93/7/119 155/8/114 94/4/113
f 55/9/120 56/3/117 61/10/121
f 57/11/122 61/10/121 130/12/123
f 56/3/117 95/5/108 96/13/107
f 61/10/121 96/13/107 156/14/110
f 57/11/122 62/15/124 58/21/125
f 62/15/124 139/16/13 140/17/5
f 131/18/126 132/19/127 62/15/124
f 132/19/127 160/20/14 139/16/13
f 55/9/120 58/21/125 63/22/128
f 59/1/115 63/22/128 91/23/129
f 58/21/125 140/17/5 141/24/4
f 63/22/128 141/24/4 159/25/8
f 68/1/130 69/2/131 65/3/132
f 69/2/131 103/4/109 104/5/101
f 131/6/126 130/7/123 69/2/131
f 130/7/123 156/8/110 103/4/109
f 65/3/132 70/10/133 66/11/134
f 70/10/133 133/12/135 134/18/136
f 104/5/101 105/13/100 70/10/133
f 105/13/100 157/14/104 133/12/135
f 64/9/137 66/11/134 71/15/138
f 67/21/139 71/15/138 142/16/35
f 66/11/134 134/18/136 135/19/140
f 71/15/138 135/19/140 161/20/36
f 64/9/137 67/21/139 72/22/141
f 68/1/130 72/22/141 132/23/127
f 67/21/139 143/17/30 144/24/29
f 72/22/141 144/24/29 160/25/14
f 73/9/142 77/1/143 78/2/144
f 74/3/145 78/2/144 112/4/103
f 77/1/143 134/6/136 133/7/135
f 78/2/144 133/7/135 157/8/104
f 74/3/145 79/10/146 75/11/147
f 79/10/146 136/12/148 137/18/149
f 113/5/102 114/13/94 79/10/146
f 114/13/94 158/14/97 136/12/148
f 73/9/142 75/11/147 80/15/150
f 76/21/151 80/15/150 145/16/56
f 75/11/147 137/18/149 138/19/152
f 80/15/150 138/19/152 162/20/57
f 76/21/151 81/22/153 77/1/143
f 81/22/153 135/23/140 134/6/136
f 146/17/55 147/24/50 81/22/153
f 147/24/50 161/25/36 135/23/140
f 86/1/154 87/2/155 83/3/156
f 83/3/156 87/2/155 121/4/96
f 86/1/154 137/6/149 136/7/148
f 87/2/155 136/7/148 158/8/97
f 82/9/157 83/3/156 88/10/158
f 84/11/159 88/10/158 93/12/119
f 83/3/156 122/5/95 123/13/112
f 88/10/158 123/13/112 155/14/114
f 82/9/157 84/11/159 89/15/160
f 85/21/161 89/15/160 148/16/74
f 92/18/118 91/19/129 89/15/160
f 91/19/129 159/20/8 148/16/74
f 85/21/161 90/22/162 86/1/154
f 90/22/162 138/23/152 137/6/149
f 149/17/73 150/24/70 90/22/162
f 90/22/162 150/24/70 162/25/57
f 1/9/9 5/1/1 2/3/3
f 2/3/3 6/2/2 140/5/5
f 5/1/1 128/6/6 6/2/2
f 6/2/2 129/7/7 141/4/4
f 3/11/11 1/9/9 7/10/10
f 98/18/18 3/11/11 97/12/12
f 7/10/10 2/3/3 139/13/13
f 97/12/12 7/10/10 160/14/14
f 4/21/21 1/9/9 8/15/15
f 4/21/21 8/15/15 101/17/17
f 3/11/11 98/18/18 8/15/15
f 8/15/15 99/19/19 100/16/16
f 5/1/1 1/9/9 9/22/22
f 128/6/6 5/1/1 127/23/23
f 9/22/22 4/21/21 102/24/24
f 127/23/23 9/22/22 151/25/25
f 10/9/31 14/1/26 11/3/28
f 11/3/28 15/2/27 143/5/30
f 14/1/26 98/6/18 15/2/27
f 15/2/27 97/7/12 144/4/29
f 12/11/37 10/9/31 16/10/32
f 12/11/37 16/10/32 107/18/34
f 11/3/28 143/5/30 16/10/32
f 16/10/32 142/13/35 106/12/33
f 13/21/43 10/9/31 17/15/38
f 13/21/43 17/15/38 110/17/40
f 17/15/38 12/11/37 108/19/41
f 17/15/38 108/19/41 109/16/39
f 10/9/31 13/21/43 14/1/26
f 98/6/18 14/1/26 99/23/19
f 18/22/44 13/21/43 111/24/45
f 99/23/19 18/22/44 152/25/20
f 20/3/49 19/9/46 24/2/48
f 146/5/55 20/3/49 147/4/50
f 24/2/48 23/1/47 106/7/33
f 147/4/50 24/2/48 161/8/36
f 19/9/46 20/3/49 21/11/52
f 21/11/52 25/10/51 116/18/54
f 20/3/49 146/5/55 25/10/51
f 25/10/51 145/13/56 115/12/53
f 19/9/46 21/11/52 22/21/59
f 119/17/64 22/21/59 118/16/60
f 26/15/58 21/11/52 117/19/61
f 118/16/60 26/15/58 154/20/62
f 19/9/46 22/21/59 23/1/47
f 23/1/47 27/22/63 107/6/34
f 27/22/63 22/21/59 120/24/65
f 27/22/63 120/24/65 108/23/41
f 29/3/69 28/9/66 33/2/68
f 149/5/73 29/3/69 150/4/70
f 33/2/68 32/1/67 115/7/53
f 150/4/70 33/2/68 162/8/57
f 30/11/72 28/9/66 34/10/71
f 128/18/6 30/11/72 129/12/7
f 29/3/69 149/5/73 34/10/71
f 129/12/7 34/10/71 159/14/8
f 28/9/66 30/11/72 31/21/76
f 125/17/79 31/21/76 124/16/77
f 30/11/72 128/18/6 35/15/75
f 35/15/75 127/19/23 124/16/77
f 28/9/66 31/21/76 32/1/67
f 32/1/67 36/22/78 116/6/54
f 36/22/78 31/21/76 126/24/80
f 117/23/61 36/22/78 154/25/62
f 37/9/86 41/1/81 38/3/83
f 38/3/83 42/2/82 101/5/17
f 41/1/81 125/6/79 42/2/82
f 42/2/82 124/7/77 102/4/24
f 37/9/86 38/3/83 39/11/85
f 39/11/85 43/10/84 110/18/40
f 38/3/83 101/5/17 43/10/84
f 43/10/84 100/13/16 111/12/45
f 40/21/88 37/9/86 44/15/87
f 40/21/88 44/15/87 119/17/64
f 39/11/85 110/18/40 44/15/87
f 44/15/87 109/19/39 120/16/65
f 37/9/86 40/21/88 41/1/81
f 41/1/81 45/22/89 125/6/79
f 40/21/88 119/17/64 45/22/89
f 45/22/89 118/24/60 126/23/80
f 47/3/93 46/9/90 51/2/92
f 113/5/102 47/3/93 114/4/94
f 50/1/91 122/6/95 51/2/92
f 51/2/92 121/7/96 114/4/94
f 46/9/90 47/3/93 48/11/99
f 48/11/99 52/10/98 104/18/101
f 47/3/93 113/5/102 52/10/98
f 52/10/98 112/13/103 105/12/100
f 46/9/90 48/11/99 49/21/106
f 49/21/106 53/15/105 95/17/108
f 48/11/99 104/18/101 53/15/105
f 53/15/105 103/19/109 96/16/107
f 46/9/90 49/21/106 50/1/91
f 50/1/91 54/22/111 122/6/95
f 54/22/111 49/21/106 94/24/113
f 54/22/111 94/24/113 123/23/112
f 55/9/120 59/1/115 56/3/117
f 56/3/117 60/2/116 95/5/108
f 59/1/115 92/6/118 60/2/116
f 60/2/116 93/7/119 94/4/113
f 57/11/122 55/9/120 61/10/121
f 131/18/126 57/11/122 130/12/123
f 61/10/121 56/3/117 96/13/107
f 130/12/123 61/10/121 156/14/110
f 55/9/120 57/11/122 58/21/125
f 58/21/125 62/15/124 140/17/5
f 57/11/122 131/18/126 62/15/124
f 62/15/124 132/19/127 139/16/13
f 59/1/115 55/9/120 63/22/128
f 92/6/118 59/1/115 91/23/129
f 63/22/128 58/21/125 141/24/4
f 91/23/129 63/22/128 159/25/8
f 64/9/137 68/1/130 65/3/132
f 65/3/132 69/2/131 104/5/101
f 68/1/130 131/6/126 69/2/131
f 69/2/131 130/7/123 103/4/109
f 64/9/137 65/3/132 66/11/134
f 66/11/134 70/10/133 134/18/136
f 65/3/132 104/5/101 70/10/133
f 70/10/133 105/13/100 133/12/135
f 67/21/139 64/9/137 71/15/138
f 143/17/30 67/21/139 142/16/35
f 71/15/138 66/11/134 135/19/140
f 142/16/35 71/15/138 161/20/36
f 68/1/130 64/9/137 72/22/141
f 131/6/126 68/1/130 132/23/127
f 72/22/141 67/21/139 144/24/29
f 132/23/127 72/22/141 160/25/14
f 74/3/145 73/9/142 78/2/144
f 113/5/102 74/3/145 112/4/103
f 78/2/144 77/1/143 133/7/135
f 112/4/103 78/2/144 157/8/104
f 73/9/142 74/3/145 75/11/147
f 75/11/147 79/10/146 137/18/149
f 74/3/145 113/5/102 79/10/146
f 79/10/146 114/13/94 136/12/148
f 76/21/151 73/9/142 80/15/150
f 146/17/55 76/21/151 145/16/56
f 80/15/150 75/11/147 138/19/152
f 145/16/56 80/15/150 162/20/57
f 73/9/142 76/21/151 77/1/143
f 77/1/143 81/22/153 134/6/136
f 76/21/151 146/17/55 81/22/153
f 81/22/153 147/24/50 135/23/140
f 82/9/157 86/1/154 83/3/156
f 122/5/95 83/3/156 121/4/96
f 87/2/155 86/1/154 136/7/148
f 121/4/96 87/2/155 158/8/97
f 84/11/159 82/9/157 88/10/158
f 92/18/118 84/11/159 93/12/119
f 88/10/158 83/3/156 123/13/112
f 93/12/119 88/10/158 155/14/114
f 85/21/161 82/9/157 89/15/160
f 149/17/73 85/21/161 148/16/74
f 84/11/159 92/18/118 89/15/160
f 89/15/160 91/19/129 148/16/74
f 82/9/157 85/21/161 86/1/154
f 86/1/154 90/22/162 137/6/149
f 85/21/161 149/17/73 90/22/162
f 138/23/152 90/22/162 162/25/57
