# Blender v2.72 (sub 0) OBJ File: ''
# www.blender.org
o Cube_Cube.002
v -0.852833 -0.499875 -0.010358
v -0.899035 -0.537712 0.375379
v -0.499418 -0.344586 0.228576
v -0.725886 -0.130083 0.310821
v -0.714408 -0.139124 -0.010358
v -0.411174 -0.384582 0.410742
v -0.549694 -0.341583 0.549262
v -0.449068 -0.156027 0.448636
v -0.653443 -0.343131 -0.010358
v -0.652876 -0.342309 -0.305973
v -0.761751 -0.484909 -0.344686
v -0.385397 -0.344696 -0.405681
v -0.722804 -0.130559 -0.330402
v -0.541641 -0.136628 -0.561925
v -0.621784 -0.474943 -0.285819
v -0.547827 -0.586733 -0.291650
v -0.648196 -0.771634 -0.010358
v -0.598929 -0.482745 -0.619213
v -0.354476 -0.254846 -0.374760
v -0.473964 -0.602644 -0.494248
v -0.774145 -0.601482 -0.010358
v -1.024313 -0.959284 0.420196
v -0.385608 -0.304219 0.385176
v -0.632583 -0.848872 0.313700
v -0.445521 -0.507185 0.445089
v 0.009926 -0.462047 -0.765099
v -0.197103 -0.354161 -0.442093
v -0.199279 -0.345780 -0.439214
v 0.009926 -0.344737 -0.563169
v -0.180704 -0.184872 -0.391674
v 0.357507 -0.340222 -0.813850
v 0.353007 -0.345686 -0.353439
v 0.462726 -0.401155 -0.463158
v 0.009926 -0.184368 -0.418478
v 0.289258 -0.147645 -0.632538
v 0.550384 -0.138956 -0.550816
v 0.229228 -0.366767 -0.474868
v 0.306344 -0.540389 -0.696460
v 0.009926 -0.527747 -0.728655
v 0.298036 -0.628522 -0.581622
v 0.009926 -0.838658 -0.690944
v 0.401103 -0.297309 -0.401535
v 0.448862 -0.451774 -0.449294
v -0.229909 -0.363686 -0.549604
v -0.256490 -0.495547 -0.538628
v 1.081555 -0.600277 -0.457009
v 0.783771 -0.340662 -0.346989
v 0.773450 -0.341676 -0.010358
v 0.525726 -0.164087 -0.250514
v 0.862554 -0.120767 -0.010358
v 0.671970 -0.342320 0.284978
v 0.540601 -0.392215 0.233721
v 0.383593 -0.345107 0.363309
v 0.702632 -0.526585 0.682348
v 0.424095 -0.179795 0.192370
v 0.860500 -0.073967 0.840216
v 0.500138 -0.304686 0.210584
v 0.971481 -0.800448 -0.010358
v 0.543382 -0.511587 0.258675
v 0.693106 -0.846398 -0.010358
v 0.444476 -0.366095 0.424192
v 0.398640 -0.283222 0.378356
v 0.593641 -0.402153 -0.010358
v 1.027929 -0.939748 -0.434656
v 0.477423 -0.307583 -0.246110
v 0.009926 -0.466949 0.758383
v 0.270092 -0.408738 0.563276
v 0.269820 -0.343744 0.555732
v 0.252400 -0.163114 0.511738
v 0.009926 -0.118908 0.855267
v 0.009926 -0.343749 0.610464
v -0.298987 -0.341776 0.688444
v -0.281254 -0.142673 0.643995
v -0.270809 -0.429864 0.618204
v -0.221681 -0.337991 0.507534
v 0.009926 -0.663769 0.829275
v -0.270041 -0.578606 0.544767
v 0.009926 -0.369843 0.513096
v 0.283479 -0.468984 0.616400
v 0.261760 -0.406161 0.489011
v 0.009926 -0.608654 0.320171
v -0.267384 -0.370748 0.266952
v -0.374296 -1.062330 -0.010358
v -0.302997 -0.655159 -0.323281
v 0.009926 -0.458725 -0.323143
v 0.349580 -0.868636 -0.350012
v 0.310014 -0.351444 -0.010358
v 0.297955 -0.456354 0.277671
v 0.009926 1.165675 0.295365
v 0.191475 0.812529 0.171191
v 0.179887 0.770044 -0.010358
v 0.321534 0.698494 0.150568
v 0.547550 0.969611 -0.010358
v 0.009926 0.649316 0.260985
v 0.151361 0.650972 0.262431
v 0.171737 0.511480 0.151453
v 0.157874 0.716561 -0.158306
v 0.009926 1.195973 -0.326478
v 0.208164 0.789472 -0.396283
v 0.222456 0.577204 -0.121539
v 0.153338 0.487810 -0.153770
v -0.158277 0.774413 -0.178561
v -0.334097 1.277288 -0.010358
v -0.157648 0.522169 -0.098967
v 0.009926 0.852984 -0.451022
v -0.125311 0.635860 -0.270802
v -0.212368 0.589291 -0.232652
v -0.110414 0.637709 0.109982
v -0.221797 0.871115 0.442259
v -0.706327 1.184475 -0.010358
v -0.182566 0.552674 0.090762
v -0.475738 0.928110 0.475306
v -0.468779 0.347155 -0.010358
v -0.586960 0.397577 0.252929
v -0.755490 0.788577 0.315076
v -0.310330 0.314302 0.309898
v -0.644236 0.815678 0.643804
v -0.496021 0.616328 -0.010358
v -0.616288 0.698307 -0.280973
v -0.207234 0.446206 -0.227518
v -0.489047 0.405136 -0.509331
v -0.429463 0.338465 -0.214806
v -0.816794 0.168932 -0.362463
v -0.364939 0.084847 -0.385224
v -0.537935 0.097769 -0.010358
v -0.941254 0.197224 0.387619
v -0.314394 0.069276 0.313962
v -0.219068 0.363125 -0.515451
v -0.247934 0.677303 -0.604184
v 0.009926 0.714685 -0.677391
v 0.147064 0.478511 -0.297634
v 0.246670 0.370911 -0.536195
v 0.325958 0.529799 -0.326390
v 0.496267 0.398716 -0.496699
v 0.284795 0.121295 -0.627518
v 0.009926 0.180034 -0.949229
v 0.314230 0.063110 -0.314661
v -0.233435 0.101862 -0.542028
v 0.449500 0.333634 -0.010358
v 0.370170 0.308761 -0.185238
v 0.489662 0.603318 -0.223289
v 0.427042 0.562090 -0.010358
v 0.420545 0.558497 0.175354
v 0.799713 0.469975 0.324994
v 0.482541 0.662185 0.462256
v 0.584826 0.443727 0.564542
v 0.445291 0.079970 0.197508
v 0.751137 0.138448 -0.010358
v 0.364515 0.078601 0.344231
v 0.997173 0.205423 -0.421628
v 0.198339 0.322356 0.386109
v 0.169466 0.515400 0.333803
v 0.009926 0.732267 0.685472
v 0.009926 0.354664 0.490078
v -0.336640 0.823374 0.808718
v -0.204344 0.348334 0.455324
v -0.289490 0.136435 0.673403
v 0.009926 0.075307 0.430741
v 0.311578 0.137814 0.679469
v 0.009926 -0.697488 -0.010358
v 0.009926 0.910398 -0.010358
v 0.009926 0.366932 -0.546300
vt 0.500000 1.981018
vt 0.250000 1.981018
vt 0.250000 1.875695
vt 0.250000 1.747100
vt 0.500000 1.747100
vt 0.000000 1.981018
vt 0.000000 1.875695
vt 0.000000 1.747100
vt 0.500000 1.875695
vt 0.750000 1.875695
vt 0.750000 1.981018
vt 1.000000 1.875695
vt 0.750000 1.747100
vt 1.000000 1.747100
vt 0.750000 2.070826
vt 0.750000 2.152877
vt 0.500000 2.152877
vt 1.000000 1.981018
vt 1.000000 2.070826
vt 1.000000 2.152877
vt 0.500000 2.070826
vt 0.250000 2.070826
vt 0.000000 2.070826
vt 0.250000 2.152877
vt 0.000000 2.152877
vt 1.981018 0.500000
vt 1.981018 0.750000
vt 1.875695 0.750000
vt 1.875695 0.500000
vt 1.747100 0.750000
vt 1.981018 1.000000
vt 1.875695 1.000000
vt 1.747100 1.000000
vt 1.875695 0.250000
vt 1.875695 0.000000
vt 1.981018 0.000000
vt 1.747100 0.500000
vt 1.747100 0.250000
vt 1.747100 0.000000
vt 1.981018 0.250000
vt 2.070826 0.250000
vt 2.070826 0.500000
vt 2.152877 0.250000
vt 2.152877 0.500000
vt 2.070826 0.000000
vt 2.152877 0.000000
vt 2.070826 0.750000
vt 2.070826 1.000000
vt 2.152877 0.750000
vt 2.152877 1.000000
vt 0.750000 -0.991515
vt 0.750000 -0.875695
vt 0.500000 -0.875695
vt 0.750000 -0.747100
vt 0.500000 -0.747100
vt 1.000000 -0.991515
vt 1.000000 -0.875695
vt 1.000000 -0.747100
vt 0.250000 -0.875695
vt 0.250000 -0.991515
vt 0.000000 -0.875695
vt 0.000000 -0.991515
vt 0.250000 -0.747100
vt 0.000000 -0.747100
vt 0.250000 -1.112813
vt 0.500000 -1.112813
vt 0.250000 -1.257845
vt 0.500000 -1.257845
vt 0.000000 -1.112813
vt 0.000000 -1.257845
vt 0.500000 -0.991515
vt 0.750000 -1.112813
vt 1.000000 -1.112813
vt 0.750000 -1.257845
vt 1.000000 -1.257845
vt -0.981018 0.500000
vt -0.981018 0.250000
vt -0.875695 0.250000
vt -0.747100 0.250000
vt -0.747100 0.500000
vt -0.981018 0.000000
vt -0.875695 0.000000
vt -0.747100 0.000000
vt -0.875695 0.500000
vt -0.875695 0.750000
vt -0.875695 1.000000
vt -0.981018 1.000000
vt -0.747100 0.750000
vt -0.747100 1.000000
vt -0.981018 0.750000
vt -1.070826 0.750000
vt -1.070826 0.500000
vt -1.152877 0.750000
vt -1.152877 0.500000
vt -1.070826 1.000000
vt -1.152877 1.000000
vt -1.070826 0.250000
vt -1.070826 0.000000
vt -1.152877 0.250000
vt -1.152877 0.000000
vt 0.250000 -1.663374
vt 0.250000 -1.902877
vt 0.500000 -1.902877
vt 0.250000 -2.152877
vt 0.500000 -2.152877
vt 0.000000 -1.663374
vt 0.000000 -1.902877
vt 0.000000 -2.152877
vt 0.750000 -1.902877
vt 0.750000 -1.663374
vt 1.000000 -1.902877
vt 1.000000 -1.663374
vt 0.750000 -2.152877
vt 1.000000 -2.152877
vt 0.750000 -1.444864
vt 0.500000 -1.444864
vt 1.000000 -1.444865
vt 0.250000 -1.444864
vt 0.000000 -1.444865
vt 0.245333 0.500000
vt 0.229708 0.229708
vt 0.500000 0.245333
vt 0.212713 -0.019480
vt 0.500000 0.003957
vt 0.003957 0.500000
vt -0.019480 0.212713
vt -0.128855 -0.128855
vt 0.770292 0.229708
vt 0.754667 0.500000
vt 1.019480 0.212713
vt 0.787287 -0.019480
vt 1.128855 -0.128855
vt 0.770292 0.770292
vt 0.500000 0.754667
vt 0.787287 1.019480
vt 0.996043 0.500000
vt 1.019480 0.787287
vt 1.128855 1.128855
vt 0.229708 0.770292
vt -0.019480 0.787287
vt 0.500000 0.996043
vt 0.212713 1.019480
vt -0.128855 1.128855
vt 0.500000 1.405746
vt 0.243557 1.409652
vt 0.224229 1.226460
vt -0.012886 1.417465
vt -0.051542 1.257710
vt 0.500000 1.210835
vt 0.775771 1.226460
vt 1.051542 1.257710
vt 1.012886 1.417465
vt 0.756443 1.409652
vt 0.750000 1.587476
vt 1.000000 1.587476
vt 0.500000 1.587476
vt 0.250000 1.587476
vt 0.000000 1.587476
vt 1.409652 0.756443
vt 1.226460 0.775771
vt 1.210835 0.500000
vt 1.417465 1.012886
vt 1.257710 1.051542
vt 1.226460 0.224229
vt 1.409652 0.243557
vt 1.257710 -0.051542
vt 1.417465 -0.012886
vt 1.587476 0.250000
vt 1.587476 0.500000
vt 1.587476 0.000000
vt 1.587476 0.750000
vt 1.587476 1.000000
vt 0.500000 -0.405746
vt 0.756443 -0.409652
vt 0.775771 -0.226460
vt 1.012886 -0.417465
vt 1.051542 -0.257710
vt 0.500000 -0.210835
vt 0.224229 -0.226460
vt 0.243557 -0.409652
vt -0.051542 -0.257710
vt -0.012886 -0.417465
vt 0.250000 -0.587476
vt 0.500000 -0.587476
vt 0.000000 -0.587476
vt 0.750000 -0.587476
vt 1.000000 -0.587476
vt -0.409652 0.243557
vt -0.226460 0.224229
vt -0.210835 0.500000
vt -0.417465 -0.012886
vt -0.257710 -0.051542
vt -0.405746 0.500000
vt -0.226460 0.775771
vt -0.257710 1.051542
vt -0.417465 1.012886
vt -0.409652 0.756443
vt -0.587476 0.750000
vt -0.587476 1.000000
vt -0.587476 0.500000
vt -0.587476 0.250000
vt -0.587476 0.000000
vt 0.500000 -1.663374
vt 0.500000 0.500000
vt 1.405746 0.500000
vn -0.905100 0.264400 -0.333000
vn -0.644300 0.543000 0.538500
vn -0.959500 0.093100 0.265900
vn -0.746800 -0.563300 0.353400
vn -0.988600 -0.144800 0.042100
vn 0.172100 -0.856800 -0.486000
vn -0.694900 -0.422900 0.581500
vn -0.518800 0.454300 0.724200
vn -0.897800 0.323300 0.298800
vn -0.734300 0.225100 -0.640300
vn -0.556300 -0.377500 -0.740200
vn -0.361600 0.187400 -0.913300
vn -0.859000 -0.382100 -0.340600
vn -0.306400 -0.181600 -0.934400
vn -0.147500 -0.665400 -0.731700
vn -0.562100 -0.429700 -0.706700
vn -0.432300 -0.833300 -0.344600
vn 0.466900 0.412900 0.782000
vn -0.440900 -0.803100 -0.400700
vn -0.462700 -0.692300 -0.553800
vn -0.612000 -0.464000 -0.640400
vn -0.627300 -0.663800 0.407300
vn 0.169700 -0.811100 0.559700
vn 0.495300 -0.796600 0.346500
vn -0.667000 0.255700 0.699800
vn -0.180800 -0.007500 -0.983500
vn -0.361500 0.545400 -0.756200
vn -0.162300 0.319700 -0.933500
vn -0.366800 0.702900 -0.609400
vn -0.019800 -0.120100 -0.992600
vn 0.287600 -0.265500 -0.920200
vn 0.748100 0.074500 -0.659400
vn 0.149100 0.457200 0.876700
vn -0.251700 -0.037200 -0.967100
vn -0.252600 0.352500 -0.901000
vn 0.839400 0.206100 -0.502900
vn 0.362900 -0.335700 -0.869200
vn 0.652300 0.127000 -0.747200
vn -0.189900 -0.049500 -0.980500
vn 0.812800 -0.400000 -0.423500
vn -0.223500 -0.836400 -0.500400
vn 0.492000 -0.863500 -0.111000
vn 0.892200 -0.288100 -0.347700
vn -0.305400 0.776900 -0.550500
vn -0.431400 -0.271100 -0.860400
vn 0.893800 0.165700 -0.416700
vn 0.516200 0.585100 -0.625400
vn 0.750300 -0.573700 0.328400
vn 0.652900 0.408600 -0.637800
vn 0.950900 -0.024000 0.308600
vn 0.813000 -0.080900 0.576600
vn -0.466800 -0.862800 -0.194200
vn 0.856800 0.303500 0.416900
vn 0.694300 -0.365700 0.619700
vn 0.875900 0.193500 0.441900
vn 0.729400 0.108100 0.675500
vn 0.282300 -0.824800 0.489900
vn 0.899200 -0.436800 -0.026500
vn 0.662000 -0.296400 0.688400
vn 0.052200 -0.996200 0.069900
vn -0.360400 -0.835600 -0.414500
vn 0.033000 -0.944900 0.325600
vn 0.877600 -0.265100 0.399400
vn 0.384600 -0.907100 -0.170800
vn 0.192100 -0.900300 -0.390700
vn 0.108700 0.453200 0.884700
vn 0.169200 0.321600 0.931600
vn 0.322100 0.073200 0.943800
vn 0.404200 0.145100 0.903100
vn 0.132200 0.042100 0.990300
vn 0.223400 0.025100 0.974400
vn -0.454000 -0.302800 0.837900
vn -0.639000 0.117300 0.760200
vn -0.440400 -0.896800 0.041200
vn -0.271300 -0.912800 0.305300
vn -0.006900 -0.791300 0.611300
vn 0.279300 -0.632300 0.722600
vn -0.053900 -0.995100 -0.082500
vn 0.491500 -0.500600 0.712500
vn 0.171100 -0.974300 -0.146400
vn 0.182400 -0.740700 0.646600
vn 0.170700 -0.922800 0.345500
vn -0.114600 -0.990400 0.077200
vn -0.075600 -0.800300 -0.594800
vn 0.156400 -0.948100 0.276700
vn 0.237700 -0.970000 0.050200
vn -0.192000 -0.973900 0.121000
vn -0.066600 -0.989600 0.127300
vn 0.214000 0.815100 0.538300
vn 0.696900 0.489500 0.524200
vn 0.241600 0.943300 -0.227500
vn 0.137200 0.425300 0.894600
vn 0.610600 0.790300 -0.049800
vn 0.309300 0.697300 0.646600
vn 0.707700 0.574300 0.411500
vn 0.383300 0.818600 0.427700
vn 0.849400 0.475800 -0.228200
vn 0.177900 0.863500 -0.471800
vn 0.812500 0.142200 -0.565400
vn 0.328600 0.246700 -0.911700
vn 0.665200 0.648800 -0.369500
vn -0.864300 -0.018000 -0.502600
vn -0.383900 0.922400 0.042800
vn -0.515000 0.616900 -0.595100
vn -0.278000 0.371400 -0.885800
vn -0.900100 0.420600 -0.113600
vn -0.828000 0.520300 -0.209000
vn -0.828900 0.521600 0.201800
vn 0.339300 0.937500 0.076700
vn -0.579900 0.812100 -0.064300
vn -0.326100 0.895000 0.304300
vn -0.369600 0.920700 -0.125400
vn -0.962000 0.181300 -0.204000
vn -0.788000 0.337100 0.515100
vn -0.882000 0.388800 0.266200
vn -0.588800 -0.091000 0.803200
vn -0.807800 0.299500 0.507600
vn -0.974500 -0.191900 -0.116100
vn -0.689100 0.291000 -0.663700
vn -0.411000 0.878000 -0.245500
vn -0.600400 0.317200 -0.734100
vn -0.938700 0.344600 -0.002100
vn -0.878800 0.365800 -0.306300
vn -0.469500 0.186100 -0.863100
vn -0.903100 0.425800 -0.056100
vn -0.861700 0.299800 0.409300
vn -0.606000 0.342200 0.718100
vn -0.252500 0.052800 -0.966100
vn -0.575300 0.620500 -0.532900
vn 0.225300 0.538200 -0.812100
vn 0.450600 0.451100 -0.770300
vn 0.334200 0.648800 -0.683600
vn -0.074800 0.826200 -0.558300
vn 0.541100 0.479100 -0.691100
vn 0.660500 -0.045700 -0.749400
vn -0.039200 0.043000 -0.998300
vn 0.758400 0.031100 -0.651000
vn -0.616400 -0.143700 -0.774200
vn 0.767100 0.492400 -0.411100
vn 0.878100 0.476900 -0.039700
vn 0.761500 0.456900 -0.459700
vn 0.998400 0.053300 -0.016900
vn 0.714200 0.696400 0.069900
vn 0.919900 0.340000 0.195000
vn 0.358500 0.797200 0.485800
vn 0.468900 0.204600 0.859200
vn 0.863600 -0.178600 0.471400
vn 0.751000 0.401700 0.523900
vn 0.776600 0.139400 0.614300
vn 0.821100 0.233100 -0.521000
vn 0.114000 0.509400 0.853000
vn 0.374300 0.379700 0.846000
vn 0.570700 0.488500 0.660000
vn 0.167300 -0.106800 0.980100
vn -0.049300 0.377000 0.924900
vn -0.558400 0.044100 0.828400
vn -0.476200 0.472300 0.741700
vn -0.003400 0.412500 0.910900
vn 0.398600 0.147200 0.905200
vn 0.708000 -0.689800 -0.151100
vn 0.670900 0.741300 0.017700
vn -0.050200 0.392000 -0.918600
s 1
f 1/1/1 2/2/2 3/3/3
f 3/3/3 4/4/4 5/5/5
f 6/6/6 7/7/7 3/3/3
f 7/7/7 8/8/8 4/4/4
f 1/1/1 9/9/9 10/10/10
f 11/11/11 10/10/10 12/12/12
f 9/9/9 5/5/5 13/13/13
f 13/13/13 14/14/14 12/12/12
f 1/1/1 11/11/11 15/15/15
f 15/15/15 16/16/16 17/17/17
f 11/11/11 18/18/18 19/19/19
f 19/19/19 20/20/20 16/16/16
f 1/1/1 21/21/21 22/22/22
f 22/22/22 23/23/23 6/6/6
f 17/17/17 24/24/24 22/22/22
f 24/24/24 25/25/25 23/23/23
f 26/26/26 27/27/27 28/28/28
f 29/29/29 28/28/28 30/30/30
f 18/31/18 12/32/12 28/28/28
f 28/28/28 12/32/12 14/33/14
f 26/26/26 29/29/29 31/34/31
f 31/34/31 32/35/32 33/36/33
f 34/37/34 35/38/35 31/34/31
f 31/34/31 35/38/35 36/39/36
f 37/40/37 38/41/38 39/42/39
f 38/41/38 40/43/40 41/44/41
f 33/36/33 42/45/42 38/41/38
f 42/45/42 43/46/43 40/43/40
f 39/42/39 44/47/44 27/27/27
f 44/47/44 19/48/19 18/31/18
f 41/44/41 45/49/45 44/47/44
f 44/47/44 45/49/45 20/50/20
f 46/51/46 47/52/47 48/53/48
f 47/52/47 49/54/49 50/55/50
f 46/51/46 33/56/33 32/57/32
f 47/52/47 32/57/32 36/58/36
f 48/53/48 51/59/51 52/60/52
f 51/59/51 53/61/53 54/62/54
f 50/55/50 55/63/55 51/59/51
f 55/63/55 56/64/56 53/61/53
f 52/60/52 57/65/57 58/66/58
f 57/65/57 59/67/59 60/68/60
f 54/62/54 61/69/61 57/65/57
f 61/69/61 62/70/62 59/67/59
f 63/71/63 58/66/58 64/72/64
f 46/51/46 64/72/64 42/73/42
f 58/66/58 60/68/60 65/74/65
f 65/74/65 43/75/43 42/73/42
f 66/76/66 67/77/67 68/78/68
f 68/78/68 69/79/69 70/80/70
f 54/81/54 53/82/53 68/78/68
f 68/78/68 53/82/53 56/83/56
f 66/76/66 71/84/71 72/85/72
f 72/85/72 7/86/7 6/87/6
f 70/80/70 73/88/73 72/85/72
f 73/88/73 8/89/8 7/86/7
f 74/90/74 75/91/75 76/92/76
f 75/91/75 77/93/77 78/94/78
f 74/90/74 6/87/6 23/95/23
f 23/95/23 25/96/25 77/93/77
f 76/92/76 79/97/79 67/77/67
f 79/97/79 61/98/61 54/81/54
f 76/92/76 78/94/78 80/99/80
f 79/97/79 80/99/80 62/100/62
f 81/101/81 82/102/82 83/103/83
f 82/102/82 24/104/24 17/105/17
f 78/106/78 77/107/77 82/102/82
f 77/107/77 25/108/25 24/104/24
f 83/103/83 84/109/84 85/110/85
f 84/109/84 45/111/45 41/112/41
f 83/103/83 17/105/17 16/113/16
f 16/113/16 20/114/20 45/111/45
f 85/110/85 86/115/86 87/116/87
f 86/115/86 65/74/65 60/68/60
f 41/112/41 40/117/40 86/115/86
f 40/117/40 43/75/43 65/74/65
f 87/116/87 88/118/88 81/101/81
f 88/118/88 80/119/80 78/106/78
f 60/68/60 59/67/59 88/118/88
f 59/67/59 62/70/62 80/119/80
f 89/120/89 90/121/90 91/122/91
f 90/121/90 92/123/92 93/124/93
f 89/120/89 94/125/94 95/126/95
f 90/121/90 95/126/95 96/127/96
f 91/122/91 97/128/97 98/129/98
f 98/129/98 97/128/97 99/130/99
f 93/124/93 100/131/100 97/128/97
f 100/131/100 101/132/101 99/130/99
f 98/129/98 102/133/102 103/134/103
f 103/134/103 102/133/102 104/135/104
f 98/129/98 105/136/105 106/137/106
f 106/137/106 107/138/107 104/135/104
f 103/134/103 108/139/108 89/120/89
f 89/120/89 108/139/108 109/140/109
f 103/134/103 110/141/110 111/142/111
f 108/139/108 111/142/111 112/143/112
f 113/144/113 114/145/114 115/146/115
f 115/146/115 111/142/111 110/141/110
f 116/147/116 117/148/117 115/146/115
f 117/148/117 112/143/112 111/142/111
f 113/144/113 118/149/118 119/150/119
f 119/150/119 120/151/120 121/152/121
f 110/141/110 104/135/104 119/150/119
f 104/135/104 107/138/107 120/151/120
f 113/144/113 122/153/122 123/154/123
f 123/154/123 13/13/13 5/5/5
f 121/152/121 124/155/124 123/154/123
f 123/154/123 124/155/124 14/14/14
f 113/144/113 125/156/125 126/157/126
f 126/157/126 127/158/127 116/147/116
f 5/5/5 4/4/4 126/157/126
f 126/157/126 4/4/4 8/8/8
f 128/159/128 129/160/129 130/161/130
f 130/161/130 129/160/129 106/137/106
f 121/162/121 120/163/120 129/160/129
f 120/163/120 107/138/107 106/137/106
f 130/161/130 131/164/131 132/165/132
f 131/164/131 133/166/133 134/167/134
f 105/136/105 99/130/99 131/164/131
f 99/130/99 101/132/101 133/166/133
f 132/165/132 135/168/135 136/169/136
f 135/168/135 35/38/35 34/37/34
f 134/167/134 137/170/137 135/168/135
f 135/168/135 137/170/137 36/39/36
f 136/169/136 138/171/138 128/159/128
f 138/171/138 124/172/124 121/162/121
f 136/169/136 34/37/34 30/30/30
f 138/171/138 30/30/30 14/33/14
f 139/173/139 140/174/140 141/175/141
f 141/175/141 100/131/100 93/124/93
f 134/176/134 133/177/133 141/175/141
f 141/175/141 133/177/133 101/132/101
f 142/178/142 143/179/143 144/180/144
f 143/179/143 145/181/145 146/182/146
f 93/124/93 92/123/92 143/179/143
f 92/123/92 96/127/96 145/181/145
f 144/180/144 147/183/147 148/184/148
f 147/183/147 55/63/55 50/55/50
f 144/180/144 146/182/146 149/185/149
f 147/183/147 149/185/149 56/64/56
f 139/173/139 148/184/148 150/186/150
f 150/186/150 137/187/137 134/176/134
f 50/55/50 49/54/49 150/186/150
f 49/54/49 36/58/36 137/187/137
f 151/188/151 152/189/152 153/190/153
f 153/190/153 152/189/152 95/126/95
f 146/191/146 145/192/145 152/189/152
f 145/192/145 96/127/96 95/126/95
f 154/193/154 153/190/153 155/194/155
f 155/194/155 117/195/117 116/196/116
f 94/125/94 109/140/109 155/194/155
f 109/140/109 112/143/112 117/195/117
f 154/193/154 156/197/156 157/198/157
f 157/198/157 73/88/73 70/80/70
f 116/196/116 127/199/127 157/198/157
f 157/198/157 127/199/127 8/89/8
f 154/193/154 158/200/158 159/201/159
f 159/201/159 149/202/149 146/191/146
f 70/80/70 69/79/69 159/201/159
f 69/79/69 56/83/56 149/202/149
f 9/9/9 1/1/1 3/3/3
f 9/9/9 3/3/3 5/5/5
f 2/2/2 6/6/6 3/3/3
f 3/3/3 7/7/7 4/4/4
f 11/11/11 1/1/1 10/10/10
f 18/18/18 11/11/11 12/12/12
f 10/10/10 9/9/9 13/13/13
f 10/10/10 13/13/13 12/12/12
f 21/21/21 1/1/1 15/15/15
f 21/21/21 15/15/15 17/17/17
f 15/15/15 11/11/11 19/19/19
f 15/15/15 19/19/19 16/16/16
f 2/2/2 1/1/1 22/22/22
f 2/2/2 22/22/22 6/6/6
f 21/21/21 17/17/17 22/22/22
f 22/22/22 24/24/24 23/23/23
f 29/29/29 26/26/26 28/28/28
f 34/37/34 29/29/29 30/30/30
f 27/27/27 18/31/18 28/28/28
f 30/30/30 28/28/28 14/33/14
f 37/40/37 26/26/26 31/34/31
f 37/40/37 31/34/31 33/36/33
f 29/29/29 34/37/34 31/34/31
f 32/35/32 31/34/31 36/39/36
f 26/26/26 37/40/37 39/42/39
f 39/42/39 38/41/38 41/44/41
f 37/40/37 33/36/33 38/41/38
f 38/41/38 42/45/42 40/43/40
f 26/26/26 39/42/39 27/27/27
f 27/27/27 44/47/44 18/31/18
f 39/42/39 41/44/41 44/47/44
f 19/48/19 44/47/44 20/50/20
f 63/71/63 46/51/46 48/53/48
f 48/53/48 47/52/47 50/55/50
f 47/52/47 46/51/46 32/57/32
f 49/54/49 47/52/47 36/58/36
f 63/71/63 48/53/48 52/60/52
f 52/60/52 51/59/51 54/62/54
f 48/53/48 50/55/50 51/59/51
f 51/59/51 55/63/55 53/61/53
f 63/71/63 52/60/52 58/66/58
f 58/66/58 57/65/57 60/68/60
f 52/60/52 54/62/54 57/65/57
f 57/65/57 61/69/61 59/67/59
f 46/51/46 63/71/63 64/72/64
f 33/56/33 46/51/46 42/73/42
f 64/72/64 58/66/58 65/74/65
f 64/72/64 65/74/65 42/73/42
f 71/84/71 66/76/66 68/78/68
f 71/84/71 68/78/68 70/80/70
f 67/77/67 54/81/54 68/78/68
f 69/79/69 68/78/68 56/83/56
f 74/90/74 66/76/66 72/85/72
f 74/90/74 72/85/72 6/87/6
f 71/84/71 70/80/70 72/85/72
f 72/85/72 73/88/73 7/86/7
f 66/76/66 74/90/74 76/92/76
f 76/92/76 75/91/75 78/94/78
f 75/91/75 74/90/74 23/95/23
f 75/91/75 23/95/23 77/93/77
f 66/76/66 76/92/76 67/77/67
f 67/77/67 79/97/79 54/81/54
f 79/97/79 76/92/76 80/99/80
f 61/98/61 79/97/79 62/100/62
f 160/203/160 81/101/81 83/103/83
f 83/103/83 82/102/82 17/105/17
f 81/101/81 78/106/78 82/102/82
f 82/102/82 77/107/77 24/104/24
f 160/203/160 83/103/83 85/110/85
f 85/110/85 84/109/84 41/112/41
f 84/109/84 83/103/83 16/113/16
f 84/109/84 16/113/16 45/111/45
f 160/203/160 85/110/85 87/116/87
f 87/116/87 86/115/86 60/68/60
f 85/110/85 41/112/41 86/115/86
f 86/115/86 40/117/40 65/74/65
f 160/203/160 87/116/87 81/101/81
f 81/101/81 88/118/88 78/106/78
f 87/116/87 60/68/60 88/118/88
f 88/118/88 59/67/59 80/119/80
f 161/204/161 89/120/89 91/122/91
f 91/122/91 90/121/90 93/124/93
f 90/121/90 89/120/89 95/126/95
f 92/123/92 90/121/90 96/127/96
f 161/204/161 91/122/91 98/129/98
f 105/136/105 98/129/98 99/130/99
f 91/122/91 93/124/93 97/128/97
f 97/128/97 100/131/100 99/130/99
f 161/204/161 98/129/98 103/134/103
f 110/141/110 103/134/103 104/135/104
f 102/133/102 98/129/98 106/137/106
f 102/133/102 106/137/106 104/135/104
f 161/204/161 103/134/103 89/120/89
f 94/125/94 89/120/89 109/140/109
f 108/139/108 103/134/103 111/142/111
f 109/140/109 108/139/108 112/143/112
f 118/149/118 113/144/113 115/146/115
f 118/149/118 115/146/115 110/141/110
f 114/145/114 116/147/116 115/146/115
f 115/146/115 117/148/117 111/142/111
f 122/153/122 113/144/113 119/150/119
f 122/153/122 119/150/119 121/152/121
f 118/149/118 110/141/110 119/150/119
f 119/150/119 104/135/104 120/151/120
f 125/156/125 113/144/113 123/154/123
f 125/156/125 123/154/123 5/5/5
f 122/153/122 121/152/121 123/154/123
f 13/13/13 123/154/123 14/14/14
f 114/145/114 113/144/113 126/157/126
f 114/145/114 126/157/126 116/147/116
f 125/156/125 5/5/5 126/157/126
f 127/158/127 126/157/126 8/8/8
f 162/205/162 128/159/128 130/161/130
f 105/136/105 130/161/130 106/137/106
f 128/159/128 121/162/121 129/160/129
f 129/160/129 120/163/120 106/137/106
f 162/205/162 130/161/130 132/165/132
f 132/165/132 131/164/131 134/167/134
f 130/161/130 105/136/105 131/164/131
f 131/164/131 99/130/99 133/166/133
f 162/205/162 132/165/132 136/169/136
f 136/169/136 135/168/135 34/37/34
f 132/165/132 134/167/134 135/168/135
f 35/38/35 135/168/135 36/39/36
f 162/205/162 136/169/136 128/159/128
f 128/159/128 138/171/138 121/162/121
f 138/171/138 136/169/136 30/30/30
f 124/172/124 138/171/138 14/33/14
f 142/178/142 139/173/139 141/175/141
f 142/178/142 141/175/141 93/124/93
f 140/174/140 134/176/134 141/175/141
f 100/131/100 141/175/141 101/132/101
f 139/173/139 142/178/142 144/180/144
f 144/180/144 143/179/143 146/182/146
f 142/178/142 93/124/93 143/179/143
f 143/179/143 92/123/92 145/181/145
f 139/173/139 144/180/144 148/184/148
f 148/184/148 147/183/147 50/55/50
f 147/183/147 144/180/144 149/185/149
f 55/63/55 147/183/147 56/64/56
f 140/174/140 139/173/139 150/186/150
f 140/174/140 150/186/150 134/176/134
f 148/184/148 50/55/50 150/186/150
f 150/186/150 49/54/49 137/187/137
f 154/193/154 151/188/151 153/190/153
f 94/125/94 153/190/153 95/126/95
f 151/188/151 146/191/146 152/189/152
f 152/189/152 145/192/145 95/126/95
f 156/197/156 154/193/154 155/194/155
f 156/197/156 155/194/155 116/196/116
f 153/190/153 94/125/94 155/194/155
f 155/194/155 109/140/109 117/195/117
f 158/200/158 154/193/154 157/198/157
f 158/200/158 157/198/157 70/80/70
f 156/197/156 116/196/116 157/198/157
f 73/88/73 157/198/157 8/89/8
f 151/188/151 154/193/154 159/201/159
f 151/188/151 159/201/159 146/191/146
f 158/200/158 70/80/70 159/201/159
f 159/201/159 69/79/69 149/202/149
