# Blender v2.78 (sub 0) OBJ File: 'Car.blend'
# www.blender.org
o Plane.002
v -0.003696 0.569589 -1.456856
v -0.003696 0.476645 -0.459422
v -0.110734 0.960157 -0.370148
v -0.110734 1.154200 -1.367581
v -0.035216 0.307827 -0.052845
v -0.003696 0.609774 -0.898623
v -0.003696 -0.037758 -0.548697
v -0.003696 -0.040388 -1.546130
v -0.138314 0.664724 -0.030169
v -0.110734 1.200979 -0.764711
v -0.035216 -0.079962 -0.075164
v -0.003696 -0.010942 -1.032534
v -0.003696 -0.021119 -1.543310
v -0.003696 -0.021509 -0.545877
v -0.035216 -0.067713 -0.074459
v -0.003696 0.008665 -1.028304
v -0.067919 0.920356 -1.403291
v -0.067919 0.766752 -0.405858
v -0.097075 0.521965 -0.039239
v -0.067919 0.964497 -0.818276
v -0.103830 0.561708 -1.456276
v -0.103553 0.466434 -0.468025
v -0.208212 0.941409 -0.384707
v -0.209061 1.136035 -1.366193
v -0.135099 0.299611 -0.064825
v -0.103651 0.599568 -0.900073
v -0.103703 -0.037376 -0.551784
v -0.103696 -0.040388 -1.546130
v -0.233321 0.644087 -0.053574
v -0.209188 1.183071 -0.768740
v -0.134996 -0.079151 -0.081744
v -0.103696 -0.010942 -1.032534
v -0.103696 -0.021119 -1.543310
v -0.103696 -0.021090 -0.549257
v -0.134984 -0.066877 -0.081219
v -0.103696 0.008665 -1.028304
v -0.166247 0.902197 -1.401930
v -0.165084 0.747262 -0.420830
v -0.192664 0.500799 -0.059767
v -0.166338 0.946488 -0.821826
vt 0.9989 0.0133
vt 0.6532 0.0450
vt 0.9999 0.0001
vt 0.9366 0.8254
vt 0.5550 0.7195
vt 0.9496 0.6625
vt 0.3229 0.0619
vt 0.0001 0.0462
vt 0.3240 0.0507
vt 0.6513 0.0585
vt 0.2498 0.7422
vt 0.2656 0.6063
vt 0.0001 0.5637
vt 0.0020 0.4625
vt 0.5927 0.4717
vt 0.2895 0.4030
vt 0.0047 0.3104
vt 0.9689 0.4180
vt 0.9989 0.0133
vt 0.6532 0.0450
vt 0.6513 0.0585
vt 0.5550 0.7195
vt 0.9366 0.8254
vt 0.9496 0.6625
vt 0.3229 0.0619
vt 0.0001 0.0462
vt 0.0002 0.0545
vt 0.3240 0.0507
vt 0.2498 0.7422
vt 0.2656 0.6063
vt 0.0001 0.5637
vt 0.5927 0.4717
vt 0.2895 0.4030
vt 0.0047 0.3104
vt 0.9689 0.4180
vt 0.0020 0.4625
vt 0.5298 0.8850
vt 0.5298 0.8850
vt 0.0002 0.0545
vt 0.9999 0.0001
vn 0.7068 0.1033 -0.6998
vn 0.7199 -0.6940 0.0008
vn 0.5674 -0.5560 -0.6073
vn 0.4653 0.6871 -0.5580
vn 0.9842 0.1730 0.0369
vn 0.6672 0.2321 -0.7078
vn 0.9994 -0.0050 0.0337
vn 0.5356 -0.6223 0.5708
vn 0.7161 -0.6973 -0.0281
vn 1.0000 0.0000 0.0000
vn 0.5178 0.6882 0.5081
vn 0.9710 0.1874 0.1484
vn 0.3393 0.4079 0.8476
vn 0.5424 0.0996 0.8341
vn 0.9948 0.1006 0.0147
vn 0.9911 0.1028 0.0846
vn 0.6565 0.0242 0.7539
vn 0.7118 0.1577 -0.6845
vn -0.7067 0.1034 -0.6999
vn -0.7199 -0.6940 0.0008
vn -1.0000 0.0000 0.0000
vn -0.9842 -0.1730 -0.0370
vn -0.6953 0.4724 -0.5416
vn -0.7248 -0.0250 -0.6885
vn -0.9994 0.0048 -0.0337
vn -0.6133 -0.6117 0.4997
vn -0.7531 -0.0285 0.6573
vn -0.7046 -0.7058 -0.0731
vn -0.8330 0.4487 0.3234
vn -0.9710 -0.1876 -0.1483
vn -0.8278 0.1250 0.5470
vn -0.9948 -0.1003 -0.0147
vn -0.9911 -0.1024 -0.0852
vn -0.7507 -0.1218 0.6493
vn -0.6958 0.0529 -0.7162
vn -0.8073 -0.2395 0.5393
vn -0.7600 0.6317 0.1527
vn 0.5123 0.8352 0.1996
vn 0.6568 -0.0392 0.7530
vn -0.5674 -0.5560 -0.6073
s 1
f 13/1/1 12/2/2 8/3/3
f 4/4/4 20/5/5 17/6/6
f 14/7/7 11/8/8 7/9/9
f 7/9/9 16/10/10 14/7/7
f 20/5/5 3/11/11 18/12/12
f 18/12/12 9/13/13 19/14/14
f 14/7/7 6/15/15 2/16/16
f 5/17/17 14/7/7 2/16/16
f 1/18/18 16/10/10 13/1/1
f 2/16/16 19/14/14 5/17/17
f 6/15/15 18/12/12 2/16/16
f 17/6/6 6/15/15 1/18/18
f 33/19/19 32/20/20 36/21/21
f 40/22/22 24/23/23 37/24/24
f 34/25/25 31/26/26 35/27/27
f 36/21/21 27/28/28 34/25/25
f 23/29/29 40/22/22 38/30/30
f 38/30/30 29/31/31 23/29/29
f 26/32/32 34/25/25 22/33/33
f 34/25/25 25/34/34 22/33/33
f 21/35/35 36/21/21 26/32/32
f 22/33/33 39/36/36 38/30/30
f 38/30/30 26/32/32 22/33/33
f 26/32/32 37/24/24 21/35/35
f 8/3/3 33/19/19 13/1/1
f 4/4/4 37/24/24 24/23/23
f 9/13/13 23/29/29 29/31/31
f 3/11/11 30/37/37 23/29/29
f 4/4/4 30/37/37 10/38/38
f 15/39/39 25/34/34 35/27/27
f 9/13/13 39/36/36 19/14/14
f 12/2/2 27/28/28 32/20/20
f 11/8/8 27/28/28 7/9/9
f 12/2/2 28/40/40 8/3/3
f 13/1/1 21/35/35 1/18/18
f 15/39/39 31/26/26 11/8/8
f 17/6/6 21/35/35 37/24/24
f 19/14/14 25/34/34 5/17/17
f 13/1/1 16/10/10 12/2/2
f 4/4/4 10/38/38 20/5/5
f 14/7/7 15/39/39 11/8/8
f 7/9/9 12/2/2 16/10/10
f 20/5/5 10/38/38 3/11/11
f 18/12/12 3/11/11 9/13/13
f 14/7/7 16/10/10 6/15/15
f 5/17/17 15/39/39 14/7/7
f 1/18/18 6/15/15 16/10/10
f 2/16/16 18/12/12 19/14/14
f 6/15/15 20/5/5 18/12/12
f 17/6/6 20/5/5 6/15/15
f 33/19/19 28/40/40 32/20/20
f 40/22/22 30/37/37 24/23/23
f 34/25/25 27/28/28 31/26/26
f 36/21/21 32/20/20 27/28/28
f 23/29/29 30/37/37 40/22/22
f 38/30/30 39/36/36 29/31/31
f 26/32/32 36/21/21 34/25/25
f 34/25/25 35/27/27 25/34/34
f 21/35/35 33/19/19 36/21/21
f 22/33/33 25/34/34 39/36/36
f 38/30/30 40/22/22 26/32/32
f 26/32/32 40/22/22 37/24/24
f 8/3/3 28/40/40 33/19/19
f 4/4/4 17/6/6 37/24/24
f 9/13/13 3/11/11 23/29/29
f 3/11/11 10/38/38 30/37/37
f 4/4/4 24/23/23 30/37/37
f 15/39/39 5/17/17 25/34/34
f 9/13/13 29/31/31 39/36/36
f 12/2/2 7/9/9 27/28/28
f 11/8/8 31/26/26 27/28/28
f 12/2/2 32/20/20 28/40/40
f 13/1/1 33/19/19 21/35/35
f 15/39/39 35/27/27 31/26/26
f 17/6/6 1/18/18 21/35/35
f 19/14/14 39/36/36 25/34/34
