# Blender v2.78 (sub 0) OBJ File: 'Car.blend'
# www.blender.org
o Cylinder.003_Cylinder.004
v 0.482787 0.284829 -1.566408
v 0.963393 0.284829 -1.566408
v 0.482787 0.164678 -1.534213
v 0.963393 0.164678 -1.534213
v 0.482787 0.076721 -1.446257
v 0.963393 0.076721 -1.446257
v 0.482787 0.044526 -1.326105
v 0.963393 0.044526 -1.326105
v 0.482787 0.076721 -1.205954
v 0.963393 0.076721 -1.205954
v 0.482787 0.164678 -1.117997
v 0.963393 0.164678 -1.117997
v 0.482787 0.284829 -1.085803
v 0.963393 0.284829 -1.085803
v 0.482787 0.404980 -1.117997
v 0.963393 0.404980 -1.117997
v 0.482787 0.492937 -1.205954
v 0.963393 0.492937 -1.205954
v 0.482787 0.525132 -1.326105
v 0.963393 0.525132 -1.326105
v 0.482787 0.492937 -1.446256
v 0.963393 0.492937 -1.446256
v 0.482787 0.404980 -1.534213
v 0.963393 0.404980 -1.534213
vt 0.4510 0.5000
vt 0.5490 1.0000
vt 0.4510 1.0000
vt 0.5490 0.5000
vt 0.6340 1.0000
vt 0.6340 0.5000
vt 0.6830 1.0000
vt 0.6830 0.0000
vt 0.7321 0.5000
vt 0.6830 0.5000
vt 0.7321 0.0000
vt 0.8170 0.5000
vt 0.8170 0.0000
vt 0.9151 0.5000
vt 0.9151 0.0000
vt 1.0000 0.5000
vt 0.6830 0.5000
vt 0.6340 0.0000
vt 0.6830 0.0000
vt 0.6340 0.5000
vt 0.5490 0.0000
vt 0.5490 0.5000
vt 0.4510 0.0000
vt 0.0490 0.5477
vt 0.3660 0.6597
vt 0.1340 0.9659
vt 0.4510 0.5000
vt 0.3660 0.0000
vt 0.3660 0.5000
vt 0.3660 1.0000
vt 0.3660 0.3062
vt 0.0490 0.4183
vt 0.3170 0.0647
vt 0.6830 0.5000
vt 1.0000 0.0000
vt 0.0490 0.9012
vt 0.0000 0.7891
vt 0.0000 0.6597
vt 0.1340 0.4830
vt 0.2321 0.4830
vt 0.3170 0.5477
vt 0.3660 0.7891
vt 0.3170 0.9012
vt 0.2321 0.9659
vt 0.1340 0.0000
vt 0.2321 0.0000
vt 0.3660 0.1768
vt 0.3170 0.4183
vt 0.2321 0.4830
vt 0.1340 0.4830
vt 0.0000 0.3062
vt 0.0000 0.1768
vt 0.0490 0.0647
vn 0.6532 0.0000 -0.7571
vn -0.6532 -0.3786 -0.6557
vn -0.6532 0.0000 -0.7571
vn 0.6532 -0.3786 -0.6557
vn -0.6532 -0.6557 -0.3786
vn 0.6532 -0.6557 -0.3786
vn -0.6532 -0.7571 0.0000
vn 0.6532 -0.7571 0.0000
vn -0.6532 -0.6557 0.3786
vn 0.6532 -0.6557 0.3786
vn -0.6532 -0.3786 0.6557
vn 0.6532 -0.3786 0.6557
vn -0.6532 0.0000 0.7571
vn 0.6532 0.0000 0.7571
vn -0.6532 0.3786 0.6557
vn 0.6532 0.3786 0.6557
vn -0.6532 0.6557 0.3786
vn 0.6532 0.6557 0.3786
vn -0.6532 0.7571 0.0000
vn 0.6532 0.7571 0.0000
vn -0.6532 0.6557 -0.3786
vn 0.6532 0.6557 -0.3786
vn -0.6532 0.3786 -0.6557
vn 0.6532 0.3786 -0.6557
s 1
f 2/1/1 3/2/2 1/3/3
f 4/4/4 5/5/5 3/2/2
f 6/6/6 7/7/7 5/5/5
f 8/8/8 9/9/9 7/10/7
f 10/11/10 11/12/11 9/9/9
f 12/13/12 13/14/13 11/12/11
f 14/15/14 15/16/15 13/14/13
f 16/17/16 17/18/17 15/19/15
f 18/20/18 19/21/19 17/18/17
f 20/22/20 21/23/21 19/21/19
f 22/24/22 14/25/14 6/26/6
f 22/27/22 23/28/23 21/23/21
f 24/29/24 1/3/3 23/30/23
f 7/31/7 15/32/15 3/33/2
f 2/1/1 4/4/4 3/2/2
f 4/4/4 6/6/6 5/5/5
f 6/6/6 8/34/8 7/7/7
f 8/8/8 10/11/10 9/9/9
f 10/11/10 12/13/12 11/12/11
f 12/13/12 14/15/14 13/14/13
f 14/15/14 16/35/16 15/16/15
f 16/17/16 18/20/18 17/18/17
f 18/20/18 20/22/20 19/21/19
f 20/22/20 22/27/22 21/23/21
f 6/26/6 4/36/4 22/24/22
f 2/37/1 24/38/24 22/24/22
f 22/24/22 20/39/20 18/40/18
f 18/40/18 16/41/16 14/25/14
f 14/25/14 12/42/12 6/26/6
f 10/43/10 8/44/8 6/26/6
f 4/36/4 2/37/1 22/24/22
f 22/24/22 18/40/18 14/25/14
f 12/42/12 10/43/10 6/26/6
f 22/27/22 24/29/24 23/28/23
f 24/29/24 2/1/1 1/3/3
f 23/45/23 1/46/3 3/33/2
f 3/33/2 5/47/5 7/31/7
f 7/31/7 9/48/9 11/49/11
f 11/49/11 13/50/13 15/32/15
f 15/32/15 17/51/17 19/52/19
f 19/52/19 21/53/21 23/45/23
f 23/45/23 3/33/2 15/32/15
f 7/31/7 11/49/11 15/32/15
f 15/32/15 19/52/19 23/45/23
