# Blender v2.78 (sub 0) OBJ File: ''
# www.blender.org
o Cube
v 4.000000 0.000000 0.000000
v 4.000000 0.000000 4.000000
v 0.000000 0.000000 4.000000
v 0.000001 0.000000 -0.000001
v 3.949510 1.000000 0.050492
v 3.949508 1.000000 3.949510
v 0.050490 1.000000 3.949508
v 0.050491 1.000000 0.050491
v 4.000001 1.000000 0.000001
v 3.999999 1.000000 4.000001
v 0.000000 1.000000 0.000000
v -0.000000 1.000000 3.999999
v 3.949510 0.060828 0.050492
v 3.949508 0.060828 3.949510
v 0.050491 0.060828 0.050491
v 0.050490 0.060828 3.949508
vt 0.4696 0.2330
vt 0.0010 -0.2355
vt 0.0010 0.2330
vt -0.1104 0.9402
vt 0.0010 0.4716
vt -0.1104 0.4716
vt 0.5895 0.4716
vt 0.7081 0.9402
vt 0.7081 0.4716
vt 0.4696 1.0601
vt 0.0010 1.1787
vt 0.4696 1.1787
vt -0.1189 0.9402
vt -0.2375 0.4716
vt -0.2375 0.9402
vt 0.0010 0.3517
vt 0.4696 0.3517
vt 0.5810 0.9402
vt 0.5810 0.4716
vt 0.4696 0.3602
vt 0.0010 0.3602
vt 0.0010 1.0516
vt 0.4696 1.0516
vt 0.4696 0.9402
vt 0.4696 0.4716
vt 0.0010 0.9402
vt 0.4696 -0.2355
vt 0.5895 0.9402
vt 0.0010 1.0601
vt -0.1189 0.4716
vn 0.0000 -1.0000 0.0000
vn 1.0000 0.0000 0.0000
vn -0.0000 -0.0000 1.0000
vn -1.0000 -0.0000 -0.0000
vn 0.0000 0.0000 -1.0000
vn 0.0000 1.0000 0.0000
s off
f 1/1/1 3/2/1 4/3/1
f 7/4/2 15/5/2 8/6/2
f 9/7/2 2/8/2 1/9/2
f 10/10/3 3/11/3 2/12/3
f 12/13/4 4/14/4 3/15/4
f 1/1/5 11/16/5 9/17/5
f 6/18/6 9/7/6 5/19/6
f 5/20/6 11/16/6 8/21/6
f 7/22/6 10/10/6 6/23/6
f 8/6/6 12/13/6 7/4/6
f 15/5/6 14/24/6 13/25/6
f 8/21/3 13/25/3 5/20/3
f 6/23/5 16/26/5 7/22/5
f 5/19/4 14/24/4 6/18/4
f 1/1/1 2/27/1 3/2/1
f 7/4/2 16/26/2 15/5/2
f 9/7/2 10/28/2 2/8/2
f 10/10/3 12/29/3 3/11/3
f 12/13/4 11/30/4 4/14/4
f 1/1/5 4/3/5 11/16/5
f 6/18/6 10/28/6 9/7/6
f 5/20/6 9/17/6 11/16/6
f 7/22/6 12/29/6 10/10/6
f 8/6/6 11/30/6 12/13/6
f 15/5/6 16/26/6 14/24/6
f 8/21/3 15/5/3 13/25/3
f 6/23/5 14/24/5 16/26/5
f 5/19/4 13/25/4 14/24/4
