# Blender v2.78 (sub 0) OBJ File: 'ReactorBuilding.blend'
# www.blender.org
o Cube.002
v 0.656157 -0.000918 1.673571
v 0.656157 0.100457 1.673571
v 0.656157 -0.000918 1.150843
v 0.656157 0.100457 1.150843
v 1.371946 -0.000918 1.673571
v 1.371946 0.100457 1.673571
v 1.371946 -0.000918 1.150843
v 1.371946 0.100457 1.150843
v 0.667928 0.000749 1.159440
v 0.667928 0.000749 1.664974
v 0.667928 0.098789 1.664974
v 0.667928 0.098789 1.159440
v 1.360175 0.000749 1.159440
v 1.360175 0.098789 1.159440
v 1.360175 0.000749 1.664974
v 1.360175 0.098789 1.664974
vt 0.7788 0.5546
vt 0.8879 0.1121
vt 0.8879 0.5546
vt 0.4454 0.5566
vt 0.8879 0.6657
vt 0.4454 0.6657
vt 0.4454 0.5546
vt 0.5546 0.1121
vt 0.5546 0.5546
vt 0.4454 0.0010
vt 0.8879 0.1101
vt 0.4454 0.1101
vt 0.4434 0.4434
vt 0.0010 0.0010
vt 0.4434 0.0010
vt 0.6657 0.5546
vt 0.5566 0.1121
vt 0.6657 0.1121
vt 0.4454 0.7768
vt 0.8879 0.6677
vt 0.8879 0.7768
vt 0.7768 0.5546
vt 0.6677 0.1121
vt 0.7768 0.1121
vt 0.4454 0.8879
vt 0.8879 0.7788
vt 0.8879 0.8879
vt 0.4434 0.8879
vt 0.0010 0.4454
vt 0.4434 0.4454
vt 0.8899 0.4434
vt 0.9990 0.0010
vt 0.9990 0.4434
vt 0.0010 0.8899
vt 0.4434 0.9990
vt 0.0010 0.9990
vt 0.8899 0.8879
vt 0.9990 0.4454
vt 0.9990 0.8879
vt 0.4454 0.8899
vt 0.8879 0.9990
vt 0.4454 0.9990
vt 0.7788 0.1121
vt 0.8879 0.5566
vt 0.4454 0.1121
vt 0.8879 0.0010
vt 0.0010 0.4434
vt 0.5566 0.5546
vt 0.4454 0.6677
vt 0.6677 0.5546
vt 0.4454 0.7788
vt 0.0010 0.8879
vt 0.8899 0.0010
vt 0.4434 0.8899
vt 0.8899 0.4454
vt 0.8879 0.8899
vn -1.0000 0.0000 0.0000
vn 0.0000 0.0000 -1.0000
vn 1.0000 0.0000 0.0000
vn 0.0000 0.0000 1.0000
vn 0.0000 -1.0000 0.0000
vn 0.0000 1.0000 0.0000
vn 0.1402 0.9901 0.0000
vn 0.0000 0.9817 -0.1904
vn 0.0000 0.9817 0.1904
vn -0.1402 0.9901 0.0000
s off
f 2/1/1 3/2/1 1/3/1
f 4/4/2 7/5/2 3/6/2
f 8/7/3 5/8/3 7/9/3
f 6/10/4 1/11/4 5/12/4
f 7/13/5 1/14/5 3/15/5
f 9/16/3 11/17/3 10/18/3
f 13/19/4 12/20/4 9/21/4
f 15/22/1 14/23/1 13/24/1
f 10/25/2 16/26/2 15/27/2
f 10/28/6 13/29/6 9/30/6
f 11/31/7 4/32/7 2/33/7
f 16/34/8 2/35/8 6/36/8
f 12/37/9 8/38/9 4/39/9
f 14/40/10 6/41/10 8/42/10
f 2/1/1 4/43/1 3/2/1
f 4/4/2 8/44/2 7/5/2
f 8/7/3 6/45/3 5/8/3
f 6/10/4 2/46/4 1/11/4
f 7/13/5 5/47/5 1/14/5
f 9/16/3 12/48/3 11/17/3
f 13/19/4 14/49/4 12/20/4
f 15/22/1 16/50/1 14/23/1
f 10/25/2 11/51/2 16/26/2
f 10/28/6 15/52/6 13/29/6
f 11/31/7 12/53/7 4/32/7
f 16/34/8 11/54/8 2/35/8
f 12/37/9 14/55/9 8/38/9
f 14/40/10 16/56/10 6/41/10
