# Blender v2.78 (sub 0) OBJ File: 'ReactorBuilding.blend'
# www.blender.org
o NurbsPath.005_Mesh.001
v 1.552479 0.156729 2.076768
v 1.549377 0.177391 2.067656
v 1.548745 0.185730 2.046450
v 1.550954 0.176855 2.025571
v 1.554711 0.155970 2.017246
v 1.557813 0.135307 2.026359
v 1.558445 0.126968 2.047564
v 1.556235 0.135844 2.068443
v 1.385970 0.130036 2.065164
v 1.383862 0.150857 2.056128
v 1.385039 0.159484 2.035062
v 1.388813 0.150857 2.014303
v 1.392972 0.130036 2.006009
v 1.395079 0.109215 2.015044
v 1.393902 0.100589 2.036111
v 1.390128 0.109215 2.056870
v 1.254775 0.111054 2.043109
v 1.254244 0.132099 2.034366
v 1.258288 0.141132 2.013832
v 1.264538 0.132857 1.993533
v 1.269334 0.112126 1.985358
v 1.269865 0.091082 1.994100
v 1.265822 0.082048 2.014634
v 1.259571 0.090324 2.034933
v 1.157363 0.099740 2.009215
v 1.159629 0.121091 2.001560
v 1.168758 0.130682 1.983006
v 1.179404 0.122888 1.964417
v 1.185331 0.102282 1.956682
v 1.183065 0.080930 1.964336
v 1.173936 0.071340 1.982891
v 1.163290 0.079133 2.001479
v 1.095882 0.096482 1.962299
v 1.100684 0.118018 1.956576
v 1.115245 0.128004 1.942159
v 1.131038 0.120586 1.927492
v 1.138813 0.100113 1.921164
v 1.134012 0.078578 1.926887
v 1.119451 0.068591 1.941304
v 1.103657 0.076010 1.955971
v 1.055248 0.093801 1.904078
v 1.060411 0.115370 1.898817
v 1.077183 0.125566 1.887225
v 1.095741 0.118408 1.876091
v 1.105217 0.098097 1.871937
v 1.100054 0.076527 1.877198
v 1.083282 0.066331 1.888789
v 1.064724 0.073489 1.899923
v 1.014296 0.084113 1.833751
v 1.018934 0.105567 1.827601
v 1.036013 0.115830 1.816531
v 1.055532 0.108885 1.807024
v 1.066058 0.088806 1.804648
v 1.061419 0.067352 1.810798
v 1.044340 0.057089 1.821868
v 1.024821 0.064034 1.831375
v 0.970739 0.067274 1.748778
v 0.975050 0.088605 1.741995
v 0.992322 0.098940 1.731297
v 1.012440 0.092220 1.722949
v 1.023621 0.072387 1.721840
v 1.019310 0.051056 1.728622
v 1.002039 0.040720 1.739321
v 0.981920 0.047441 1.747669
v 0.924418 0.043309 1.648981
v 0.928504 0.064525 1.641716
v 0.945908 0.074928 1.631301
v 0.966438 0.068418 1.623834
v 0.978068 0.048814 1.623689
v 0.973982 0.027598 1.630953
v 0.956578 0.017195 1.641369
v 0.936049 0.023705 1.648836
vt 0.7922 0.9752
vt 0.7730 0.7587
vt 0.8285 0.9689
vt 0.7102 0.7648
vt 0.7654 0.9742
vt 0.1794 0.2023
vt 0.2751 0.0000
vt 0.3072 0.0145
vt 0.2037 0.2154
vt 0.3302 0.0294
vt 0.9240 0.2112
vt 0.9369 0.0000
vt 0.9732 0.0058
vt 1.0000 0.0044
vt 0.6143 0.9757
vt 0.5153 0.7757
vt 0.6460 0.9607
vt 0.5915 0.9908
vt 0.4821 0.7886
vt 0.7366 0.7645
vt 0.7330 0.5883
vt 0.6704 0.5956
vt 0.0977 0.3564
vt 0.1459 0.1899
vt 0.1235 0.3665
vt 0.8898 0.3731
vt 0.8875 0.2060
vt 0.9505 0.2112
vt 0.4315 0.6246
vt 0.4581 0.8020
vt 0.3964 0.6339
vt 0.6964 0.5933
vt 0.7082 0.4556
vt 0.6460 0.4653
vt 0.0620 0.4764
vt 0.0624 0.3475
vt 0.0892 0.4804
vt 0.8707 0.4890
vt 0.8531 0.3687
vt 0.9158 0.3751
vt 0.3943 0.5088
vt 0.3708 0.6443
vt 0.3574 0.5112
vt 0.6713 0.4590
vt 0.6998 0.3633
vt 0.0250 0.4745
vt 0.0111 0.5762
vt 0.0000 0.4757
vt 0.0357 0.5708
vt 0.0982 0.5594
vt 0.8655 0.5610
vt 0.8338 0.4861
vt 0.4018 0.4285
vt 0.4194 0.5097
vt 0.3656 0.4220
vt 0.3302 0.5156
vt 0.6715 0.2883
vt 0.6628 0.3638
vt 0.0532 0.6628
vt 0.0718 0.5639
vt 0.0775 0.6567
vt 0.1118 0.6453
vt 0.8378 0.6268
vt 0.8285 0.5610
vt 0.4370 0.3550
vt 0.4265 0.4336
vt 0.4025 0.3440
vt 0.3781 0.3343
vt 0.3391 0.4179
vt 0.6962 0.2044
vt 0.7083 0.2908
vt 0.1312 0.7552
vt 0.1359 0.6352
vt 0.1651 0.7430
vt 0.8745 0.6237
vt 0.8640 0.7087
vt 0.5103 0.2671
vt 0.4614 0.3608
vt 0.4511 0.2508
vt 0.4280 0.2388
vt 0.7368 0.1084
vt 0.7323 0.2091
vt 0.1972 0.8683
vt 0.1063 0.7601
vt 0.1880 0.7307
vt 0.2308 0.8557
vt 0.9000 0.7035
vt 0.9064 0.8029
vt 0.4852 0.2625
vt 0.5719 0.1568
vt 0.5125 0.1409
vt 0.4902 0.1274
vt 0.7934 0.0000
vt 0.7724 0.1145
vt 0.2755 0.9966
vt 0.1718 0.8724
vt 0.2528 0.8419
vt 0.3089 0.9836
vt 0.9418 0.7963
vt 0.9652 0.9097
vt 0.5464 0.1531
vt 0.6460 0.0303
vt 0.5866 0.0147
vt 0.5649 0.0000
vt 0.8962 0.4949
vt 0.8285 0.0071
vt 0.2497 1.0000
vt 0.3302 0.9686
vt 1.0000 0.9020
vt 0.6202 0.0272
vn -0.0704 0.0058 0.9975
vn 0.0206 -0.6944 0.7192
vn 0.0602 -0.6895 0.7218
vn -0.1882 0.6923 0.6966
vn -0.1605 0.6985 0.6973
vn -0.1502 0.9886 -0.0060
vn -0.1576 0.9874 -0.0103
vn -0.0236 0.7038 -0.7099
vn -0.0619 0.6962 -0.7152
vn 0.1175 -0.0021 -0.9930
vn 0.0707 -0.0087 -0.9974
vn 0.1613 -0.7079 -0.6876
vn 0.1564 -0.9873 0.0266
vn 0.1884 -0.7059 -0.6828
vn 0.1473 -0.9886 0.0291
vn -0.1175 -0.0020 0.9931
vn -0.0873 -0.7061 0.7027
vn -0.2641 0.6766 0.6873
vn -0.1316 0.9913 0.0058
vn 0.0790 0.7220 -0.6873
vn 0.2431 0.0142 -0.9699
vn 0.2600 -0.7006 -0.6645
vn 0.1213 -0.9921 0.0327
vn -0.2452 -0.0217 0.9692
vn -0.2795 -0.7200 0.6351
vn -0.4027 0.6511 0.6434
vn -0.1058 0.9937 0.0371
vn 0.2611 0.7507 -0.6069
vn 0.4693 0.0348 -0.8824
vn 0.3836 -0.6987 -0.6038
vn 0.0685 -0.9971 0.0319
vn -0.4700 -0.0490 0.8813
vn -0.4727 -0.7304 0.4930
vn -0.7191 -0.0591 0.6924
vn -0.5697 0.6440 0.5106
vn 0.4434 0.7678 -0.4623
vn 0.7221 0.0635 -0.6888
vn 0.5470 -0.6823 -0.4849
vn 0.0432 -0.9990 0.0127
vn -0.8388 -0.0613 0.5409
vn -0.0978 0.9944 0.0405
vn -0.6644 0.6529 0.3636
vn -0.1090 0.9938 -0.0214
vn 0.5131 0.7627 -0.3937
vn 0.6675 -0.6503 -0.3625
vn 0.0951 -0.9950 0.0308
vn -0.5298 -0.7447 0.4058
vn -0.8699 -0.0716 0.4880
vn -0.7127 0.6424 0.2818
vn -0.1448 0.9857 -0.0866
vn 0.8393 0.0834 -0.5373
vn 0.5090 0.7589 -0.4061
vn 0.8679 0.0860 -0.4891
vn 0.1347 -0.9865 0.0926
vn -0.5222 -0.7470 0.4115
vn -0.8886 -0.0807 0.4515
vn -0.7427 0.6309 0.2243
vn -0.1668 0.9770 -0.1328
vn 0.5074 0.7560 -0.4135
vn 0.7139 -0.6408 -0.2823
vn 0.8869 0.0910 -0.4529
vn 0.1593 -0.9777 0.1367
vn -0.5173 -0.7476 0.4165
vn -0.8958 -0.0851 0.4362
vn -0.7543 0.6253 0.2000
vn -0.1753 0.9727 -0.1522
vn 0.5071 0.7545 -0.4165
vn 0.7435 -0.6298 -0.2247
vn 0.8943 0.0933 -0.4375
vn 0.1693 -0.9733 0.1552
vn -0.5152 -0.7479 0.4187
vn 0.7549 -0.6244 -0.2004
s 1
f 1/1/1 16/2/2 8/3/3
f 10/4/4 1/1/1 2/5/5
f 11/6/6 2/7/5 3/8/7
f 12/9/8 3/8/7 4/10/9
f 13/11/10 4/12/9 5/13/11
f 6/14/12 13/11/10 5/13/11
f 7/15/13 14/16/14 6/17/12
f 8/18/3 15/19/15 7/15/13
f 9/20/16 24/21/17 16/2/2
f 18/22/18 9/20/16 10/4/4
f 19/23/19 10/24/4 11/6/6
f 20/25/20 11/6/6 12/9/8
f 21/26/21 12/27/8 13/11/10
f 14/28/14 21/26/21 13/11/10
f 15/19/15 22/29/22 14/16/14
f 16/30/2 23/31/23 15/19/15
f 17/32/24 32/33/25 24/21/17
f 26/34/26 17/32/24 18/22/18
f 27/35/27 18/36/18 19/23/19
f 28/37/28 19/23/19 20/25/20
f 29/38/29 20/39/20 21/26/21
f 22/40/22 29/38/29 21/26/21
f 23/31/23 30/41/30 22/29/22
f 24/42/17 31/43/31 23/31/23
f 25/44/32 40/45/33 32/33/25
f 26/46/26 33/47/34 25/48/32
f 27/35/27 34/49/35 26/46/26
f 36/50/36 27/35/27 28/37/28
f 37/51/37 28/52/28 29/38/29
f 38/53/38 29/54/29 30/41/30
f 39/55/39 30/41/30 31/43/31
f 32/56/25 39/55/39 31/43/31
f 41/57/40 40/45/33 33/58/34
f 34/49/35 41/59/40 33/47/34
f 35/60/41 42/61/42 34/49/35
f 36/50/36 43/62/43 35/60/41
f 37/51/37 44/63/44 36/64/36
f 46/65/45 37/66/37 38/53/38
f 47/67/46 38/53/38 39/55/39
f 48/68/47 39/55/39 40/69/33
f 49/70/48 48/71/47 41/57/40
f 50/72/49 41/59/40 42/61/42
f 43/62/43 50/72/49 42/61/42
f 44/73/44 51/74/50 43/62/43
f 45/75/51 52/76/52 44/63/44
f 46/65/45 53/77/53 45/78/51
f 55/79/54 46/65/45 47/67/46
f 56/80/55 47/67/46 48/68/47
f 57/81/56 56/82/55 49/70/48
f 58/83/57 49/84/48 50/72/49
f 51/74/50 58/83/57 50/72/49
f 52/85/52 59/86/58 51/74/50
f 53/87/53 60/88/59 52/76/52
f 54/89/60 61/90/61 53/77/53
f 63/91/62 54/89/60 55/79/54
f 64/92/63 55/79/54 56/80/55
f 65/93/64 64/94/63 57/81/56
f 66/95/65 57/96/56 58/83/57
f 59/86/58 66/95/65 58/83/57
f 60/97/59 67/98/66 59/86/58
f 61/99/61 68/100/67 60/88/59
f 62/101/68 69/102/69 61/90/61
f 71/103/70 62/101/68 63/91/62
f 72/104/71 63/91/62 64/92/63
f 1/1/1 9/20/16 16/2/2
f 10/4/4 9/20/16 1/1/1
f 11/6/6 10/24/4 2/7/5
f 12/9/8 11/6/6 3/8/7
f 13/11/10 12/27/8 4/12/9
f 6/14/12 14/28/14 13/11/10
f 7/15/13 15/19/15 14/16/14
f 8/18/3 16/30/2 15/19/15
f 9/20/16 17/32/24 24/21/17
f 18/22/18 17/32/24 9/20/16
f 19/23/19 18/36/18 10/24/4
f 20/25/20 19/23/19 11/6/6
f 21/26/21 20/39/20 12/27/8
f 14/28/14 22/40/22 21/26/21
f 15/19/15 23/31/23 22/29/22
f 16/30/2 24/42/17 23/31/23
f 17/32/24 25/44/32 32/33/25
f 26/34/26 25/44/32 17/32/24
f 27/35/27 26/46/26 18/36/18
f 28/37/28 27/35/27 19/23/19
f 29/38/29 28/52/28 20/39/20
f 22/40/22 30/105/30 29/38/29
f 23/31/23 31/43/31 30/41/30
f 24/42/17 32/56/25 31/43/31
f 25/44/32 33/58/34 40/45/33
f 26/46/26 34/49/35 33/47/34
f 27/35/27 35/60/41 34/49/35
f 36/50/36 35/60/41 27/35/27
f 37/51/37 36/64/36 28/52/28
f 38/53/38 37/66/37 29/54/29
f 39/55/39 38/53/38 30/41/30
f 32/56/25 40/69/33 39/55/39
f 41/57/40 48/71/47 40/45/33
f 34/49/35 42/61/42 41/59/40
f 35/60/41 43/62/43 42/61/42
f 36/50/36 44/73/44 43/62/43
f 37/51/37 45/75/51 44/63/44
f 46/65/45 45/78/51 37/66/37
f 47/67/46 46/65/45 38/53/38
f 48/68/47 47/67/46 39/55/39
f 49/70/48 56/82/55 48/71/47
f 50/72/49 49/84/48 41/59/40
f 43/62/43 51/74/50 50/72/49
f 44/73/44 52/85/52 51/74/50
f 45/75/51 53/87/53 52/76/52
f 46/65/45 54/89/60 53/77/53
f 55/79/54 54/89/60 46/65/45
f 56/80/55 55/79/54 47/67/46
f 57/81/56 64/94/63 56/82/55
f 58/83/57 57/96/56 49/84/48
f 51/74/50 59/86/58 58/83/57
f 52/85/52 60/97/59 59/86/58
f 53/87/53 61/99/61 60/88/59
f 54/89/60 62/101/68 61/90/61
f 63/91/62 62/101/68 54/89/60
f 64/92/63 63/91/62 55/79/54
f 65/93/64 72/106/71 64/94/63
f 66/95/65 65/107/64 57/96/56
f 59/86/58 67/98/66 66/95/65
f 60/97/59 68/108/67 67/98/66
f 61/99/61 69/109/69 68/100/67
f 62/101/68 70/110/72 69/102/69
f 71/103/70 70/110/72 62/101/68
f 72/104/71 71/103/70 63/91/62
