# Blender v2.78 (sub 0) OBJ File: 'ReactorBuilding.blend'
# www.blender.org
o NurbsPath.001_Mesh
v 0.075098 0.127496 4.769286
v 0.083821 0.148555 4.769184
v 0.104877 0.157283 4.768938
v 0.125935 0.148559 4.768692
v 0.134662 0.127501 4.768589
v 0.125939 0.106442 4.768692
v 0.104883 0.097715 4.768938
v 0.083825 0.106438 4.769184
v 0.107558 0.127684 4.277849
v 0.116166 0.148742 4.279276
v 0.136949 0.157468 4.282674
v 0.157734 0.148742 4.286055
v 0.166349 0.127684 4.287436
v 0.157742 0.106625 4.286010
v 0.136959 0.097900 4.282611
v 0.116173 0.106625 4.279231
v 0.207907 0.128381 3.896994
v 0.216007 0.149435 3.900268
v 0.235593 0.158150 3.908016
v 0.255195 0.149414 3.915700
v 0.263332 0.128351 3.918820
v 0.255232 0.107297 3.915547
v 0.235646 0.098582 3.907799
v 0.216044 0.107318 3.900115
v 0.361211 0.130203 3.611654
v 0.368195 0.151240 3.616968
v 0.385227 0.159917 3.629387
v 0.402332 0.151145 3.641637
v 0.409492 0.130067 3.646544
v 0.402508 0.109030 3.641230
v 0.385476 0.100353 3.628812
v 0.368371 0.109125 3.616561
v 0.552083 0.134322 3.410362
v 0.557220 0.155313 3.417613
v 0.570229 0.163889 3.434251
v 0.583489 0.155020 3.450532
v 0.589236 0.133907 3.456922
v 0.584098 0.112916 3.449672
v 0.571090 0.104340 3.433034
v 0.557829 0.113209 3.416752
v 0.764637 0.142472 3.284526
v 0.767180 0.163352 3.293309
v 0.774938 0.171703 3.313049
v 0.783368 0.162627 3.332184
v 0.787533 0.141447 3.339508
v 0.784991 0.120567 3.330725
v 0.777232 0.112215 3.310985
v 0.768802 0.121291 3.291850
v 0.983002 0.156962 3.228166
v 0.982171 0.177600 3.237808
v 0.983704 0.185504 3.259133
v 0.986703 0.176039 3.279652
v 0.989411 0.154754 3.287347
v 0.990241 0.134115 3.277704
v 0.988708 0.126211 3.256379
v 0.985709 0.135677 3.235861
v 1.191515 0.180313 3.237410
v 1.186666 0.200482 3.246860
v 1.181356 0.207587 3.267858
v 1.178697 0.197460 3.288105
v 1.180245 0.176040 3.295745
v 1.185094 0.155871 3.286295
v 1.190404 0.148766 3.265297
v 1.193063 0.158892 3.245049
v 1.375400 0.213559 3.306472
v 1.366444 0.232972 3.314377
v 1.354504 0.238859 3.332881
v 1.346575 0.227763 3.351146
v 1.347298 0.206191 3.358475
v 1.356254 0.186777 3.350569
v 1.368194 0.180891 3.332066
v 1.376124 0.191986 3.313801
v 1.521691 0.255393 3.425389
v 1.509266 0.273812 3.430482
v 1.491868 0.278135 3.444562
v 1.479690 0.265821 3.459383
v 1.479860 0.244091 3.466264
v 1.492285 0.225671 3.461171
v 1.509682 0.221349 3.447091
v 1.521861 0.233662 3.432270
v 1.619841 0.302246 3.580301
v 1.605057 0.319542 3.581664
v 1.583946 0.322097 3.589874
v 1.568875 0.308406 3.600124
v 1.568669 0.286496 3.606409
v 1.583453 0.269200 3.605046
v 1.604564 0.266646 3.596836
v 1.619635 0.280336 3.586586
v 1.661500 0.348412 3.754138
v 1.645699 0.364556 3.751096
v 1.622940 0.365244 3.752162
v 1.606554 0.350065 3.756713
v 1.606136 0.327916 3.762084
v 1.621938 0.311771 3.765126
v 1.644697 0.311084 3.764060
v 1.661083 0.326262 3.759509
v 1.639488 0.385883 3.926678
v 1.624393 0.401009 3.918745
v 1.602852 0.399937 3.911366
v 1.587485 0.383288 3.908862
v 1.587288 0.360820 3.912700
v 1.602384 0.345694 3.920632
v 1.623924 0.346766 3.928012
v 1.639292 0.363415 3.930515
v 1.547307 0.404599 4.078580
v 1.534625 0.419255 4.066581
v 1.517678 0.417289 4.051464
v 1.506393 0.399846 4.042085
v 1.507377 0.377147 4.043934
v 1.520058 0.362491 4.055933
v 1.537005 0.364458 4.071051
v 1.548290 0.381901 4.080430
v 1.380679 0.395619 4.207258
v 1.370146 0.410369 4.193436
v 1.358077 0.408618 4.174178
v 1.351545 0.391385 4.160765
v 1.354372 0.368768 4.161049
v 1.364905 0.354017 4.174872
v 1.376973 0.355768 4.194130
v 1.383506 0.373002 4.207543
v 1.132684 0.352628 4.335989
v 1.122438 0.367426 4.322001
v 1.112283 0.365987 4.301644
v 1.108170 0.349147 4.286842
v 1.112504 0.326776 4.286263
v 1.122749 0.311978 4.300250
v 1.132903 0.313417 4.320607
v 1.137017 0.330257 4.335409
v 0.788544 0.269751 4.510962
v 0.777194 0.284292 4.497570
v 0.766320 0.282685 4.477600
v 0.762292 0.265865 4.462752
v 0.767467 0.243690 4.461718
v 0.778817 0.229149 4.475111
v 0.789691 0.230756 4.495080
v 0.793719 0.247576 4.509928
v 0.328577 0.141084 4.798731
v 0.315675 0.155197 4.786323
v 0.302979 0.153088 4.767509
v 0.297926 0.135986 4.753311
v 0.303474 0.113914 4.752041
v 0.316376 0.099800 4.764449
v 0.329073 0.101909 4.783262
v 0.334125 0.119011 4.797461
vt 0.8248 0.6565
vt 0.8172 0.8135
vt 0.8172 0.6590
vt 0.2025 0.1044
vt 0.3526 0.0000
vt 0.3545 0.0055
vt 0.2074 0.1114
vt 0.3583 0.0133
vt 0.4146 0.7184
vt 0.4224 0.8695
vt 0.4145 0.8706
vt 0.4070 0.7164
vt 0.4070 0.8682
vt 0.7690 0.7082
vt 0.6216 0.6057
vt 0.7709 0.7028
vt 0.7652 0.7161
vt 0.6192 0.6108
vt 0.8094 0.8112
vt 0.8094 0.6578
vt 0.9659 0.3316
vt 0.9565 0.4461
vt 0.9580 0.3338
vt 0.9719 0.4468
vt 0.9735 0.3345
vt 0.1042 0.2105
vt 0.1099 0.2142
vt 0.2120 0.1163
vt 0.9894 0.4714
vt 1.0000 0.5826
vt 0.9921 0.5806
vt 0.9846 0.5835
vt 0.6143 0.6179
vt 0.5171 0.5129
vt 0.6097 0.6227
vt 0.5110 0.5188
vt 0.9644 0.4445
vt 0.9543 0.5552
vt 0.9698 0.5558
vt 0.0409 0.3084
vt 0.0981 0.2046
vt 0.0477 0.3105
vt 0.9861 0.3666
vt 0.9973 0.4729
vt 0.9818 0.4737
vt 0.4547 0.4165
vt 0.5052 0.5225
vt 0.4476 0.4208
vt 0.9601 0.6585
vt 0.9622 0.5543
vt 0.9677 0.6590
vt 0.0107 0.4027
vt 0.0337 0.3042
vt 0.0181 0.4028
vt 0.9909 0.2686
vt 0.9940 0.3675
vt 0.9786 0.3682
vt 0.9831 0.2685
vt 0.4251 0.3240
vt 0.4408 0.4228
vt 0.4173 0.3262
vt 0.9591 0.7538
vt 0.9523 0.6586
vt 0.9667 0.7531
vt 0.0079 0.4903
vt 0.0029 0.4005
vt 0.9889 0.1789
vt 0.9755 0.2691
vt 0.9811 0.1796
vt 0.4224 0.2380
vt 0.4070 0.2360
vt 0.4099 0.3263
vt 0.9603 0.8364
vt 0.9512 0.7533
vt 0.9678 0.8345
vt 0.0276 0.5678
vt 0.0000 0.4904
vt 0.0345 0.5638
vt 0.0154 0.4884
vt 0.9891 0.1020
vt 0.9735 0.1790
vt 0.9812 0.1032
vt 0.4145 0.2379
vt 0.4417 0.1618
vt 0.4344 0.1594
vt 0.9648 0.9022
vt 0.9524 0.8353
vt 0.9723 0.8990
vt 0.0656 0.6315
vt 0.0203 0.5702
vt 0.0715 0.6257
vt 0.9926 0.0414
vt 0.9736 0.1013
vt 0.9847 0.0430
vt 0.4792 0.0990
vt 0.4275 0.1554
vt 0.4733 0.0944
vt 0.9735 0.9475
vt 0.9569 0.9007
vt 0.9027 0.7012
vt 0.9294 0.6395
vt 0.9364 0.6441
vt 0.1177 0.6785
vt 0.0597 0.6361
vt 1.0000 0.0000
vt 0.9665 0.3316
vt 0.9424 0.2738
vt 0.9735 0.3271
vt 0.5307 0.0525
vt 0.5224 0.0389
vt 0.4674 0.0886
vt 0.8738 0.7668
vt 0.8892 0.6978
vt 0.8950 0.6979
vt 0.1771 0.7142
vt 0.1137 0.6849
vt 0.1220 0.6713
vt 0.1786 0.7068
vt 0.9293 0.2109
vt 0.9482 0.2737
vt 0.9155 0.2128
vt 0.9347 0.2771
vt 0.5895 0.0171
vt 0.5267 0.0462
vt 0.5871 0.0090
vt 0.8616 0.8389
vt 0.8682 0.7664
vt 0.8820 0.7685
vt 0.8672 0.8396
vt 0.2425 0.7152
vt 0.2429 0.7068
vt 0.1810 0.6986
vt 0.9181 0.1453
vt 0.9237 0.2112
vt 0.9098 0.1452
vt 0.6543 0.0162
vt 0.5910 0.0246
vt 0.6553 0.0084
vt 0.8695 0.9075
vt 0.8833 0.9067
vt 0.8756 0.8395
vt 0.3025 0.7037
vt 0.2436 0.7230
vt 0.3008 0.6958
vt 0.9256 0.0836
vt 0.9237 0.1447
vt 0.7135 0.0275
vt 0.6549 0.0000
vt 0.7171 0.0202
vt 0.8537 0.6565
vt 0.8440 0.6131
vt 0.8616 0.6541
vt 0.9041 0.9615
vt 0.8752 0.9085
vt 0.3509 0.6730
vt 0.3062 0.7110
vt 0.3471 0.6665
vt 0.8943 0.0384
vt 0.9018 0.0000
vt 0.9098 0.0024
vt 0.9174 0.0818
vt 0.9445 0.0345
vt 0.7608 0.0575
vt 0.7189 0.0123
vt 0.7670 0.0519
vt 0.8359 0.6151
vt 0.8302 0.5534
vt 0.9297 1.0000
vt 0.8966 0.9648
vt 0.3893 0.6258
vt 0.3571 0.6786
vt 0.3814 0.6230
vt 0.8823 0.0908
vt 0.8862 0.0364
vt 0.9668 0.0000
vt 0.9370 0.0311
vt 0.7981 0.1030
vt 0.8034 0.0989
vt 0.7708 0.0453
vt 0.8150 0.4739
vt 0.8219 0.5547
vt 0.8162 0.5539
vt 0.4010 0.5498
vt 0.8740 0.0895
vt 0.8616 0.1643
vt 0.8680 0.0870
vt 0.8678 0.1644
vt 0.8818 0.1650
vt 0.8880 0.0900
vt 0.8094 0.1769
vt 0.7902 0.1058
vt 0.8233 0.4735
vt 0.8362 0.5509
vt 0.8165 0.3653
vt 0.4039 0.4415
vt 0.4070 0.5487
vt 0.3926 0.5492
vt 0.3979 0.4427
vt 0.8635 0.2719
vt 0.8762 0.1648
vt 0.8697 0.2709
vt 0.7979 0.2821
vt 0.7950 0.1764
vt 0.8010 0.1775
vt 0.8062 0.2824
vt 0.8249 0.3657
vt 0.8295 0.4734
vt 0.8272 0.2142
vt 0.3980 0.2905
vt 0.3895 0.4430
vt 0.3919 0.2912
vt 0.8746 0.4238
vt 0.8780 0.2706
vt 0.8808 0.4228
vt 0.7919 0.4330
vt 0.7919 0.2809
vt 0.8003 0.4330
vt 0.8356 0.2149
vt 0.8311 0.3666
vt 0.8471 0.0000
vt 0.4070 0.0765
vt 0.3836 0.2911
vt 0.4010 0.0765
vt 0.8952 0.6395
vt 0.8892 0.4220
vt 0.9014 0.6390
vt 0.8010 0.6481
vt 0.7859 0.4323
vt 0.8094 0.6473
vt 0.8554 0.0009
vt 0.8418 0.2159
vt 0.8248 0.8115
vt 0.2001 0.0992
vt 0.4224 0.7161
vt 0.9772 0.0399
vt 0.9655 0.9458
vt 0.9921 0.0018
vt 0.9313 0.0826
vt 0.9364 0.9957
vt 0.3760 0.6189
vt 0.9735 0.0044
vt 0.8094 0.4742
vt 0.3927 0.0756
vt 0.9098 0.6381
vt 0.7950 0.6482
vt 0.8616 0.0014
vn -0.9978 -0.0002 -0.0659
vn -0.7088 -0.6957 -0.1164
vn -0.7157 -0.6968 -0.0475
vn -0.7092 0.6955 -0.1150
vn -0.7159 0.6966 -0.0470
vn -0.0232 0.9997 -0.0027
vn -0.0190 0.9998 -0.0009
vn 0.6860 0.7188 0.1126
vn 0.6970 0.7156 0.0462
vn 0.9870 -0.0002 0.1608
vn 0.9978 0.0000 0.0657
vn 0.6970 -0.7156 0.0456
vn -0.0188 -0.9998 -0.0016
vn 0.6861 -0.7190 0.1110
vn -0.0228 -0.9997 -0.0048
vn -0.9869 -0.0002 -0.1610
vn -0.6699 -0.6929 -0.2666
vn -0.6715 0.6932 -0.2618
vn -0.0275 0.9996 -0.0069
vn 0.6437 0.7211 0.2562
vn 0.9305 -0.0010 0.3663
vn 0.6445 -0.7223 0.2508
vn -0.0257 -0.9995 -0.0141
vn -0.9304 0.0000 -0.3665
vn -0.5822 -0.6902 -0.4296
vn -0.5889 0.6923 -0.4169
vn -0.0304 0.9995 -0.0093
vn 0.5569 0.7214 0.4115
vn 0.8106 -0.0035 0.5856
vn 0.5619 -0.7257 0.3969
vn -0.0220 -0.9993 -0.0286
vn -0.6236 0.0046 -0.7817
vn -0.8104 0.0011 -0.5858
vn -0.4617 0.6942 -0.5521
vn -0.0356 0.9993 -0.0060
vn 0.4204 0.7181 0.5546
vn 0.6238 -0.0095 0.7815
vn 0.4397 -0.7301 0.5231
vn -0.0065 -0.9989 -0.0467
vn -0.3841 0.0130 -0.9232
vn -0.4402 -0.6866 -0.5785
vn -0.3054 0.6997 -0.6458
vn -0.0516 0.9987 0.0028
vn 0.2381 0.7096 0.6632
vn 0.3846 -0.0218 0.9228
vn 0.2920 -0.7375 0.6089
vn -0.2505 -0.6793 -0.6898
vn -0.1069 0.0303 -0.9938
vn -0.1359 0.7098 -0.6911
vn -0.0878 0.9961 0.0103
vn 0.0140 0.6930 0.7208
vn 0.1083 -0.0445 0.9931
vn 0.0254 -0.9975 -0.0660
vn 0.1349 -0.7508 0.6466
vn 0.0802 -0.9934 -0.0813
vn 0.1906 0.0627 -0.9796
vn -0.0191 -0.6634 -0.7480
vn 0.0341 0.7277 -0.6850
vn -0.1446 0.9895 0.0058
vn -0.2405 0.6628 0.7091
vn -0.1876 -0.0818 0.9788
vn -0.0181 -0.7706 0.6370
vn 0.1588 -0.9841 -0.0790
vn 0.4741 0.1135 -0.8731
vn 0.2418 -0.6334 -0.7351
vn 0.1875 0.7551 -0.6282
vn -0.2116 0.9771 -0.0196
vn -0.4926 0.6158 0.6149
vn -0.4691 -0.1350 0.8728
vn -0.1535 -0.7963 0.5851
vn 0.4990 -0.5868 -0.6377
vn 0.7054 0.1795 -0.6857
vn 0.3084 0.7899 -0.5300
vn -0.2726 0.9597 -0.0681
vn -0.7025 0.5551 0.4454
vn -0.2602 -0.8266 0.4990
vn 0.3242 -0.9458 0.0176
vn 0.2471 -0.9679 -0.0458
vn 0.7128 -0.5260 -0.4639
vn 0.8585 -0.4562 -0.2341
vn 0.8627 0.2548 -0.4369
vn -0.3134 0.9402 -0.1333
vn -0.8449 0.4877 0.2197
vn -0.8549 -0.2750 0.4399
vn -0.6986 -0.2011 0.6866
vn -0.3327 -0.8610 0.3845
vn 0.3773 -0.9206 0.1007
vn 0.9236 -0.3809 0.0424
vn 0.4315 0.8714 -0.2333
vn 0.3908 0.8291 -0.3998
vn -0.3256 0.9230 -0.2051
vn -0.9059 0.4201 -0.0518
vn -0.9252 -0.3540 0.1365
vn -0.3638 -0.9006 0.2376
vn 0.4031 -0.8943 0.1942
vn 0.9330 0.3352 -0.1307
vn 0.8795 -0.3080 0.3626
vn 0.4046 0.9143 -0.0163
vn -0.3078 0.9133 -0.2667
vn -0.8577 0.3628 -0.3643
vn -0.8726 -0.4300 -0.2314
vn -0.3300 -0.9427 0.0481
vn 0.3974 -0.8703 0.2907
vn 0.8792 0.4129 0.2375
vn 0.7109 -0.2735 0.6479
vn 0.6724 0.4570 0.5821
vn 0.2696 0.9417 0.2009
vn -0.2915 0.9081 -0.3005
vn -0.6680 -0.4652 -0.5808
vn -0.2168 -0.9640 -0.1536
vn 0.3562 -0.8639 0.3559
vn 0.4418 0.4527 0.7745
vn 0.0969 0.9411 0.3239
vn -0.6945 0.3323 -0.6381
vn -0.3059 0.8982 -0.3156
vn -0.5340 0.3273 -0.7796
vn -0.0786 -0.9510 -0.2990
vn 0.3283 -0.8755 0.3544
vn 0.5387 -0.2904 0.7908
vn 0.3368 0.4393 0.8328
vn -0.0057 0.9313 0.3640
vn -0.3448 0.8842 -0.3150
vn -0.4413 -0.4485 -0.7772
vn -0.4842 0.3236 -0.8129
vn 0.0046 -0.9304 -0.3665
vn 0.3475 -0.8808 0.3217
vn 0.4843 -0.3105 0.8179
vn 0.3510 0.4437 0.8245
vn -0.0329 0.9290 0.3684
vn -0.3952 0.8681 -0.3001
vn -0.3406 -0.4286 -0.8368
vn -0.5276 0.3063 -0.7923
vn 0.0215 -0.9224 -0.3856
vn 0.3894 -0.8754 0.2865
vn 0.5276 -0.3078 0.7917
vn 0.3797 0.4501 0.8082
vn -0.0313 0.9301 0.3658
vn -0.4212 0.8598 -0.2887
vn -0.3565 -0.4314 -0.8287
vn -0.5647 0.2935 -0.7713
vn 0.0167 -0.9225 -0.3857
vn 0.4121 -0.8703 0.2697
vn 0.5648 -0.3004 0.7685
vn -0.3852 -0.4389 -0.8118
s 1
f 1/1/1 16/2/2 8/3/3
f 10/4/4 1/5/1 2/6/5
f 11/7/6 2/6/5 3/8/7
f 12/9/8 3/10/7 4/11/9
f 13/12/10 4/11/9 5/13/11
f 6/14/12 13/15/10 5/16/11
f 7/17/13 14/18/14 6/14/12
f 8/3/3 15/19/15 7/20/13
f 9/21/16 24/22/17 16/23/2
f 18/24/18 9/21/16 10/25/4
f 19/26/19 10/4/4 11/7/6
f 20/27/20 11/7/6 12/28/8
f 21/29/21 12/30/8 13/31/10
f 14/32/14 21/29/21 13/31/10
f 15/33/15 22/34/22 14/18/14
f 16/35/2 23/36/23 15/33/15
f 17/37/24 32/38/25 24/22/17
f 26/39/26 17/37/24 18/24/18
f 27/40/27 18/41/18 19/26/19
f 28/42/28 19/26/19 20/27/20
f 29/43/29 20/44/20 21/29/21
f 22/45/22 29/43/29 21/29/21
f 23/36/23 30/46/30 22/34/22
f 24/47/17 31/48/31 23/36/23
f 33/49/32 32/38/25 25/50/33
f 34/51/34 25/50/33 26/39/26
f 35/52/35 26/53/26 27/40/27
f 36/54/36 27/40/27 28/42/28
f 29/43/29 36/55/36 28/56/28
f 30/57/30 37/58/37 29/43/29
f 31/48/31 38/59/38 30/46/30
f 32/60/25 39/61/39 31/48/31
f 41/62/40 40/63/41 33/49/32
f 42/64/42 33/49/32 34/51/34
f 43/65/43 34/66/34 35/52/35
f 36/54/36 43/65/43 35/52/35
f 37/58/37 44/67/44 36/55/36
f 38/68/38 45/69/45 37/58/37
f 39/61/39 46/70/46 38/59/38
f 48/71/47 39/61/39 40/72/41
f 49/73/48 48/74/47 41/62/40
f 50/75/49 41/62/40 42/64/42
f 51/76/50 42/77/42 43/65/43
f 52/78/51 43/65/43 44/79/44
f 45/69/45 52/80/51 44/67/44
f 46/81/46 53/82/52 45/69/45
f 47/83/53 54/84/54 46/70/46
f 48/71/47 55/85/55 47/83/53
f 57/86/56 56/87/57 49/73/48
f 58/88/58 49/73/48 50/75/49
f 59/89/59 50/90/49 51/76/50
f 60/91/60 51/76/50 52/78/51
f 53/82/52 60/92/60 52/80/51
f 54/93/54 61/94/61 53/82/52
f 55/85/55 62/95/62 54/84/54
f 56/96/57 63/97/63 55/85/55
f 65/98/64 64/99/65 57/86/56
f 66/100/66 57/101/56 58/102/58
f 67/103/67 58/104/58 59/89/59
f 60/91/60 67/103/67 59/89/59
f 61/94/61 68/105/68 60/92/60
f 62/106/62 69/107/69 61/108/61
f 63/97/63 70/109/70 62/95/62
f 72/110/71 63/97/63 64/111/65
f 73/112/72 72/113/71 65/114/64
f 66/100/66 73/112/72 65/114/64
f 67/103/67 74/115/73 66/116/66
f 68/117/68 75/118/74 67/103/67
f 69/107/69 76/119/75 68/120/68
f 78/121/76 69/107/69 70/122/70
f 79/123/77 70/109/70 71/124/78
f 80/125/79 71/124/78 72/110/71
f 73/112/72 88/126/80 80/127/79
f 74/128/73 81/129/81 73/112/72
f 83/130/82 74/115/73 75/118/74
f 84/131/83 75/118/74 76/132/75
f 85/133/84 76/119/75 77/134/85
f 86/135/86 77/134/85 78/121/76
f 79/123/77 86/136/86 78/137/76
f 80/125/79 87/138/87 79/123/77
f 81/129/81 96/139/88 88/126/80
f 90/140/89 81/129/81 82/141/90
f 91/142/91 82/143/90 83/130/82
f 92/144/92 83/130/82 84/131/83
f 93/145/93 84/146/83 85/133/84
f 86/135/86 93/145/93 85/133/84
f 87/138/87 94/147/94 86/136/86
f 88/148/80 95/149/95 87/138/87
f 89/150/96 104/151/97 96/152/88
f 98/153/98 89/154/96 90/140/89
f 99/155/99 90/156/89 91/142/91
f 100/157/100 91/142/91 92/144/92
f 101/158/101 92/159/92 93/160/93
f 94/161/94 101/162/101 93/145/93
f 95/149/95 102/163/102 94/147/94
f 96/164/88 103/165/103 95/149/95
f 97/166/104 112/167/105 104/151/97
f 98/153/98 105/168/106 97/169/104
f 99/155/99 106/170/107 98/171/98
f 100/157/100 107/172/108 99/155/99
f 109/173/109 100/174/100 101/158/101
f 110/175/110 101/162/101 102/176/102
f 111/177/111 102/163/102 103/165/103
f 112/178/105 103/165/103 104/179/97
f 113/180/112 112/167/105 105/181/106
f 106/182/107 113/180/112 105/181/106
f 107/172/108 114/183/113 106/170/107
f 108/184/114 115/185/115 107/186/108
f 109/173/109 116/187/116 108/184/114
f 118/188/117 109/173/109 110/189/110
f 119/190/118 110/191/110 111/177/111
f 120/192/119 111/193/111 112/167/105
f 121/194/120 120/192/119 113/180/112
f 114/183/113 121/195/120 113/196/112
f 115/197/115 122/198/121 114/183/113
f 116/187/116 123/199/122 115/185/115
f 117/200/123 124/201/124 116/187/116
f 126/202/125 117/203/123 118/204/117
f 127/205/126 118/204/117 119/190/118
f 128/206/127 119/207/118 120/192/119
f 129/208/128 128/206/127 121/194/120
f 122/198/121 129/209/128 121/195/120
f 123/210/122 130/211/129 122/198/121
f 124/201/124 131/212/130 123/199/122
f 125/213/131 132/214/132 124/201/124
f 134/215/133 125/216/131 126/202/125
f 135/217/134 126/202/125 127/205/126
f 136/218/135 127/219/126 128/206/127
f 137/220/136 136/218/135 129/208/128
f 130/211/129 137/221/136 129/209/128
f 131/222/130 138/223/137 130/211/129
f 132/214/132 139/224/138 131/212/130
f 133/225/139 140/226/140 132/214/132
f 142/227/141 133/228/139 134/215/133
f 143/229/142 134/215/133 135/217/134
f 144/230/143 135/231/134 136/218/135
f 1/1/1 9/232/16 16/2/2
f 10/4/4 9/233/16 1/5/1
f 11/7/6 10/4/4 2/6/5
f 12/9/8 11/234/6 3/10/7
f 13/12/10 12/9/8 4/11/9
f 6/14/12 14/18/14 13/15/10
f 7/17/13 15/33/15 14/18/14
f 8/3/3 16/2/2 15/19/15
f 9/21/16 17/37/24 24/22/17
f 18/24/18 17/37/24 9/21/16
f 19/26/19 18/41/18 10/4/4
f 20/27/20 19/26/19 11/7/6
f 21/29/21 20/44/20 12/30/8
f 14/32/14 22/45/22 21/29/21
f 15/33/15 23/36/23 22/34/22
f 16/35/2 24/47/17 23/36/23
f 17/37/24 25/50/33 32/38/25
f 26/39/26 25/50/33 17/37/24
f 27/40/27 26/53/26 18/41/18
f 28/42/28 27/40/27 19/26/19
f 29/43/29 28/56/28 20/44/20
f 22/45/22 30/57/30 29/43/29
f 23/36/23 31/48/31 30/46/30
f 24/47/17 32/60/25 31/48/31
f 33/49/32 40/63/41 32/38/25
f 34/51/34 33/49/32 25/50/33
f 35/52/35 34/66/34 26/53/26
f 36/54/36 35/52/35 27/40/27
f 29/43/29 37/58/37 36/55/36
f 30/57/30 38/68/38 37/58/37
f 31/48/31 39/61/39 38/59/38
f 32/60/25 40/72/41 39/61/39
f 41/62/40 48/74/47 40/63/41
f 42/64/42 41/62/40 33/49/32
f 43/65/43 42/77/42 34/66/34
f 36/54/36 44/79/44 43/65/43
f 37/58/37 45/69/45 44/67/44
f 38/68/38 46/81/46 45/69/45
f 39/61/39 47/83/53 46/70/46
f 48/71/47 47/83/53 39/61/39
f 49/73/48 56/87/57 48/74/47
f 50/75/49 49/73/48 41/62/40
f 51/76/50 50/90/49 42/77/42
f 52/78/51 51/76/50 43/65/43
f 45/69/45 53/82/52 52/80/51
f 46/81/46 54/93/54 53/82/52
f 47/83/53 55/85/55 54/84/54
f 48/71/47 56/96/57 55/85/55
f 57/86/56 64/99/65 56/87/57
f 58/88/58 57/86/56 49/73/48
f 59/89/59 58/104/58 50/90/49
f 60/91/60 59/89/59 51/76/50
f 53/82/52 61/94/61 60/92/60
f 54/93/54 62/235/62 61/94/61
f 55/85/55 63/97/63 62/95/62
f 56/96/57 64/111/65 63/97/63
f 65/98/64 72/236/71 64/99/65
f 66/100/66 65/114/64 57/101/56
f 67/103/67 66/116/66 58/104/58
f 60/91/60 68/117/68 67/103/67
f 61/94/61 69/237/69 68/105/68
f 62/106/62 70/122/70 69/107/69
f 63/97/63 71/124/78 70/109/70
f 72/110/71 71/124/78 63/97/63
f 73/112/72 80/127/79 72/113/71
f 66/100/66 74/128/73 73/112/72
f 67/103/67 75/118/74 74/115/73
f 68/117/68 76/132/75 75/118/74
f 69/107/69 77/134/85 76/119/75
f 78/121/76 77/134/85 69/107/69
f 79/123/77 78/137/76 70/109/70
f 80/125/79 79/123/77 71/124/78
f 73/112/72 81/129/81 88/126/80
f 74/128/73 82/141/90 81/129/81
f 83/130/82 82/143/90 74/115/73
f 84/131/83 83/130/82 75/118/74
f 85/133/84 84/146/83 76/119/75
f 86/135/86 85/133/84 77/134/85
f 79/123/77 87/138/87 86/136/86
f 80/125/79 88/148/80 87/138/87
f 81/129/81 89/154/96 96/139/88
f 90/140/89 89/154/96 81/129/81
f 91/142/91 90/156/89 82/143/90
f 92/144/92 91/142/91 83/130/82
f 93/145/93 92/238/92 84/146/83
f 86/135/86 94/161/94 93/145/93
f 87/138/87 95/149/95 94/147/94
f 88/148/80 96/164/88 95/149/95
f 89/150/96 97/166/104 104/151/97
f 98/153/98 97/169/104 89/154/96
f 99/155/99 98/171/98 90/156/89
f 100/157/100 99/155/99 91/142/91
f 101/158/101 100/174/100 92/159/92
f 94/161/94 102/176/102 101/162/101
f 95/149/95 103/165/103 102/163/102
f 96/164/88 104/179/97 103/165/103
f 97/166/104 105/181/106 112/167/105
f 98/153/98 106/239/107 105/168/106
f 99/155/99 107/172/108 106/170/107
f 100/157/100 108/240/114 107/172/108
f 109/173/109 108/184/114 100/174/100
f 110/175/110 109/241/109 101/162/101
f 111/177/111 110/191/110 102/163/102
f 112/178/105 111/177/111 103/165/103
f 113/180/112 120/192/119 112/167/105
f 106/182/107 114/242/113 113/180/112
f 107/172/108 115/197/115 114/183/113
f 108/184/114 116/187/116 115/185/115
f 109/173/109 117/200/123 116/187/116
f 118/188/117 117/200/123 109/173/109
f 119/190/118 118/204/117 110/191/110
f 120/192/119 119/207/118 111/193/111
f 121/194/120 128/206/127 120/192/119
f 114/183/113 122/198/121 121/195/120
f 115/197/115 123/210/122 122/198/121
f 116/187/116 124/201/124 123/199/122
f 117/200/123 125/213/131 124/201/124
f 126/202/125 125/216/131 117/203/123
f 127/205/126 126/202/125 118/204/117
f 128/206/127 127/219/126 119/207/118
f 129/208/128 136/218/135 128/206/127
f 122/198/121 130/211/129 129/209/128
f 123/210/122 131/222/130 130/211/129
f 124/201/124 132/214/132 131/212/130
f 125/213/131 133/225/139 132/214/132
f 134/215/133 133/228/139 125/216/131
f 135/217/134 134/215/133 126/202/125
f 136/218/135 135/231/134 127/219/126
f 137/220/136 144/230/143 136/218/135
f 130/211/129 138/223/137 137/221/136
f 131/222/130 139/243/138 138/223/137
f 132/214/132 140/226/140 139/224/138
f 133/225/139 141/244/144 140/226/140
f 142/227/141 141/245/144 133/228/139
f 143/229/142 142/227/141 134/215/133
f 144/230/143 143/246/142 135/231/134
