# Blender v2.78 (sub 0) OBJ File: 'ReactorBuilding.blend'
# www.blender.org
o Cube.001
v 0.051001 -0.001298 4.948187
v 0.051001 0.355549 4.948187
v 0.051001 -0.001298 4.640289
v 0.051001 0.355549 4.640289
v 0.358898 -0.001298 4.948187
v 0.358898 0.355549 4.948187
v 0.358898 -0.001298 4.640289
v 0.358898 0.355549 4.640289
vt 0.3333 0.0000
vt 0.6667 0.5000
vt 0.3333 0.5000
vt 0.0000 0.0000
vt 0.3333 0.5000
vt 0.0000 0.5000
vt 0.6667 1.0000
vt 0.3333 0.5000
vt 0.6667 0.5000
vt 0.0000 0.5000
vt 0.3333 1.0000
vt 0.0000 1.0000
vt 1.0000 0.5000
vt 0.6667 0.9314
vt 0.6667 0.4314
vt 1.0000 0.0000
vt 1.0000 0.4314
vt 0.6667 0.0000
vt 0.3333 0.0000
vt 0.3333 1.0000
vt 0.3333 0.5000
vt 1.0000 0.9314
vt 0.6667 0.0000
vn -1.0000 0.0000 0.0000
vn 0.0000 0.0000 -1.0000
vn 1.0000 0.0000 0.0000
vn 0.0000 0.0000 1.0000
vn 0.0000 -1.0000 0.0000
vn 0.0000 1.0000 0.0000
s off
f 2/1/1 3/2/1 1/3/1
f 4/4/2 7/5/2 3/6/2
f 8/7/3 5/8/3 7/9/3
f 6/10/4 1/11/4 5/12/4
f 7/13/5 1/14/5 3/2/5
f 4/15/6 6/16/6 8/17/6
f 2/1/1 4/18/1 3/2/1
f 4/4/2 8/19/2 7/5/2
f 8/7/3 6/20/3 5/8/3
f 6/10/4 2/21/4 1/11/4
f 7/13/5 5/22/5 1/14/5
f 4/15/6 2/23/6 6/16/6
