# Blender v2.78 (sub 0) OBJ File: 'ReactorBuilding.blend'
# www.blender.org
o NurbsPath.007_Mesh
v 0.918097 0.052438 1.241958
v 0.926718 0.072658 1.247995
v 0.947730 0.081037 1.250798
v 0.968829 0.072661 1.248724
v 0.977656 0.052442 1.242990
v 0.969035 0.032222 1.236954
v 0.948023 0.023843 1.234151
v 0.926924 0.032219 1.236224
v 0.919705 0.082370 1.149529
v 0.928300 0.102119 1.156991
v 0.949303 0.110302 1.160388
v 0.970411 0.102119 1.157729
v 0.979263 0.082370 1.150573
v 0.970667 0.062621 1.143111
v 0.949665 0.054438 1.139713
v 0.928557 0.062621 1.142372
v 0.920967 0.112232 1.078095
v 0.929525 0.131056 1.087687
v 0.950511 0.138853 1.091972
v 0.971635 0.131050 1.088438
v 0.980525 0.112223 1.079158
v 0.971967 0.093399 1.069566
v 0.950980 0.085602 1.065281
v 0.929856 0.093405 1.068815
v 0.921883 0.142026 1.027655
v 0.930377 0.158635 1.040755
v 0.951337 0.165508 1.046502
v 0.972487 0.158615 1.041528
v 0.981441 0.141999 1.028748
v 0.972947 0.125390 1.015649
v 0.951987 0.118516 1.009901
v 0.930837 0.125409 1.014876
v 0.922454 0.171765 0.998207
v 0.930844 0.182378 1.016552
v 0.951761 0.186752 1.024487
v 0.972953 0.182321 1.017358
v 0.982011 0.171685 0.999346
v 0.973620 0.161071 0.981000
v 0.952704 0.156697 0.973065
v 0.931511 0.161128 0.980195
v 0.922679 0.201457 0.989768
v 0.930987 0.199959 1.010942
v 0.951870 0.199284 1.020056
v 0.973096 0.199828 1.011765
v 0.982235 0.201271 0.990932
v 0.973926 0.202769 0.969759
v 0.953044 0.203444 0.960645
v 0.931817 0.202901 0.968936
vt 0.4236 0.3070
vt 0.4419 0.0000
vt 0.5076 0.0183
vt 0.5171 0.3187
vt 0.5998 0.0345
vt 0.9210 0.5337
vt 1.0000 0.8281
vt 0.9332 0.8201
vt 0.8384 0.8230
vt 0.2457 0.9825
vt 0.2461 0.6797
vt 0.3124 0.9662
vt 0.1527 0.9958
vt 0.1784 0.6916
vt 0.7319 0.0000
vt 0.6248 0.3006
vt 0.6646 0.0050
vt 0.7864 0.3032
vt 0.8262 0.0075
vt 0.3811 0.5410
vt 0.3567 0.2932
vt 0.4757 0.5457
vt 0.9213 0.3077
vt 0.9877 0.5397
vt 0.8262 0.5347
vt 0.2179 0.4518
vt 0.0843 0.7003
vt 0.1494 0.4566
vt 0.6919 0.2975
vt 0.6031 0.5429
vt 0.7647 0.5455
vt 0.3801 0.7202
vt 0.3130 0.5341
vt 0.4743 0.7122
vt 0.9328 0.1466
vt 0.9880 0.3108
vt 0.8265 0.3058
vt 0.2261 0.2855
vt 0.0546 0.4583
vt 0.1587 0.2777
vt 0.6699 0.5427
vt 0.5998 0.7348
vt 0.7614 0.7375
vt 0.4206 0.8447
vt 0.3124 0.7260
vt 0.5053 0.8134
vt 0.5668 0.7981
vt 0.5398 0.7066
vt 0.8384 0.1395
vt 0.9507 0.0566
vt 0.2628 0.1855
vt 0.0651 0.2667
vt 0.2063 0.1547
vt 0.0000 0.2590
vt 0.1235 0.1208
vt 0.7796 0.8840
vt 0.6666 0.7400
vt 0.5027 0.9145
vt 0.3625 0.8738
vt 0.5527 0.8563
vt 0.5998 0.8298
vt 0.8586 0.0402
vt 0.9665 0.0267
vt 0.3124 0.1442
vt 0.2921 0.0878
vt 0.0630 0.1035
vt 0.2456 0.0280
vt 0.8262 0.9774
vt 0.6863 0.8959
vt 1.0000 0.1444
vt 0.4792 0.9703
vt 0.8811 0.0000
vt 0.2001 0.0000
vt 0.7386 1.0000
vn -0.9997 -0.0094 -0.0210
vn -0.6994 -0.6763 -0.2312
vn -0.9998 -0.0069 -0.0197
vn -0.7163 0.6584 0.2310
vn -0.7143 0.6694 0.2043
vn -0.0061 0.9379 0.3467
vn -0.0054 0.9514 0.3079
vn 0.7067 0.6695 0.2290
vn 0.9998 -0.0068 0.0151
vn 0.7077 0.6584 0.2559
vn 0.7070 -0.6763 -0.2067
vn 0.9998 -0.0094 0.0140
vn 0.0054 -0.9513 -0.3081
vn 0.7063 -0.6678 -0.2350
vn -0.6976 -0.6677 -0.2596
vn -0.9995 -0.0146 -0.0254
vn -0.7208 0.6252 0.2993
vn -0.0079 0.8948 0.4463
vn 0.7097 0.6250 0.3249
vn 0.9998 -0.0149 0.0102
vn 0.0060 -0.9377 -0.3473
vn 0.7042 -0.6394 -0.3088
vn -0.6929 -0.6391 -0.3337
vn -0.9990 -0.0229 -0.0378
vn -0.7290 0.5505 0.4068
vn -0.0108 0.7968 0.6041
vn 0.7140 0.5499 0.4333
vn 0.9997 -0.0238 -0.0011
vn 0.0078 -0.8934 -0.4492
vn 0.6988 -0.5682 -0.4345
vn -0.6830 -0.5674 -0.4598
vn -0.9971 -0.0268 -0.0713
vn -0.7469 0.3565 0.5611
vn -0.0155 0.5408 0.8410
vn 0.7257 0.3549 0.5893
vn 0.9990 -0.0295 -0.0331
vn 0.0109 -0.7848 -0.6196
vn 0.6890 -0.3643 -0.6265
vn -0.6657 -0.3624 -0.6522
vn -0.9944 -0.0192 -0.1034
vn -0.7472 0.2030 0.6328
vn -0.0179 0.3210 0.9469
vn 0.7226 0.2004 0.6615
vn 0.9977 -0.0233 -0.0644
vn 0.0158 -0.4931 -0.8698
vn 0.6626 -0.1980 -0.7223
vn -0.6352 -0.1952 -0.7472
vn 0.0179 -0.2568 -0.9663
s 1
f 9/1/1 8/2/2 1/3/3
f 10/4/4 1/3/3 2/5/5
f 11/6/6 2/7/5 3/8/7
f 4/9/8 11/6/6 3/8/7
f 5/10/9 12/11/10 4/12/8
f 6/13/11 13/14/12 5/10/9
f 7/15/13 14/16/14 6/17/11
f 16/18/15 7/15/13 8/19/2
f 17/20/16 16/21/15 9/1/1
f 18/22/17 9/1/1 10/4/4
f 19/23/18 10/24/4 11/6/6
f 12/25/10 19/23/18 11/6/6
f 13/14/12 20/26/19 12/11/10
f 14/27/14 21/28/20 13/14/12
f 15/29/21 22/30/22 14/16/14
f 24/31/23 15/29/21 16/18/15
f 25/32/24 24/33/23 17/20/16
f 26/34/25 17/20/16 18/22/17
f 27/35/26 18/36/17 19/23/18
f 20/37/19 27/35/26 19/23/18
f 21/28/20 28/38/27 20/26/19
f 22/39/22 29/40/28 21/28/20
f 23/41/29 30/42/30 22/30/22
f 32/43/31 23/41/29 24/31/23
f 33/44/32 32/45/31 25/32/24
f 34/46/33 25/32/24 26/34/25
f 35/47/34 26/34/25 27/48/26
f 28/49/27 35/50/34 27/35/26
f 29/40/28 36/51/35 28/38/27
f 30/52/30 37/53/36 29/40/28
f 31/54/37 38/55/38 30/52/30
f 40/56/39 31/57/37 32/43/31
f 41/58/40 40/59/39 33/44/32
f 42/60/41 33/44/32 34/46/33
f 43/61/42 34/46/33 35/47/34
f 36/62/35 43/63/42 35/50/34
f 37/53/36 44/64/43 36/51/35
f 38/55/38 45/65/44 37/53/36
f 39/66/45 46/67/46 38/55/38
f 48/68/47 39/69/45 40/56/39
f 9/1/1 16/21/15 8/2/2
f 10/4/4 9/1/1 1/3/3
f 11/6/6 10/24/4 2/7/5
f 4/9/8 12/25/10 11/6/6
f 5/10/9 13/14/12 12/11/10
f 6/13/11 14/27/14 13/14/12
f 7/15/13 15/29/21 14/16/14
f 16/18/15 15/29/21 7/15/13
f 17/20/16 24/33/23 16/21/15
f 18/22/17 17/20/16 9/1/1
f 19/23/18 18/36/17 10/24/4
f 12/25/10 20/37/19 19/23/18
f 13/14/12 21/28/20 20/26/19
f 14/27/14 22/39/22 21/28/20
f 15/29/21 23/41/29 22/30/22
f 24/31/23 23/41/29 15/29/21
f 25/32/24 32/45/31 24/33/23
f 26/34/25 25/32/24 17/20/16
f 27/35/26 26/70/25 18/36/17
f 20/37/19 28/49/27 27/35/26
f 21/28/20 29/40/28 28/38/27
f 22/39/22 30/52/30 29/40/28
f 23/41/29 31/57/37 30/42/30
f 32/43/31 31/57/37 23/41/29
f 33/44/32 40/59/39 32/45/31
f 34/46/33 33/44/32 25/32/24
f 35/47/34 34/46/33 26/34/25
f 28/49/27 36/62/35 35/50/34
f 29/40/28 37/53/36 36/51/35
f 30/52/30 38/55/38 37/53/36
f 31/54/37 39/66/45 38/55/38
f 40/56/39 39/69/45 31/57/37
f 41/58/40 48/71/47 40/59/39
f 42/60/41 41/58/40 33/44/32
f 43/61/42 42/60/41 34/46/33
f 36/62/35 44/72/43 43/63/42
f 37/53/36 45/65/44 44/64/43
f 38/55/38 46/67/46 45/65/44
f 39/66/45 47/73/48 46/67/46
f 48/68/47 47/74/48 39/69/45
