# Blender v2.78 (sub 0) OBJ File: 'MutatusCubicus.blend'
# www.blender.org
o Cube_Cube.002
v -1.000000 0.000000 0.000000
v 0.000000 0.000000 -1.000000
v 1.000000 0.000000 0.000000
v 0.000000 0.000000 1.000000
v 0.000000 -1.000000 0.000000
v 0.000000 1.000000 0.000000
v -0.750000 -0.750000 0.000000
v -0.750000 0.000000 0.750000
v -0.750000 0.750000 0.000000
v -0.750000 0.000000 -0.750000
v 0.000000 -0.750000 -0.750000
v 0.000000 0.750000 -0.750000
v 0.750000 0.000000 -0.750000
v 0.750000 -0.750000 0.000000
v 0.750000 0.750000 0.000000
v 0.750000 0.000000 0.750000
v 0.000000 -0.750000 0.750000
v 0.000000 0.750000 0.750000
v -0.555556 -0.555556 0.555556
v -0.555556 0.555556 0.555556
v -0.555556 -0.555556 -0.555556
v -0.555556 0.555556 -0.555556
v 0.555556 -0.555556 0.555556
v 0.555556 0.555556 0.555556
v 0.555556 -0.555556 -0.555556
v 0.555556 0.555556 -0.555556
v -2.042782 -0.282865 -0.540659
v -1.866175 -0.282865 -1.070478
v -1.866175 -0.812684 -0.540659
v -1.728815 -0.675323 -0.933118
vt 0.1612 0.4935
vt -0.0183 0.6624
vt -0.0183 0.4935
vt 0.4717 0.1829
vt 0.2923 0.0035
vt 0.4717 0.0035
vt 0.6406 0.0035
vt 0.6406 0.1829
vt 0.4717 0.4935
vt 1.1306 0.4935
vt 0.9512 0.6624
vt 0.9512 0.4935
vt 0.8200 0.1829
vt 0.8200 0.0035
vt 0.9994 0.0035
vt 0.9994 0.1829
vt 1.3100 0.6624
vt 1.1306 0.6624
vt 1.4789 0.4935
vt 1.3100 0.4935
vt 0.4717 -0.5347
vt 0.6406 -0.3553
vt 0.4717 -0.3553
vt -0.2459 0.1829
vt -0.0665 0.0035
vt -0.0665 0.1829
vt 1.6583 0.6624
vt 1.4789 0.6624
vt -0.1977 0.4935
vt -0.3771 0.6624
vt -0.3771 0.4935
vt 0.1129 0.1829
vt 0.1129 0.0035
vt 0.2923 0.1829
vt -0.1977 0.6624
vt 0.4717 1.1524
vt 0.6406 0.9730
vt 0.6406 1.1524
vt 0.6406 1.3318
vt 0.4717 1.3318
vt 0.2923 1.3318
vt 0.2923 1.1524
vt 0.2923 0.9730
vt 0.4717 0.9730
vt 0.4717 -0.1759
vt 0.6406 -0.1759
vt 0.2923 -0.1759
vt 0.2923 -0.3553
vt 0.6406 0.6624
vt 0.4717 0.6624
vt 0.6406 0.4935
vt 0.1612 0.6624
vt 0.6406 -0.5347
vt -0.2459 0.0035
vt 1.6583 0.4935
vn -0.8675 -0.4048 0.2892
vn -0.8675 0.2892 0.4048
vn -0.8675 0.4048 -0.2892
vn -0.2247 0.9715 -0.0749
vn -0.2892 -0.4048 -0.8675
vn -0.4048 0.2892 -0.8675
vn 0.2892 0.4048 -0.8675
vn 0.4048 -0.2892 -0.8675
vn 0.8675 -0.4048 -0.2892
vn 0.8675 0.2892 -0.4048
vn 0.8675 0.4048 0.2892
vn 0.8675 -0.2892 0.4048
vn 0.2892 -0.4048 0.8675
vn 0.4048 0.2892 0.8675
vn -0.2892 0.4048 0.8675
vn -0.4048 -0.2892 0.8675
vn -0.4048 -0.8675 -0.2892
vn 0.2892 -0.8675 -0.4048
vn 0.4048 -0.8675 0.2892
vn -0.2892 -0.8675 0.4048
vn 0.4048 0.8675 -0.2892
vn -0.2892 0.8675 -0.4048
vn -0.4048 0.8675 0.2892
vn 0.2892 0.8675 0.4048
vn -0.8675 -0.2892 -0.4048
vn 0.1826 -0.9462 -0.2673
vn 0.3189 -0.2117 -0.9238
vn -0.4251 -0.1417 0.8940
vn -0.8675 -0.2892 0.4048
vn -0.8675 0.4048 0.2892
vn -0.8675 0.2892 -0.4048
vn -0.4048 -0.2892 -0.8675
vn -0.2892 0.4048 -0.8675
vn 0.4048 0.2892 -0.8675
vn 0.2892 -0.4048 -0.8675
vn 0.8675 -0.2892 -0.4048
vn 0.8675 0.4048 -0.2892
vn 0.8675 0.2892 0.4048
vn 0.8675 -0.4048 0.2892
vn 0.4048 -0.2892 0.8675
vn 0.2892 0.4048 0.8675
vn -0.4048 0.2892 0.8675
vn -0.2892 -0.4048 0.8675
vn -0.2892 -0.8675 -0.4048
vn 0.4048 -0.8675 -0.2892
vn 0.2892 -0.8675 0.4048
vn -0.4048 -0.8675 0.2892
vn 0.2892 0.8675 -0.4048
vn -0.4048 0.8675 -0.2892
vn -0.2892 0.8675 0.4048
vn 0.4048 0.8675 0.2892
vn -0.8675 -0.4048 -0.2892
s off
f 1/1/1 19/2/1 8/3/1
f 1/4/2 20/5/2 9/6/2
f 1/4/3 22/7/3 10/8/3
f 10/8/4 27/9/4 1/4/4
f 2/10/5 21/11/5 10/12/5
f 2/13/6 22/7/6 12/14/6
f 2/13/7 26/15/7 13/16/7
f 2/10/8 25/17/8 11/18/8
f 3/19/9 25/17/9 13/20/9
f 3/21/10 26/22/10 15/23/10
f 3/24/11 24/25/11 16/26/11
f 3/19/12 23/27/12 14/28/12
f 4/29/13 23/30/13 16/31/13
f 4/32/14 24/25/14 18/33/14
f 4/32/15 20/5/15 8/34/15
f 4/29/16 19/2/16 17/35/16
f 5/36/17 21/37/17 11/38/17
f 5/36/18 25/39/18 14/40/18
f 5/36/19 23/41/19 17/42/19
f 5/36/20 19/43/20 7/44/20
f 6/45/21 26/22/21 12/46/21
f 6/45/22 22/7/22 9/6/22
f 6/45/23 20/5/23 18/47/23
f 6/45/24 24/48/24 15/23/24
f 27/9/25 30/49/25 29/50/25
f 21/37/26 29/50/26 30/49/26
f 10/12/27 30/49/27 28/51/27
f 1/1/28 29/50/28 7/52/28
f 1/1/29 7/52/29 19/2/29
f 1/4/30 8/34/30 20/5/30
f 1/4/31 9/6/31 22/7/31
f 10/8/4 28/51/4 27/9/4
f 2/10/32 11/18/32 21/11/32
f 2/13/33 10/8/33 22/7/33
f 2/13/34 12/14/34 26/15/34
f 2/10/35 13/20/35 25/17/35
f 3/19/36 14/28/36 25/17/36
f 3/21/37 13/53/37 26/22/37
f 3/24/38 15/54/38 24/25/38
f 3/19/39 16/55/39 23/27/39
f 4/29/40 17/35/40 23/30/40
f 4/32/41 16/26/41 24/25/41
f 4/32/42 18/33/42 20/5/42
f 4/29/43 8/3/43 19/2/43
f 5/36/44 7/44/44 21/37/44
f 5/36/45 11/38/45 25/39/45
f 5/36/46 14/40/46 23/41/46
f 5/36/47 17/42/47 19/43/47
f 6/45/48 15/23/48 26/22/48
f 6/45/49 12/46/49 22/7/49
f 6/45/50 9/6/50 20/5/50
f 6/45/51 18/47/51 24/48/51
f 27/9/52 28/51/52 30/49/52
f 21/37/26 7/44/26 29/50/26
f 10/12/27 21/11/27 30/49/27
f 1/1/28 27/9/28 29/50/28
