# Blender v2.72 (sub 0) OBJ File: 'MutatusCubicus.blend'
# www.blender.org
o Stomach_Sphere
v -0.403473 1.418506 0.427132
v -0.745520 1.085678 0.789237
v -0.974069 0.587564 1.031188
v -1.054324 -0.000000 1.116150
v -0.974069 -0.587565 1.031188
v -0.745520 -1.085678 0.789237
v -0.403473 -1.418506 0.427132
v -0.542321 1.418506 0.226098
v -1.002078 1.085678 0.417774
v -1.309278 0.587564 0.545848
v -1.417152 -0.000000 0.590822
v -1.309278 -0.587565 0.545848
v -1.002078 -1.085678 0.417774
v -0.542321 -1.418506 0.226098
v -0.587397 1.418506 -0.014031
v -1.085368 1.085678 -0.025926
v -1.418101 0.587564 -0.033874
v -1.534942 -0.000000 -0.036665
v -1.418101 -0.587565 -0.033874
v -1.085368 -1.085678 -0.025926
v -0.587397 -1.418506 -0.014031
v -0.530907 1.418506 -0.251734
v -0.980988 1.085678 -0.465143
v -1.281722 0.587564 -0.607739
v -1.387326 -0.000000 -0.657812
v -1.281722 -0.587565 -0.607739
v -0.980988 -1.085678 -0.465143
v -0.530907 -1.418506 -0.251734
v -0.382618 1.418506 -0.445909
v -0.706986 1.085678 -0.823933
v -0.923722 0.587564 -1.076521
v -0.999829 -0.000000 -1.165218
v -0.923722 -0.587565 -1.076521
v -0.706986 -1.085678 -0.823933
v -0.382618 -1.418506 -0.445909
v -0.168171 1.418506 -0.562983
v -0.310740 1.085678 -1.040257
v -0.406001 0.587564 -1.359162
v -0.439452 -0.000000 -1.471146
v -0.406001 -0.587565 -1.359162
v -0.310740 -1.085678 -1.040257
v -0.168171 -1.418506 -0.562983
v 0.075354 1.418506 -0.582712
v 0.139236 1.085678 -1.076712
v 0.181921 0.587564 -1.406792
v 0.196910 -0.000000 -1.522700
v 0.181921 -0.587565 -1.406792
v 0.139236 -1.085678 -1.076712
v 0.075354 -1.418506 -0.582712
v -0.000000 1.535380 0.000000
v 0.305850 1.418506 -0.501685
v 0.565136 1.085678 -0.926993
v 0.738387 0.587564 -1.211174
v 0.799224 -0.000000 -1.310965
v 0.738387 -0.587565 -1.211174
v 0.565136 -1.085678 -0.926993
v 0.305850 -1.418506 -0.501685
v 0.483461 1.418506 -0.333911
v 0.893320 1.085678 -0.616988
v 1.167179 0.587564 -0.806134
v 1.263345 -0.000000 -0.872553
v 1.167179 -0.587565 -0.806134
v 0.893320 -1.085678 -0.616988
v 0.483461 -1.418506 -0.333911
v 0.577478 1.418506 -0.108402
v 1.067040 1.085678 -0.200301
v 1.394155 0.587564 -0.261705
v 1.509022 -0.000000 -0.283268
v 1.394155 -0.587565 -0.261705
v 1.067040 -1.085678 -0.200301
v 0.577478 -1.418506 -0.108402
v 0.571643 1.418506 0.135851
v 1.056259 1.085678 0.251021
v 1.380069 0.587564 0.327974
v 1.493776 -0.000000 0.354997
v 1.380069 -0.587565 0.327974
v 1.056259 -1.085678 0.251021
v 0.571643 -1.418506 0.135851
v 0.466966 1.418506 0.356615
v 0.862841 1.085678 0.658938
v 1.127357 0.587564 0.860944
v 1.220242 -0.000000 0.931879
v 1.127357 -0.587565 0.860944
v 0.862841 -1.085678 0.658938
v 0.466966 -1.418506 0.356615
v 0.281547 1.418506 0.515716
v 0.520231 1.085678 0.952919
v 0.679714 0.587564 1.245049
v 0.735717 -0.000000 1.347631
v 0.679714 -0.587565 1.245049
v 0.520231 -1.085678 0.952919
v 0.281547 -1.418506 0.515716
v 0.047445 1.418506 0.585646
v 0.087667 1.085678 1.082132
v 0.114543 0.587564 1.413874
v 0.123980 -0.000000 1.530366
v 0.114543 -0.587565 1.413874
v 0.087667 -1.085678 1.082132
v 0.047445 -1.418506 0.585646
v -0.194860 1.418506 0.554312
v -0.360055 1.085678 1.024234
v -0.470434 0.587564 1.338227
v -0.509194 -0.000000 1.448486
v -0.470434 -0.587565 1.338227
v -0.360055 -1.085678 1.024234
v -0.194860 -1.418506 0.554312
v -0.000000 -1.535380 0.000000
vt 0.379532 0.250000
vt 0.312866 0.250000
vt 0.312866 0.125000
vt 0.379532 0.375000
vt 0.312866 0.375000
vt 0.379532 0.500000
vt 0.312866 0.500000
vt 0.379532 0.625000
vt 0.312866 0.625000
vt 0.379532 0.750000
vt 0.312866 0.750000
vt 0.379532 0.875000
vt 0.312866 0.875000
vt 0.246199 0.250000
vt 0.246199 0.375000
vt 0.246199 0.500000
vt 0.246199 0.625000
vt 0.246199 0.750000
vt 0.246199 0.875000
vt 0.179532 0.250000
vt 0.179532 0.125000
vt 0.179532 0.375000
vt 0.179532 0.500000
vt 0.179532 0.625000
vt 0.179532 0.750000
vt 0.179532 0.875000
vt 0.112866 0.250000
vt 0.112866 0.125000
vt 0.112866 0.375000
vt 0.112866 0.500000
vt 0.112866 0.625000
vt 0.112866 0.750000
vt 0.112866 0.875000
vt 0.046199 0.250000
vt 0.046199 0.375000
vt 0.046199 0.500000
vt 0.046199 0.625000
vt 0.046199 0.750000
vt 0.046199 0.875000
vt 1.046199 0.250000
vt 0.979532 0.250000
vt 0.979532 0.125000
vt 1.046199 0.375000
vt 0.979532 0.375000
vt 1.046199 0.500000
vt 0.979532 0.500000
vt 1.046199 0.625000
vt 0.979532 0.625000
vt 1.046199 0.750000
vt 0.979532 0.750000
vt 1.046199 0.875000
vt 0.979532 0.875000
vt 0.912866 0.250000
vt 0.912866 0.125000
vt 0.912866 0.375000
vt 0.912866 0.500000
vt 0.912866 0.625000
vt 0.912866 0.750000
vt 0.912866 0.875000
vt 0.846199 0.250000
vt 0.846199 0.125000
vt 0.846199 0.375000
vt 0.846199 0.500000
vt 0.846199 0.625000
vt 0.846199 0.750000
vt 0.846199 0.875000
vt 0.779532 0.250000
vt 0.779532 0.125000
vt 0.779532 0.375000
vt 0.779532 0.500000
vt 0.779532 0.625000
vt 0.779532 0.750000
vt 0.779532 0.875000
vt 0.712866 0.250000
vt 0.712866 0.375000
vt 0.712866 0.500000
vt 0.712866 0.625000
vt 0.712866 0.750000
vt 0.712866 0.875000
vt 0.646199 0.250000
vt 0.646199 0.125000
vt 0.646199 0.375000
vt 0.646199 0.500000
vt 0.646199 0.625000
vt 0.646199 0.750000
vt 0.646199 0.875000
vt 0.579532 0.250000
vt 0.579532 0.125000
vt 0.579532 0.375000
vt 0.579532 0.500000
vt 0.579532 0.625000
vt 0.579532 0.750000
vt 0.579532 0.875000
vt 0.512866 0.250000
vt 0.512865 0.125000
vt 0.512866 0.375000
vt 0.512866 0.500000
vt 0.512866 0.625000
vt 0.512866 0.750000
vt 0.512866 0.875000
vt 0.446199 0.250000
vt 0.446199 0.375000
vt 0.446199 0.500000
vt 0.446199 0.625000
vt 0.446199 0.750000
vt 0.446199 0.875000
vt 0.378782 0.000000
vt 0.379532 0.125000
vt 0.409304 1.000000
vt 0.246199 0.125000
vt 0.046199 0.125000
vt 1.378782 0.000000
vt 1.046199 0.125000
vt 1.409304 1.000000
vt 0.712866 0.125000
vt 0.446199 0.125000
vn -0.494100 -0.694400 0.523100
vn -0.664200 -0.694400 0.276900
vn -0.373300 -0.914500 0.155600
vn -0.636900 -0.373800 0.674200
vn -0.856100 -0.373800 0.356900
vn -0.686700 0.000000 0.727000
vn -0.923000 0.000000 0.384800
vn -0.636900 0.373800 0.674200
vn -0.856100 0.373800 0.356900
vn -0.494100 0.694400 0.523100
vn -0.664200 0.694400 0.276900
vn -0.277700 0.914500 0.294000
vn -0.373300 0.914500 0.155600
vn -0.719400 -0.694400 -0.017200
vn -0.927200 -0.373800 -0.022100
vn -0.999700 0.000000 -0.023900
vn -0.927200 0.373800 -0.022100
vn -0.719400 0.694400 -0.017200
vn -0.404300 0.914500 -0.009600
vn -0.650200 -0.694400 -0.308300
vn -0.365400 -0.914500 -0.173300
vn -0.838000 -0.373800 -0.397400
vn -0.903600 0.000000 -0.428400
vn -0.838000 0.373800 -0.397400
vn -0.650200 0.694400 -0.308300
vn -0.365400 0.914500 -0.173300
vn -0.468600 -0.694400 -0.546100
vn -0.263300 -0.914500 -0.306900
vn -0.604000 -0.373800 -0.703900
vn -0.651200 0.000000 -0.758900
vn -0.604000 0.373800 -0.703900
vn -0.468600 0.694400 -0.546100
vn -0.263300 0.914500 -0.306900
vn -0.205900 -0.694400 -0.689500
vn -0.265500 -0.373800 -0.888700
vn -0.286200 0.000000 -0.958200
vn -0.265500 0.373800 -0.888700
vn -0.205900 0.694400 -0.689500
vn -0.115700 0.914500 -0.387500
vn 0.092300 -0.694400 -0.713600
vn 0.051900 -0.914500 -0.401100
vn 0.118900 -0.373800 -0.919800
vn 0.128200 0.000000 -0.991700
vn 0.118900 0.373800 -0.919800
vn 0.092300 0.694400 -0.713600
vn 0.051900 0.914500 -0.401100
vn 0.374600 -0.694400 -0.614400
vn 0.210500 -0.914500 -0.345300
vn 0.482800 -0.373800 -0.791900
vn 0.520500 0.000000 -0.853800
vn 0.482800 0.373800 -0.791900
vn 0.374600 0.694400 -0.614400
vn 0.210500 0.914500 -0.345300
vn 0.592100 -0.694400 -0.408900
vn 0.332700 -0.914500 -0.229800
vn 0.763100 -0.373800 -0.527100
vn 0.822800 0.000000 -0.568300
vn 0.763100 0.373800 -0.527100
vn 0.592100 0.694400 -0.408900
vn 0.332700 0.914500 -0.229800
vn 0.707200 -0.694400 -0.132800
vn 0.397500 -0.914500 -0.074600
vn 0.911600 -0.373800 -0.171100
vn 0.982800 0.000000 -0.184500
vn 0.911600 0.373800 -0.171100
vn 0.707200 0.694400 -0.132800
vn 0.397500 0.914500 -0.074600
vn 0.700100 -0.694400 0.166400
vn 0.902300 -0.373800 0.214400
vn 0.972900 0.000000 0.231200
vn 0.902300 0.373800 0.214400
vn 0.700100 0.694400 0.166400
vn 0.393400 0.914500 0.093500
vn 0.571900 -0.694400 0.436800
vn 0.321400 -0.914500 0.245400
vn 0.737100 -0.373800 0.562900
vn 0.794700 0.000000 0.606900
vn 0.737100 0.373800 0.562900
vn 0.571900 0.694400 0.436800
vn 0.321400 0.914500 0.245400
vn 0.344800 -0.694400 0.631600
vn 0.193800 -0.914500 0.355000
vn 0.444400 -0.373800 0.814100
vn 0.479200 0.000000 0.877700
vn 0.444400 0.373800 0.814100
vn 0.344800 0.694400 0.631600
vn 0.193800 0.914500 0.355000
vn 0.058100 -0.694400 0.717200
vn 0.032700 -0.914500 0.403100
vn 0.074900 -0.373800 0.924400
vn 0.080700 0.000000 0.996700
vn 0.074900 0.373800 0.924400
vn 0.058100 0.694400 0.717200
vn 0.032700 0.914500 0.403100
vn -0.238600 -0.694400 0.678900
vn -0.307600 -0.373800 0.875000
vn -0.331600 0.000000 0.943400
vn -0.307600 0.373800 0.875000
vn -0.238600 0.694400 0.678900
vn -0.134100 0.914500 0.381500
vn 0.000000 -1.000000 0.000000
vn -0.277700 -0.914500 0.294000
vn 0.000000 1.000000 0.000000
vn -0.404300 -0.914500 -0.009600
vn -0.115700 -0.914500 -0.387500
vn 0.393400 -0.914500 0.093500
vn -0.134100 -0.914500 0.381500
s 1
f 6/1/1 13/2/2 14/3/3
f 5/4/4 12/5/5 13/2/2
f 5/4/4 4/6/6 11/7/7
f 3/8/8 10/9/9 11/7/7
f 2/10/10 9/11/11 10/9/9
f 2/10/10 1/12/12 8/13/13
f 14/3/3 13/2/2 20/14/14
f 12/5/5 19/15/15 20/14/14
f 11/7/7 18/16/16 19/15/15
f 11/7/7 10/9/9 17/17/17
f 9/11/11 16/18/18 17/17/17
f 9/11/11 8/13/13 15/19/19
f 20/14/14 27/20/20 28/21/21
f 20/14/14 19/15/15 26/22/22
f 19/15/15 18/16/16 25/23/23
f 17/17/17 24/24/24 25/23/23
f 16/18/18 23/25/25 24/24/24
f 15/19/19 22/26/26 23/25/25
f 27/20/20 34/27/27 35/28/28
f 26/22/22 33/29/29 34/27/27
f 26/22/22 25/23/23 32/30/30
f 24/24/24 31/31/31 32/30/30
f 24/24/24 23/25/25 30/32/32
f 22/26/26 29/33/33 30/32/32
f 35/28/28 34/27/27 41/34/34
f 34/27/27 33/29/29 40/35/35
f 33/29/29 32/30/30 39/36/36
f 31/31/31 38/37/37 39/36/36
f 31/31/31 30/32/32 37/38/38
f 30/32/32 29/33/33 36/39/39
f 41/40/34 48/41/40 49/42/41
f 40/43/35 47/44/42 48/41/40
f 40/43/35 39/45/36 46/46/43
f 38/47/37 45/48/44 46/46/43
f 37/49/38 44/50/45 45/48/44
f 37/49/38 36/51/39 43/52/46
f 48/41/40 56/53/47 57/54/48
f 47/44/42 55/55/49 56/53/47
f 46/46/43 54/56/50 55/55/49
f 45/48/44 53/57/51 54/56/50
f 44/50/45 52/58/52 53/57/51
f 43/52/46 51/59/53 52/58/52
f 56/53/47 63/60/54 64/61/55
f 55/55/49 62/62/56 63/60/54
f 54/56/50 61/63/57 62/62/56
f 53/57/51 60/64/58 61/63/57
f 52/58/52 59/65/59 60/64/58
f 52/58/52 51/59/53 58/66/60
f 63/60/54 70/67/61 71/68/62
f 63/60/54 62/62/56 69/69/63
f 62/62/56 61/63/57 68/70/64
f 60/64/58 67/71/65 68/70/64
f 59/65/59 66/72/66 67/71/65
f 58/66/60 65/73/67 66/72/66
f 71/68/62 70/67/61 77/74/68
f 69/69/63 76/75/69 77/74/68
f 68/70/64 75/76/70 76/75/69
f 67/71/65 74/77/71 75/76/70
f 66/72/66 73/78/72 74/77/71
f 65/73/67 72/79/73 73/78/72
f 77/74/68 84/80/74 85/81/75
f 76/75/69 83/82/76 84/80/74
f 76/75/69 75/76/70 82/83/77
f 74/77/71 81/84/78 82/83/77
f 73/78/72 80/85/79 81/84/78
f 73/78/72 72/79/73 79/86/80
f 84/80/74 91/87/81 92/88/82
f 83/82/76 90/89/83 91/87/81
f 83/82/76 82/83/77 89/90/84
f 81/84/78 88/91/85 89/90/84
f 80/85/79 87/92/86 88/91/85
f 79/86/80 86/93/87 87/92/86
f 91/87/81 98/94/88 99/95/89
f 90/89/83 97/96/90 98/94/88
f 90/89/83 89/90/84 96/97/91
f 88/91/85 95/98/92 96/97/91
f 87/92/86 94/99/93 95/98/92
f 86/93/87 93/100/94 94/99/93
f 99/95/89 98/94/88 105/101/95
f 97/96/90 104/102/96 105/101/95
f 96/97/91 103/103/97 104/102/96
f 95/98/92 102/104/98 103/103/97
f 94/99/93 101/105/99 102/104/98
f 93/100/94 100/106/100 101/105/99
f 107/107/101 7/108/102 14/3/3
f 1/12/12 50/109/103 8/13/13
f 107/107/101 14/3/3 21/110/104
f 8/13/13 50/109/103 15/19/19
f 107/107/101 21/110/104 28/21/21
f 15/19/19 50/109/103 22/26/26
f 107/107/101 28/21/21 35/28/28
f 22/26/26 50/109/103 29/33/33
f 107/107/101 35/28/28 42/111/105
f 29/33/33 50/109/103 36/39/39
f 107/112/101 42/113/105 49/42/41
f 36/51/39 50/114/103 43/52/46
f 107/112/101 49/42/41 57/54/48
f 43/52/46 50/114/103 51/59/53
f 107/112/101 57/54/48 64/61/55
f 51/59/53 50/114/103 58/66/60
f 107/107/101 64/61/55 71/68/62
f 58/66/60 50/109/103 65/73/67
f 107/107/101 71/68/62 78/115/106
f 65/73/67 50/109/103 72/79/73
f 107/107/101 78/115/106 85/81/75
f 72/79/73 50/109/103 79/86/80
f 107/107/101 85/81/75 92/88/82
f 79/86/80 50/109/103 86/93/87
f 107/107/101 92/88/82 99/95/89
f 86/93/87 50/109/103 93/100/94
f 107/107/101 99/95/89 106/116/107
f 93/100/94 50/109/103 100/106/100
f 107/107/101 106/116/107 7/108/102
f 106/116/107 105/101/95 6/1/1
f 105/101/95 104/102/96 5/4/4
f 104/102/96 103/103/97 4/6/6
f 102/104/98 3/8/8 4/6/6
f 101/105/99 2/10/10 3/8/8
f 100/106/100 1/12/12 2/10/10
f 100/106/100 50/109/103 1/12/12
f 7/108/102 6/1/1 14/3/3
f 6/1/1 5/4/4 13/2/2
f 12/5/5 5/4/4 11/7/7
f 4/6/6 3/8/8 11/7/7
f 3/8/8 2/10/10 10/9/9
f 9/11/11 2/10/10 8/13/13
f 21/110/104 14/3/3 20/14/14
f 13/2/2 12/5/5 20/14/14
f 12/5/5 11/7/7 19/15/15
f 18/16/16 11/7/7 17/17/17
f 10/9/9 9/11/11 17/17/17
f 16/18/18 9/11/11 15/19/19
f 21/110/104 20/14/14 28/21/21
f 27/20/20 20/14/14 26/22/22
f 26/22/22 19/15/15 25/23/23
f 18/16/16 17/17/17 25/23/23
f 17/17/17 16/18/18 24/24/24
f 16/18/18 15/19/19 23/25/25
f 28/21/21 27/20/20 35/28/28
f 27/20/20 26/22/22 34/27/27
f 33/29/29 26/22/22 32/30/30
f 25/23/23 24/24/24 32/30/30
f 31/31/31 24/24/24 30/32/32
f 23/25/25 22/26/26 30/32/32
f 42/111/105 35/28/28 41/34/34
f 41/34/34 34/27/27 40/35/35
f 40/35/35 33/29/29 39/36/36
f 32/30/30 31/31/31 39/36/36
f 38/37/37 31/31/31 37/38/38
f 37/38/38 30/32/32 36/39/39
f 42/113/105 41/40/34 49/42/41
f 41/40/34 40/43/35 48/41/40
f 47/44/42 40/43/35 46/46/43
f 39/45/36 38/47/37 46/46/43
f 38/47/37 37/49/38 45/48/44
f 44/50/45 37/49/38 43/52/46
f 49/42/41 48/41/40 57/54/48
f 48/41/40 47/44/42 56/53/47
f 47/44/42 46/46/43 55/55/49
f 46/46/43 45/48/44 54/56/50
f 45/48/44 44/50/45 53/57/51
f 44/50/45 43/52/46 52/58/52
f 57/54/48 56/53/47 64/61/55
f 56/53/47 55/55/49 63/60/54
f 55/55/49 54/56/50 62/62/56
f 54/56/50 53/57/51 61/63/57
f 53/57/51 52/58/52 60/64/58
f 59/65/59 52/58/52 58/66/60
f 64/61/55 63/60/54 71/68/62
f 70/67/61 63/60/54 69/69/63
f 69/69/63 62/62/56 68/70/64
f 61/63/57 60/64/58 68/70/64
f 60/64/58 59/65/59 67/71/65
f 59/65/59 58/66/60 66/72/66
f 78/115/106 71/68/62 77/74/68
f 70/67/61 69/69/63 77/74/68
f 69/69/63 68/70/64 76/75/69
f 68/70/64 67/71/65 75/76/70
f 67/71/65 66/72/66 74/77/71
f 66/72/66 65/73/67 73/78/72
f 78/115/106 77/74/68 85/81/75
f 77/74/68 76/75/69 84/80/74
f 83/82/76 76/75/69 82/83/77
f 75/76/70 74/77/71 82/83/77
f 74/77/71 73/78/72 81/84/78
f 80/85/79 73/78/72 79/86/80
f 85/81/75 84/80/74 92/88/82
f 84/80/74 83/82/76 91/87/81
f 90/89/83 83/82/76 89/90/84
f 82/83/77 81/84/78 89/90/84
f 81/84/78 80/85/79 88/91/85
f 80/85/79 79/86/80 87/92/86
f 92/88/82 91/87/81 99/95/89
f 91/87/81 90/89/83 98/94/88
f 97/96/90 90/89/83 96/97/91
f 89/90/84 88/91/85 96/97/91
f 88/91/85 87/92/86 95/98/92
f 87/92/86 86/93/87 94/99/93
f 106/116/107 99/95/89 105/101/95
f 98/94/88 97/96/90 105/101/95
f 97/96/90 96/97/91 104/102/96
f 96/97/91 95/98/92 103/103/97
f 95/98/92 94/99/93 102/104/98
f 94/99/93 93/100/94 101/105/99
f 7/108/102 106/116/107 6/1/1
f 6/1/1 105/101/95 5/4/4
f 5/4/4 104/102/96 4/6/6
f 103/103/97 102/104/98 4/6/6
f 102/104/98 101/105/99 3/8/8
f 101/105/99 100/106/100 2/10/10
